<svg width="45" height="61" fill="none" xmlns="http://www.w3.org/2000/svg"><path d="M6.613 53a41.862 41.862 0 007.778-6.878c.165-.175.26-.257.39-.257.658.08 1.32.119 1.983.116a28.152 28.152 0 004.166-.373c2.006-.304 4.025-.69 5.984-1.063l2.16-.409c.274-.057.543-.139.802-.245h.083l-.13-.467c-4.335.93-8.75 1.45-13.183 1.553h-1.11l2.254-2.429 1.665-1.775a.636.636 0 01.495-.199h.225c.555.074 1.115.113 1.676.117h.72a47.93 47.93 0 009.878-1.88c.166-.05.325-.12.473-.21l-.178-.444A54.385 54.385 0 0120.517 39.7l1.664-1.775 3.435-3.69a.85.85 0 01.72-.304 29.991 29.991 0 006.951-1.063h.13c.602-.14 1.18-.315 1.782-.49l.732-.21a.755.755 0 00.366-.234l.484-.573-1.475.363c-.543.128-1.086.268-1.63.385-2.019.46-4.077.735-6.148.817a5.578 5.578 0 01-.65 0l2.137-2.335a681.333 681.333 0 004.72-5.232 34.329 34.329 0 004.722-7.007c0-.117.118-.245.165-.362a.417.417 0 000-.444l-.212-.292s-.555.888-.661 1.075l-.555.922a30.116 30.116 0 01-3.281 4.8 267.697 267.697 0 01-4.202 4.59l-.59.63-2.597 2.756-.932.981-.106.094-.118-.41a12.047 12.047 0 01-.295-1.167 30.152 30.152 0 01-.354-6.201v-.315a5.238 5.238 0 000-.864h-.484l-.06.28a6.31 6.31 0 00-.117.654 25.524 25.524 0 00.189 7.462c.034.163.081.323.141.479.054.172.098.348.13.525a.614.614 0 01-.095.432c-.967 1.028-1.947 2.032-2.926 3.037l-.614.63v-.081a4.43 4.43 0 01-.213-.794 40.28 40.28 0 01-.46-9.915.51.51 0 00-.118-.386l-.354-.397-.13.806a6.242 6.242 0 00-.094.654 38.953 38.953 0 00.13 9.097c.09.533.24 1.054.448 1.553a.37.37 0 01-.083.48l-1.18 1.167-1.912 1.974-3.069 3.106-.165.14a42.511 42.511 0 01-.85-10.592h-.484c0 .339-.059.666-.082 1.005 0 .735-.106 1.471-.13 2.218a34.672 34.672 0 00.236 6.213c.085.555.2 1.104.342 1.647.083.303.06.479-.106.63L7.534 50.84l-.236.163v-.222c-.095-.362-.189-.712-.248-1.063a20.118 20.118 0 012.726-14.527 35.536 35.536 0 018.546-9.26 36.375 36.375 0 018.545-4.672c2.62-1.168 5.181-2.219 7.73-3.387a12.631 12.631 0 004.025-2.767c.309-.371.592-.761.85-1.168l.354-.537.165-.222c.012.23.012.46 0 .689 0 .327-.082.665-.13.992a11.684 11.684 0 00-.153 1.589c-.03 1.196.005 2.392.106 3.585.773 6.983-1.126 14-5.323 19.666a41.278 41.278 0 01-9.536 9.342 15.142 15.142 0 01-7.943 2.698c-2.432.152-4.804.303-7.153.572-.99.137-1.97.328-2.939.572L6.613 53z" fill="#DBBFFF"/><path d="M5.374 45.21a16.94 16.94 0 01-1.299-1.307 15.863 15.863 0 01-3.269-6.54 27 27 0 01-.661-9.342 32.23 32.23 0 013.069-10.44 40.522 40.522 0 002.36-6.319A7.375 7.375 0 005.504 7c.211.193.401.409.566.642a17.318 17.318 0 003.4 3.527 24.11 24.11 0 016.514 8.455 23.964 23.964 0 011.57 5.15.381.381 0 01-.189.479l-1.534 1.168.224-.41-.437-.233a19.68 19.68 0 01-2.714 3.41c-.52.55-1.039 1.11-1.523 1.705a18.13 18.13 0 00-1.18 1.589c-.177.257-.366.502-.555.759v-.468l-.177-2.125-.106-3.258a.66.66 0 01.26-.537 28.65 28.65 0 004.485-6.435v-.198l-.083-.678-.378.502-.153.246a28.835 28.835 0 01-4.225 5.512c0-.876-.071-1.752-.119-2.616-.082-1.962-.165-3.994-.318-5.98a27.73 27.73 0 00-1.251-6.446l-.142-.362a.328.328 0 00-.153-.175l-.638-.479.307 1.238c.095.397.177.771.283 1.168a32.696 32.696 0 011.05 8.408l.107 3.819.06 2.336h-.06a5.239 5.239 0 01-.72-.41A24.484 24.484 0 013.662 22.8l-.236-.245-.059-.058H3.25l-.507-.082.188.432v.094c.038.07.081.136.13.198a21.905 21.905 0 004.19 4.03l.449.268c.164.075.318.17.46.28a.866.866 0 01.295.374v4.04a3.718 3.718 0 01-.484-.257 34.952 34.952 0 01-5.17-4.472l-.412-.701h-.166l-.484.082.272.408c.044.079.095.153.153.222a32.984 32.984 0 004.946 4.765c.368.286.763.537 1.18.747.2.106.236.187.236.316v1.553a.3.3 0 010 .128L6.52 39.068l-3.695-3.375-.436.164.141.268v.082c.05.073.106.144.165.21l.071.07 3.411 3.375c.142.14.142.14.106.234a15.853 15.853 0 00-.72 5.337l-.188-.222z" fill="#DBBFFF"/></svg>