<svg width="45" height="61" fill="none" xmlns="http://www.w3.org/2000/svg"><path d="M19.687 33.556l-.035-.894a.748.748 0 01-.716.507c-.736.127-1.479.25-2.211.434a.743.743 0 01-1.022-.59l-.544-1.574c-.055-.16-.152-.327.006-.457a1.13 1.13 0 01.442-.223c.635-.112 1.275-.184 1.913-.285.069-.008.138-.02.205-.038a3.49 3.49 0 00-1.723-.075 3.989 3.989 0 01-.898.09.861.861 0 01-.352-.204c-.11-.064-.214-.124-.313-.255a7.874 7.874 0 013.037-1.163 15.248 15.248 0 00-3.4-2.082l.045-.076c.958.158 1.922.273 2.874.473.952.2 1.878.476 2.827.712-.04-.217-.078-.487-.148-.748a.312.312 0 00-.183-.161c-.725-.161-1.438-.361-2.168-.451a4.652 4.652 0 00-1.23.136 5.132 5.132 0 013.137-1.336c-.157-.413-.294-.813-.471-1.192a12.305 12.305 0 00-3.522-4.849 8.677 8.677 0 00-2.119-1.223 2.734 2.734 0 01-.317-.183 5.577 5.577 0 012.306.245 7.435 7.435 0 013.875 3.25c.629.998 1.217 2.018 1.847 3.063a6.304 6.304 0 00-.555-2.226c-.306-.682-.685-1.315-1.009-1.999a3.905 3.905 0 011.964 1.493 10.811 10.811 0 00-.88-2.413 1.363 1.363 0 00-1.209-.919 3.194 3.194 0 01-.414-.11 5.465 5.465 0 012.84.324 54.496 54.496 0 00-1.362-7.108 17.746 17.746 0 013.489 7.535c.226-1.029.466-2.05.667-3.083.542-2.637.747-5.333.61-8.021A18.87 18.87 0 0023.172.841a.957.957 0 01-.105-.345c.07.04.096.137.153.198a14.345 14.345 0 012.234 4.418c.464 1.427.924 2.862 1.319 4.313.24.875.354 1.778.529 2.67a.799.799 0 00.107.293l2.352-5.875.25.062c-.512 3.118-.727 6.279-1.416 9.368.165-.365.33-.73.51-1.105.328-.73.683-1.519 1.042-2.268.473-.979.935-1.954 1.442-2.913.622-1.205 1.251-2.406 1.932-3.568.526-.91 1.144-1.76 1.714-2.635.255-.442.552-.86.836-1.303.029.284.079.58.083.876A16.735 16.735 0 0135.5 7.25a32.743 32.743 0 01-1.767 5.053c-.627 1.405-1.3 2.792-1.958 4.188-.219.38-.403.78-.585 1.19a26.495 26.495 0 014.428-3.176l.07.04-1.77 3.064.07.04a27.977 27.977 0 0110.203-2.087c.009.064.014.129.017.194a.726.726 0 01-.04.069c-4.83.81-8.773 3.29-12.376 6.454l1.704 1.113c-.282 1.19-1.857 3.216-3.446 4.12.105-.565.228-1.129.3-1.667.072-.538.128-1.131.196-1.727a4.885 4.885 0 00-2.177 1.78l1.509-.16.017.065-1.404 1.03.672.637-.023.04c-.152-.023-.297-.06-.446-.072a1.849 1.849 0 00-1.457.42c-.369.32-.724.648-1.076.988a2.059 2.059 0 00-.23.3h.176l2.519-.57a8.065 8.065 0 014.44.07 4.98 4.98 0 012.915 2.3l.11.192c-.441-.209-.83-.379-1.205-.576a6.296 6.296 0 00-3.473-.662c-1.987.17-3.934.663-5.764 1.457 1.915.397 2.885 1.665 3.45 3.445a8.822 8.822 0 00-2.446-1.136 3.02 3.02 0 01.764 2.135l-.466.043c-.416.036-.416.036-.433.495l.895-.1.02.077c.034.663.221 1.31.547 1.89.22.43.407.887.584 1.33.037.113.062.23.076.347-.544.129-1.065.25-1.582.366-.214.051-.533-.225-.623-.516-.09-.29-.208-.82-.322-1.226-.059-.218-.142-.44-.224-.68l-.221.24a9.466 9.466 0 00-.984-2.52.31.31 0 00.015.101c.066.397-.047.544-.446.598-.4.055-.936.123-1.4.195a4.067 4.067 0 00-.514.108.75.75 0 01-.98-.566l-.268-.826-.109-.274-.516.272.36.971c.217.531.016.847-.547.946-.776.15-1.55.328-2.315.503a.725.725 0 01-1-.577 21.41 21.41 0 00-.696-2.141c-.161-.47-.049-.746.432-.845.85-.181 1.688-.342 2.537-.505.15.006.301.022.45.048zm6.07-21.063c.01.039.015.079.014.119.01.382.033.755.014 1.14a32.239 32.239 0 01-.897 6.015c-.46 2.025-.984 4.032-1.473 6.041-.04.07-.03.166-.053.3l1.593-1.675c.057-.06.1-.134.123-.214a37.565 37.565 0 001.533-11.803 24.75 24.75 0 00-1.58-7.942l-.087-.198a.224.224 0 00-.01.16c.501 2.192.684 4.446.544 6.69a41.2 41.2 0 01-1.785 9.644c-.039.182-.048.37-.026.555.019.205.052.409.099.61-.02.034.029.108.009.143-.105.26-.105.26.008.464.396-1.611.82-3.3 1.19-4.962.363-1.679.625-3.377.784-5.087zM35.944 3.55c-2.857 5.84-5.349 11.846-8.014 17.77a25.943 25.943 0 001.515-1.031.97.97 0 00.3-.314 67.532 67.532 0 004.164-8.454 35.473 35.473 0 001.606-4.998c.247-.973.391-1.97.429-2.973zM31.05 21.954l.49.283c.138.08.2.05.295-.033.287-.257.57-.508.855-.748a26.956 26.956 0 017.422-4.567c.395-.158.796-.295 1.18-.45-2.11.327-4.17.914-6.135 1.748a36.142 36.142 0 00-5.707 2.953c.203.062.34.095.483.15.134.06.262.133.38.22.204.172.367.129.58-.016a55.432 55.432 0 015.203-3.197c.185-.096.39-.18.58-.272-.911.688-1.852 1.313-2.787 1.96-.935.648-1.851 1.278-2.839 1.969zm-2.67 5.266a1.467 1.467 0 00-1.028-.18 4.217 4.217 0 00-1.865.856 11.885 11.885 0 00-2.11 1.947c-.342.42-.702.819-1.065 1.225.367.369.613.851 1.173.788 1.018-2.21 2.488-3.91 4.895-4.636zm2.274-.178a8.718 8.718 0 002.632-3.283l-1.031-.67-.47 1.515-.055-.032a3.187 3.187 0 00-.142-1.73c-.133-.407-.505-.512-.82-.748.468 1.677.157 3.283-.114 4.948zm-10.638 8.066a10.176 10.176 0 013.665-1.39.176.176 0 00.122-.133 4.99 4.99 0 00-.023-.933.638.638 0 00-.777-.55c-.45.034-.877.214-1.216.513a9.563 9.563 0 00-1.77 2.493zm8.507-.996a3.617 3.617 0 00-3.933-2.271l.36.364c.13.125.248.264.35.414a1.33 1.33 0 001.152.73.622.622 0 01.235.07l1.836.693zm-8.543-4.583l.062-.029c-.044-.384-.082-.765-.13-1.143a.175.175 0 00-.108-.117l-.338-.195a18.427 18.427 0 00-3.416-.84.538.538 0 00-.136-.005c.576.406 1.166.802 1.73 1.228.21.176.471.282.745.302a2.394 2.394 0 011.407.591l.184.208zm9.603-20.873l-.076-.044c-.125.314-.245.632-.37.946-.431 1.048-.848 2.105-1.3 3.142a2.192 2.192 0 00-.145 1.176c.048.332.052.675.092.973l.037.684.069.04 1.693-6.917zm-9.176 22.03c0-.175.215-.372-.064-.478a1.594 1.594 0 00-.518-.06 1.33 1.33 0 00-.352.1 8.055 8.055 0 00-2.056 1.123c-.319.248-.626.558-.916.805l.055.032a22.056 22.056 0 014.383-1.408l-.174-.256-.358.142zm-2.995-4.581c1.778.106 3.529.261 5.07 1.307a3.77 3.77 0 00-5.07-1.307zm3.536 3.946l2.06-.65a2.151 2.151 0 00-1.916-1.273l-.144 1.923zm8.705-1.148c.894.157 1.862.265 2.793.517.931.253 1.826.631 2.735.953-1.018-1.25-4.108-2.049-5.528-1.47zm-12.35-9.063a5.64 5.64 0 00-2.582-1.49l2.581 1.49zm5.183-.007c-.16-.534-.578-.592-.962-.804l.962.804zm7.034 1.54c-.237-.211-.36-.207-.669.138l.669-.138zM10.169 49.867a2.866 2.866 0 01-.323-.572 118.42 118.42 0 01-.727-2.758.796.796 0 01.614-1.062c.852-.217 1.69-.46 2.54-.687a1.83 1.83 0 01.426-.085.638.638 0 01.679.53l.746 2.805a.796.796 0 01-.634 1.097c-.895.228-1.782.489-2.685.713a2.96 2.96 0 01-.636.02zm9.014-2.431a3.415 3.415 0 01-.625.302c-.883.254-1.767.479-2.653.722a.797.797 0 01-1.042-.602l-.589-2.327c-.037-.141-.093-.284-.142-.422-.187-.458-.146-.609.277-.862.14-.072.288-.125.441-.16.845-.22 1.697-.437 2.54-.668a.795.795 0 011.055.61c.232.906.477 1.803.698 2.712.034.23.047.462.04.695zm-1.373-4.844a1.722 1.722 0 01-.452.273c-.918.252-1.855.456-2.768.73a.894.894 0 01-1.097-.633 56.912 56.912 0 00-.678-2.508.741.741 0 01.63-1.09c.845-.211 1.69-.432 2.535-.662a.795.795 0 011.104.637c.219.817.463 1.62.704 2.43.109.263.117.556.022.823zm-7.387 8.095c.17-.119.353-.217.546-.292.94-.258 1.88-.498 2.822-.744a.732.732 0 01.956.607c.14.569.264 1.137.43 1.71.077.312.198.612.287.921a.679.679 0 01-.538.932c-.902.224-1.798.452-2.688.703a.797.797 0 01-1.07-.618c-.222-.81-.464-1.602-.686-2.412a3.817 3.817 0 01-.089-.612l.076-.131-.046-.064zm8.892-2.365a2.3 2.3 0 01.28.52c.235.9.444 1.812.658 2.717a.749.749 0 01-.534.925 164.5 164.5 0 01-2.792.771.668.668 0 01-.87-.502l-.716-2.696a.71.71 0 01.47-.942c.172-.058.356-.09.53-.137.737-.209 1.478-.407 2.205-.631.247-.093.517-.102.77-.025zm-7.345-8.365c.112.147.205.306.28.474l.735 2.725a.7.7 0 01-.542.939c-.903.242-1.797.499-2.695.763a.735.735 0 01-.993-.574l-.701-2.659a.701.701 0 01.534-.925l2.614-.782c.251-.086.527-.072.768.04zm8.005 7.191a2.542 2.542 0 01-.296-.492c-.26-.951-.503-1.901-.746-2.851a.717.717 0 01.623-1.048l2.36-.58a.707.707 0 01.924.534c.08.276.123.568.192.847l.514 1.852c.044.159.061.324.049.488a.573.573 0 01-.537.61c-.784.21-1.56.425-2.341.646a.622.622 0 01-.635-.064l-.107.058zM5.753 51a2.887 2.887 0 01-.312-.576c-.253-.947-.483-1.89-.718-2.835a.653.653 0 01.544-.8l1.73-.445c.21-.063.422-.143.637-.212a.694.694 0 01.96.554c.077.312.129.636.206.948.16.598.325 1.19.507 1.783a.725.725 0 01-.61 1.056c-.796.184-1.58.394-2.383.574A2.392 2.392 0 015.753 51z" fill="#DBBFFF"/><path d="M18.734 42.188a3.113 3.113 0 01-.362-.568 113.5 113.5 0 01-.772-2.663.612.612 0 01.494-.856c.873-.205 1.748-.399 2.63-.588a.797.797 0 01.902.621l.762 2.538a.726.726 0 01-.55.952c-.824.169-1.634.41-2.456.588a2.78 2.78 0 01-.648-.024zM7.003 55.67a3.7 3.7 0 01-.341-.62c-.275-.831-.507-1.673-.76-2.51a.717.717 0 01.55-.952 86.25 86.25 0 002.356-.59.75.75 0 01.994.574l.79 2.71a.644.644 0 01-.514.89c-.829.194-1.654.38-2.489.55a2.743 2.743 0 01-.586-.052zm5.553-16.837a2.684 2.684 0 01-.304-.525c-.226-.756-.426-1.525-.637-2.291a.686.686 0 01.543-.846l2.402-.638.403-.108a.686.686 0 01.862.498c.224.728.46 1.453.694 2.177a.724.724 0 01-.557.966c-.946.236-1.893.49-2.835.719a3.04 3.04 0 01-.57.048zm11.851 11.794c-.16.116-.33.218-.508.305-.76.28-1.524.537-2.3.797a.606.606 0 01-.835-.482c-.195-.873-.4-1.746-.614-2.618a.796.796 0 01.645-1.118c.736-.191 1.467-.404 2.177-.583.517-.162.826-.011.918.53.183.878.352 1.749.506 2.63.021.178.025.36.01.539zm-8.733 3.764c.115.155.209.324.28.503.23.767.436 1.54.654 2.31a.566.566 0 01-.282.664 1.75 1.75 0 01-.391.152l-2.606.704a.662.662 0 01-.925-.534c-.186-.65-.404-1.292-.62-1.969a2.247 2.247 0 01-.107-.374.614.614 0 01.503-.759c.947-.254 1.894-.507 2.854-.735.214-.02.43-.007.64.038zM8.06 45.31a3.28 3.28 0 01-.553.306c-.804.245-1.602.465-2.405.691a.559.559 0 01-.69-.398c-.11-.367-.15-.759-.256-1.15l-.326-1.523a.74.74 0 01.59-1.021c.702-.23 1.406-.477 2.063-.723a.614.614 0 01.918.53c.205.873.424 1.736.615 2.6a3.3 3.3 0 01.045.688zm-.869-8.23a2.23 2.23 0 01.487-.318c.857-.305 1.72-.59 2.58-.884a.605.605 0 01.877.506c.17.678.358 1.357.56 2.026.203.67 0 1.021-.689 1.194-.689.173-1.552.456-2.326.681a2.194 2.194 0 01-.447.138.574.574 0 01-.592-.49c-.157-.78-.328-1.55-.492-2.335a1.97 1.97 0 01.042-.519zm9.365 16.945c.19-.132.393-.243.605-.332.888-.279 1.782-.535 2.677-.81a.622.622 0 01.89.514c.106.66.248 1.313.425 1.957a.796.796 0 01-.621 1.076c-.773.207-1.52.512-2.281.763-.123.048-.25.086-.378.113a.533.533 0 01-.69-.398 87.99 87.99 0 01-.633-2.316 2.012 2.012 0 01.006-.567zm-9.188 2.24a1.8 1.8 0 01.36-.16c.835-.19 1.677-.356 2.517-.552a.797.797 0 011.001.577c.21.72.438 1.44.678 2.14.149.445.042.742-.415.846-.742.17-1.487.329-2.232.441a2.688 2.688 0 01-.934-.088.622.622 0 01-.229-.289c-.28-.741-.539-1.489-.808-2.233a.701.701 0 01.062-.682zm-2.501-4.911c-.147.09-.304.163-.467.218-.663.16-1.331.299-2.001.455a.614.614 0 01-.776-.521 41.736 41.736 0 01-.387-1.402c-.118-.464-.18-.803-.263-1.2a2.255 2.255 0 01-.032-.488.542.542 0 01.45-.523c.624-.173 1.237-.343 1.859-.527a.646.646 0 01.918.53c.138.604.232 1.192.409 1.81.076.329.196.646.266.972.03.224.037.45.024.676zm19.47-5.497a2.863 2.863 0 01-.3-.532 55.097 55.097 0 01-.696-2.812.653.653 0 01.554-.895c.628-.116 1.256-.279 1.879-.434a.582.582 0 01.821.474c.222.938.434 1.88.63 2.83a.653.653 0 01-.584.868c-.573.148-1.112.333-1.69.488-.195.052-.388.116-.569-.034l-.045.047zm-1.154-4.744a.798.798 0 01-.434-.572c-.24-.828-.479-1.657-.736-2.486a.636.636 0 01.588-.94c.613-.088 1.227-.212 1.836-.31a.724.724 0 01.918.53c.122.346.214.712.312 1.053.097.342.343 1 .474 1.489a.598.598 0 01-.12.703.852.852 0 01-.361.178 59.38 59.38 0 01-1.96.415 2.673 2.673 0 01-.533.014l.015-.074zM3.388 56.084a1.036 1.036 0 01-.667-.836c-.122-.65-.397-1.241-.593-1.842a1.833 1.833 0 01-.033-.58.367.367 0 01.341-.337l2.126-.494a.701.701 0 01.832.582l.547 1.954c.067.25.17.485.242.728a.582.582 0 01-.538.821c-.418.044-.832.112-1.24.204a1.042 1.042 0 01-1.017-.2zm11.03-24.925c.09.18.175.303.23.445.162.539.35 1.068.566 1.587.231.492-.04.77-.446.884-.642.172-1.297.318-1.946.486-.327.088-.645.208-.98.28a.511.511 0 01-.691-.398c-.178-.6-.352-1.206-.542-1.803a.51.51 0 01.217-.583.861.861 0 01.328-.17 81.3 81.3 0 012.527-.694c.244-.037.491-.049.737-.034zM3.902 38.3a2.29 2.29 0 01.374-.217c.467-.218.943-.422 1.426-.621.137-.07.283-.119.434-.146a.43.43 0 01.506.366l.492 2.336a.741.741 0 01-.548.853l-2.4.841c-.313.113-.588 0-.634-.302a4.924 4.924 0 01.079-2.512c.088-.217.16-.359.271-.598zm2.972-3.97c.24-.378.586-.678.995-.861.43-.22.881-.412 1.287-.637.194-.095.379-.207.552-.335a.216.216 0 01.272-.038.215.215 0 01.07.07.933.933 0 01.164.288c.168.538.292 1.088.474 1.617a.614.614 0 01-.43.874l-2.577.923c-.1.032-.203.056-.307.071a.407.407 0 01-.522-.356 5.578 5.578 0 01-.137-.926c.022-.236.076-.468.16-.69zM1.157 47.325a4.256 4.256 0 00.226-2.207c-.016-.5.002-1 .054-1.497a.574.574 0 01.422-.492c.258-.08.516-.208.78-.314a.477.477 0 01.69.399l.495 2.679a.717.717 0 01-.596.889c-.61.163-1.202.345-1.809.52-.102.032-.194.08-.289.117l.027-.094zm23.229-.566c.169-.114.348-.21.535-.29.634-.204 1.28-.383 1.916-.577a.46.46 0 01.62.248.797.797 0 01-.13.992 3.929 3.929 0 00-1.187 2.756c-.003.118-.046.304-.12.336-.271.119-.526.321-.845.22-.319-.101-.275-.288-.313-.494-.037-.205-.058-.456-.101-.684-.119-.593-.24-1.178-.354-1.778a6.063 6.063 0 01-.02-.73zm-1.536 8.618a.883.883 0 01-.602.47.453.453 0 01-.622-.358 63.224 63.224 0 00-.527-2.274.797.797 0 01.506-.876c.51-.184 1.026-.328 1.548-.514.256-.092.508-.195.76-.297.253-.103.434-.145.573.045.1.189.172.392.213.602l-.067.117a3.777 3.777 0 00-1.568 2.444c-.06.217-.131.431-.213.64zm-5.588 4.245c-.315.02-.607.064-.893.065a5.577 5.577 0 00-2.93.773c-.025.042-.1.044-.166.08-.11-.257-.224-.489-.313-.733a.478.478 0 01.293-.604c.111-.051.227-.092.346-.122l2.512-.685a1.46 1.46 0 01.41-.057.494.494 0 01.538.44c.07.26.113.552.203.843zM4.671 56.825c.416-.083.821-.18 1.24-.25a.749.749 0 01.842.485c.292.785.558 1.583.835 2.378a2.143 2.143 0 01-1.46-.659 7.555 7.555 0 01-.59-.746l-.867-1.208zm23.377-11.899a.581.581 0 01-.437-.501c-.18-.868-.364-1.729-.537-2.592a2.056 2.056 0 01-.032-.727.422.422 0 01.287-.258c.441-.095.891-.157 1.389-.238a7.85 7.85 0 01-.32.938A4.494 4.494 0 0028 44.419c.027.162.044.325.05.489 0 0 .01-.003-.002.018zM10.631 31.63a2.997 2.997 0 012.575-1.623l.688-.044c.108-.011.23-.033.235.136.004.168.07.325.001.396-.13.147-.299.256-.486.317-.746.223-1.504.42-2.259.628l-.754.19zm9.336 25.57c-.755.687-1.149 1.72-2.125 2.215a7.227 7.227 0 01-.286-.938.797.797 0 01.177-.45.598.598 0 01.286-.194l1.948-.633zm-7.319 3.512c-.982.234-1.675-.286-2.453-.772.535-.114 1.065-.25 1.605-.325a.605.605 0 01.638.488l.21.61zm12.541-8.824c-.18-.647.097-1.03.818-1.147a2.032 2.032 0 01-.818 1.147zM5.234 37.285l1.08-1.217a.677.677 0 01-.362.913c-.283.123-.538.215-.718.304zM1.102 50.973a2.902 2.902 0 01-.449-2.33l.45 2.33zm1.092-8.426l.929-1.13c.144.149.091.32.05.471-.177.45-.598.51-.979.66zm25.672 3.634l.126-.617.083.048-.123.628-.086-.059z" fill="#DBBFFF"/></svg>