<svg width="40" height="46" viewBox="0 0 45 61" fill="none" xmlns="http://www.w3.org/2000/svg"><g clip-path="url(#clip0_226_118)" fill="#DBBFFF"><path d="M6.59 46a41.875 41.875 0 007.783-6.878c.165-.175.26-.257.39-.257.658.08 1.32.119 1.983.116a28.186 28.186 0 004.17-.373c2.007-.304 4.026-.69 5.987-1.063l2.161-.409c.275-.057.544-.139.803-.245h.083l-.13-.467a70.75 70.75 0 01-13.192 1.553h-1.11l2.256-2.429 1.665-1.775a.637.637 0 01.496-.199h.224a13.45 13.45 0 001.677.117h.72a47.983 47.983 0 009.886-1.88c.165-.05.324-.12.472-.21l-.177-.444A54.45 54.45 0 0120.502 32.7l1.665-1.775 3.437-3.69a.85.85 0 01.72-.304 30.025 30.025 0 006.956-1.063h.13c.602-.14 1.181-.315 1.783-.49l.733-.21a.756.756 0 00.366-.234l.484-.573-1.476.363c-.544.128-1.087.268-1.63.385a33.72 33.72 0 01-6.153.817 5.585 5.585 0 01-.65 0l2.138-2.335a679.542 679.542 0 004.724-5.232 34.33 34.33 0 004.724-7.007c0-.117.118-.245.165-.362a.417.417 0 000-.444l-.212-.292s-.556.888-.662 1.075l-.555.922a30.114 30.114 0 01-3.283 4.8 268.199 268.199 0 01-4.204 4.59l-.59.63-2.599 2.756-.933.981-.106.094-.118-.41a12.049 12.049 0 01-.296-1.167 30.192 30.192 0 01-.354-6.201v-.315a5.238 5.238 0 000-.864h-.484l-.06.28c-.05.216-.09.434-.117.654a25.514 25.514 0 00.189 7.462c.034.163.082.323.141.479.055.172.098.348.13.525a.613.613 0 01-.094.432 239.807 239.807 0 01-2.929 3.037l-.614.63v-.081a4.422 4.422 0 01-.213-.795 40.261 40.261 0 01-.46-9.914.508.508 0 00-.118-.386l-.355-.397-.13.806a6.242 6.242 0 00-.094.654 38.931 38.931 0 00.13 9.097c.09.533.24 1.054.449 1.553a.37.37 0 01-.083.48l-1.18 1.167-1.914 1.974-3.07 3.106-.166.14a42.488 42.488 0 01-.85-10.592h-.485c0 .339-.059.666-.082 1.005 0 .735-.107 1.471-.13 2.218a34.635 34.635 0 00.236 6.213c.085.555.2 1.104.342 1.647.083.303.06.479-.106.63L7.511 43.84l-.236.163v-.222c-.095-.362-.19-.712-.248-1.063a20.108 20.108 0 012.728-14.527 35.546 35.546 0 018.55-9.26 36.401 36.401 0 018.55-4.672c2.622-1.168 5.185-2.219 7.736-3.387a12.639 12.639 0 004.027-2.767c.309-.371.593-.761.85-1.168l.355-.537.165-.222c.012.23.012.46 0 .689 0 .327-.082.665-.13.992a11.684 11.684 0 00-.153 1.589 32.74 32.74 0 00.106 3.585c.773 6.983-1.127 14-5.326 19.666a41.292 41.292 0 01-9.543 9.342 15.158 15.158 0 01-7.948 2.698c-2.432.152-4.806.303-7.156.572-.99.137-1.972.328-2.941.572L6.59 46z"/><path d="M5.35 38.21c-.457-.412-.89-.848-1.3-1.307a15.86 15.86 0 01-3.27-6.54 26.984 26.984 0 01-.662-9.342 32.215 32.215 0 013.07-10.44A40.505 40.505 0 005.55 4.262 7.371 7.371 0 005.48 0c.211.193.401.409.566.642A17.322 17.322 0 009.448 4.17a24.112 24.112 0 016.519 8.455 23.95 23.95 0 011.57 5.15.382.382 0 01-.189.479l-1.535 1.168.225-.41-.438-.233a19.68 19.68 0 01-2.716 3.41c-.52.55-1.039 1.11-1.523 1.705a18.127 18.127 0 00-1.181 1.589c-.177.256-.366.502-.555.759v-.468l-.177-2.125-.107-3.258a.66.66 0 01.26-.537 28.653 28.653 0 004.488-6.435v-.198l-.083-.678-.378.502-.153.246a28.83 28.83 0 01-4.228 5.512c0-.876-.071-1.752-.118-2.616-.083-1.962-.166-3.994-.32-5.98a27.75 27.75 0 00-1.25-6.447l-.142-.362a.328.328 0 00-.153-.175l-.638-.479.307 1.238c.095.397.177.771.284 1.168a32.677 32.677 0 011.05 8.408l.107 3.819.059 2.336h-.06a5.243 5.243 0 01-.72-.41A24.494 24.494 0 013.637 15.8l-.236-.245-.06-.058h-.117l-.508-.082.189.432v.094a1.3 1.3 0 00.13.198 21.912 21.912 0 004.192 4.03l.45.268c.163.075.318.17.46.28a.866.866 0 01.295.374v4.04a3.72 3.72 0 01-.484-.257 34.967 34.967 0 01-5.173-4.472l-.413-.701h-.166l-.484.082.272.408c.044.079.095.153.153.222a32.996 32.996 0 004.949 4.765c.368.286.763.537 1.18.747.201.105.237.187.237.316v1.553a.3.3 0 010 .128l-2.008 4.146L2.8 28.693l-.437.164.141.268v.082c.05.073.106.144.166.21l.07.07 3.414 3.375c.141.14.141.14.106.234a15.844 15.844 0 00-.72 5.337l-.19-.222z"/></g><defs><clipPath id="clip0_226_118"><path fill="#fff" d="M0 0h40v46H0z"/></clipPath></defs></svg>