<svg width="45" height="61" viewBox="0 0 45 61" fill="none" xmlns="http://www.w3.org/2000/svg">
<path d="M6.61328 53C9.48472 51.0359 12.0975 48.7253 14.3913 46.1216C14.5565 45.9465 14.6509 45.8647 14.7807 45.8647C15.4386 45.9447 16.1008 45.9837 16.7636 45.9815C18.1599 45.9604 19.5526 45.8355 20.9299 45.6078C22.9364 45.3042 24.9547 44.9188 26.9139 44.5451L29.0738 44.1364C29.3484 44.0794 29.6171 43.9973 29.8764 43.8911H29.959L29.8292 43.424C25.4943 44.3541 21.0799 44.8742 16.6456 44.9772H15.5361L17.7904 42.5481L19.4546 40.7731C19.5178 40.7064 19.5948 40.6541 19.6804 40.6199C19.766 40.5856 19.8581 40.5701 19.9503 40.5745H20.1746C20.7302 40.6482 21.29 40.6872 21.8506 40.6913C22.0866 40.6913 22.3345 40.6913 22.5705 40.6913C25.9215 40.4125 29.233 39.7822 32.4494 38.8111C32.615 38.7608 32.7736 38.6902 32.9215 38.6009L32.7444 38.1572C28.7417 39.1325 24.6389 39.6497 20.5169 39.6987L22.181 37.9236L25.6156 34.2333C25.7022 34.1293 25.8129 34.0475 25.9382 33.9946C26.0635 33.9418 26.1998 33.9195 26.3356 33.9297V33.9297C28.6872 33.8492 31.0208 33.4925 33.2874 32.867H33.4172C34.0191 32.7269 34.5975 32.5517 35.1994 32.3765L35.9312 32.1663C36.0737 32.1257 36.2009 32.0445 36.297 31.9328L36.781 31.3605L35.3056 31.7225C34.7627 31.851 34.2198 31.9911 33.6768 32.1079C31.6573 32.5689 29.5986 32.8426 27.5276 32.9254V32.9254C27.3115 32.938 27.0947 32.938 26.8785 32.9254L29.0148 30.5898C30.5727 28.8848 32.1897 27.0863 33.7359 25.358C35.594 23.2228 37.1796 20.8695 38.4569 18.3511C38.4569 18.2343 38.575 18.1059 38.6222 17.9891C38.664 17.9225 38.6862 17.8456 38.6862 17.7672C38.6862 17.6888 38.664 17.6119 38.6222 17.5453L38.4097 17.2534C38.4097 17.2534 37.855 18.1409 37.7488 18.3278L37.1941 19.2503C36.2587 20.9508 35.1599 22.5582 33.9129 24.05C32.532 25.6032 31.1039 27.1447 29.7111 28.6395L29.121 29.2701L26.5244 32.0262L25.592 33.0071L25.4858 33.1006L25.3678 32.6918C25.2497 32.2831 25.1435 31.9094 25.0727 31.524C24.7419 29.4743 24.6233 27.3965 24.7186 25.3229V25.0076C24.7424 24.7201 24.7424 24.431 24.7186 24.1435H24.2347L24.1757 24.4237C24.1249 24.6396 24.0855 24.8578 24.0577 25.0777C23.7546 27.561 23.8182 30.0748 24.2465 32.54C24.2812 32.703 24.3285 32.8631 24.3881 33.0188C24.4425 33.1911 24.4859 33.3666 24.518 33.5443C24.5413 33.6949 24.5077 33.8488 24.4235 33.9764C23.4557 35.0041 22.4761 36.0084 21.4965 37.0127L20.8827 37.6433V37.5616C20.7874 37.3039 20.7163 37.0381 20.6703 36.7675C20.1087 33.4935 19.9541 30.1639 20.21 26.8528C20.2175 26.784 20.211 26.7144 20.1907 26.6482C20.1704 26.582 20.1368 26.5205 20.092 26.4674L19.7379 26.0703L19.608 26.8761C19.565 27.0923 19.5335 27.3106 19.5136 27.5301C19.2014 30.5573 19.245 33.6101 19.6435 36.6273C19.7334 37.1601 19.8839 37.6811 20.092 38.1805C20.1381 38.257 20.1551 38.3472 20.14 38.435C20.1248 38.5228 20.0785 38.6024 20.0093 38.6593L18.8291 39.8271L16.917 41.8007L13.8483 44.9071L13.6831 45.0472C12.9579 41.565 12.6724 38.0071 12.8333 34.4552H12.3494C12.3494 34.7939 12.2904 35.1209 12.2668 35.4595C12.2668 36.1953 12.1605 36.931 12.1369 37.6784C12.0294 39.7521 12.1084 41.8312 12.373 43.8911C12.4582 44.4455 12.5724 44.9951 12.7153 45.5377C12.7979 45.8414 12.7743 46.0165 12.609 46.1683L7.53389 50.8396L7.29784 51.0031V50.7812C7.20342 50.4192 7.10899 50.0688 7.04998 49.7185C6.08175 44.709 7.05511 39.5225 9.7764 35.1909C12.045 31.6254 14.9388 28.4893 18.3215 25.9302C20.9441 23.9991 23.8185 22.4278 26.8667 21.259C29.4869 20.0912 32.0481 19.0401 34.5975 17.8723C36.1088 17.2187 37.4762 16.2784 38.6222 15.1046C38.9305 14.7338 39.2143 14.3437 39.472 13.9368L39.8261 13.3996L39.9913 13.1777C40.0031 13.4073 40.0031 13.6372 39.9913 13.8667C39.9913 14.1937 39.9087 14.5324 39.8615 14.8594C39.7742 15.3848 39.7229 15.9154 39.708 16.4476C39.6775 17.6437 39.713 18.8405 39.8142 20.0328C40.587 27.016 38.6879 34.0323 34.4912 39.6987C31.8459 43.3043 28.6249 46.4597 24.9547 49.0412C22.6196 50.6685 19.8644 51.6043 17.0115 51.7388C14.5801 51.8906 12.2078 52.0424 9.85902 52.311C8.86943 52.4477 7.88829 52.6387 6.92015 52.8832L6.61328 53Z" fill="#DBBFFF"/>
<path d="M5.37364 45.2107C4.91721 44.7984 4.4838 44.3617 4.07534 43.9028C2.48888 42.0025 1.36974 39.7639 0.805998 37.363C0.0430348 34.3099 -0.180577 31.1491 0.145048 28.0206C0.567963 24.3946 1.60539 20.8652 3.21375 17.5804C4.17528 15.5424 4.96481 13.4292 5.57428 11.2625C5.97077 9.86517 5.94616 8.38368 5.50347 7C5.71526 7.19317 5.90522 7.40853 6.07 7.6423C7.02853 8.97124 8.17302 10.1587 9.46917 11.1691C12.2504 13.4719 14.4764 16.3606 15.9843 19.624C16.6997 21.2775 17.2262 23.0049 17.554 24.7741C17.5876 24.8629 17.5869 24.9608 17.552 25.0492C17.5172 25.1375 17.4507 25.21 17.3652 25.2529L15.8308 26.4207L16.0551 26.0119L15.6184 25.7784C14.8436 27.0108 13.9332 28.1544 12.9038 29.1884C12.3844 29.7372 11.8651 30.2978 11.3812 30.8934C10.8973 31.489 10.5432 31.9561 10.2009 32.4816C10.0239 32.7385 9.83506 32.9838 9.64621 33.2407V32.7735L9.46917 30.6481L9.36295 27.3899C9.36111 27.2866 9.38361 27.1843 9.42868 27.091C9.47375 26.9978 9.54015 26.9162 9.62261 26.8528C11.4076 24.9206 12.9167 22.7556 14.1076 20.4181V20.3481V20.2196L14.025 19.5423L13.6473 20.0444L13.4939 20.2897C12.3144 22.2883 10.8957 24.139 9.26853 25.8017C9.26853 24.9259 9.19771 24.05 9.1505 23.1858C9.06788 21.2239 8.98526 19.1919 8.83183 17.2067C8.67142 15.0168 8.25152 12.8532 7.58074 10.7603L7.43911 10.3983C7.4113 10.3234 7.35672 10.261 7.28567 10.2232L6.64833 9.74435L6.9552 10.9822C7.04962 11.3793 7.13224 11.753 7.23846 12.15C7.952 14.8965 8.30505 17.7225 8.2889 20.5583L8.39513 24.377L8.45414 26.7126H8.39513C8.14457 26.5955 7.90383 26.4588 7.67516 26.3039C6.21255 25.2842 4.86693 24.1094 3.66225 22.8005L3.4262 22.5552L3.36718 22.4968H3.24916L2.74164 22.4151L2.93048 22.8472V22.9406C2.96803 23.0103 3.01146 23.0767 3.06031 23.1391C4.26982 24.6604 5.67888 26.0153 7.25027 27.1681L7.69877 27.4367C7.86254 27.5123 8.01699 27.6064 8.15907 27.7169C8.29072 27.8118 8.39293 27.9413 8.45414 28.0906C8.45414 29.1767 8.45414 30.2744 8.45414 31.3605V32.1313C8.28664 32.0576 8.12489 31.9717 7.97023 31.8743C6.10329 30.5544 4.37179 29.0563 2.80065 27.4016L2.38756 26.7009H2.22232L1.73841 26.7827L2.00987 27.1914C2.05412 27.2698 2.10548 27.3441 2.16331 27.4133C3.63964 29.1675 5.29707 30.7644 7.10863 32.178C7.47678 32.4642 7.87204 32.7145 8.2889 32.9254C8.48955 33.0305 8.52496 33.1122 8.52496 33.2407C8.52496 33.3691 8.52496 34.4085 8.52496 34.7939C8.53422 34.8362 8.53422 34.88 8.52496 34.9223L6.5185 39.068L2.82426 35.6931L2.38756 35.8566L2.52919 36.1252V36.2069C2.5797 36.2804 2.63489 36.3506 2.69443 36.4171L2.76524 36.4872L6.17622 39.8621C6.31785 40.0023 6.31785 40.0023 6.28245 40.0957C5.7397 41.8217 5.49627 43.6262 5.56248 45.4326L5.37364 45.2107Z" fill="#DBBFFF"/>
</svg>
