<svg width="45" height="61" viewBox="0 0 45 61" fill="none" xmlns="http://www.w3.org/2000/svg">
<path d="M19.6873 33.5564L19.6517 32.6617C19.6008 32.8107 19.5043 32.9399 19.3757 33.0308C19.2472 33.1218 19.0933 33.17 18.9359 33.1685C18.1999 33.2957 17.4571 33.4189 16.7248 33.6035C16.6195 33.6475 16.5055 33.6667 16.3916 33.6595C16.2776 33.6522 16.1669 33.6188 16.0681 33.5617C15.9692 33.5046 15.8849 33.4255 15.8216 33.3304C15.7584 33.2354 15.718 33.127 15.7035 33.0138L15.159 31.4388C15.1043 31.2784 15.0072 31.112 15.165 30.9822C15.2939 30.876 15.4448 30.7997 15.6068 30.7588C16.2418 30.647 16.8816 30.5747 17.5196 30.4738C17.589 30.4657 17.6577 30.4532 17.7254 30.4361C17.1662 30.2674 16.5736 30.2416 16.0019 30.3613C15.707 30.4248 15.4058 30.4546 15.1041 30.4502C14.9722 30.4115 14.8515 30.3418 14.7521 30.247C14.6417 30.1832 14.5382 30.1234 14.4389 29.9925C15.3591 29.3976 16.3934 29.0012 17.4755 28.8289C16.4386 27.9892 15.2959 27.2893 14.0768 26.747L14.1206 26.6711C15.0787 26.8286 16.0428 26.9435 16.9948 27.1435C17.9467 27.3434 18.8726 27.6204 19.8224 27.8559C19.7818 27.6392 19.7445 27.3692 19.6745 27.108C19.6564 27.0702 19.6308 27.0365 19.5994 27.0088C19.5679 26.9811 19.5312 26.9601 19.4914 26.947C18.7656 26.7857 18.0529 26.5858 17.3228 26.4956C16.9089 26.4863 16.4955 26.5323 16.0937 26.6324C16.9563 25.8427 18.0627 25.3713 19.2299 25.2962C19.0726 24.8834 18.936 24.4825 18.7588 24.1041C18.0024 22.2222 16.7926 20.5565 15.2369 19.2551C14.592 18.7494 13.8787 18.3376 13.1183 18.032C13.0085 17.9781 12.9025 17.9168 12.8009 17.8487C13.5782 17.7681 14.3638 17.8517 15.1067 18.0942C16.7383 18.6913 18.1093 19.8409 18.9816 21.3435C19.6107 22.3416 20.1992 23.3623 20.8291 24.4069C20.7816 23.6374 20.5933 22.8831 20.2736 22.1815C19.9683 21.4991 19.5886 20.8658 19.2655 20.1824C20.0639 20.4547 20.7527 20.9783 21.2287 21.6747C21.0323 20.8384 20.737 20.0285 20.3489 19.2621C20.2613 19.0063 20.0996 18.7824 19.8844 18.6188C19.6691 18.4553 19.4101 18.3594 19.1402 18.3434C18.9997 18.3159 18.8612 18.279 18.7256 18.2329C19.6843 18.087 20.6646 18.1988 21.5658 18.5569C21.2698 16.1601 20.8148 13.7856 20.2038 11.4491C21.9464 13.6496 23.1422 16.2321 23.6929 18.9844C23.9189 17.9555 24.1587 16.9346 24.36 15.9006C24.9024 13.2636 25.1074 10.5683 24.97 7.8795C24.832 5.43935 24.2213 3.04924 23.1718 0.841998C23.1154 0.734516 23.0801 0.617291 23.0675 0.496582C23.1366 0.536425 23.1628 0.634394 23.2199 0.69494C24.2149 2.02707 24.9708 3.52207 25.4537 5.11315C25.9179 6.54049 26.378 7.97473 26.7728 9.42647C27.0131 10.3013 27.1267 11.2042 27.3016 12.0965C27.3179 12.2 27.3544 12.2992 27.409 12.3886L29.7609 6.51411L30.0107 6.57552C29.4986 9.69361 29.2839 12.8546 28.5951 15.9442C28.7598 15.5792 28.9245 15.2142 29.1041 14.8394C29.4335 14.1095 29.7879 13.3204 30.1471 12.5708C30.6199 11.5924 31.0819 10.6169 31.5893 9.65845C32.2114 8.45339 32.8404 7.25232 33.5207 6.09003C34.0466 5.17909 34.6652 4.33083 35.2354 3.45468C35.4904 3.01301 35.7868 2.59525 36.0705 2.15173C36.0999 2.43554 36.1499 2.73129 36.1536 3.02783C36.1172 4.45779 35.8976 5.8772 35.5002 7.25131C35.0501 8.98097 34.4591 10.6709 33.7332 12.3041C33.1062 13.7087 32.4338 15.0964 31.7753 16.4921C31.5562 16.8716 31.3715 17.2711 31.1898 17.6815C32.5528 16.4735 34.0368 15.4093 35.6181 14.5057L35.6871 14.5455L33.9181 17.6096L33.9871 17.6495C37.2278 16.3214 40.6889 15.6137 44.1908 15.5629C44.1997 15.6272 44.2053 15.6919 44.2077 15.7567C44.1957 15.7804 44.1824 15.8035 44.1679 15.8257C39.3389 16.6355 35.395 19.1156 31.792 22.2802L33.496 23.3928C33.214 24.5826 31.6393 26.6087 30.0499 27.513C30.1552 26.9481 30.2783 26.3842 30.3499 25.8459C30.4215 25.3075 30.4785 24.7147 30.5464 24.119C29.6618 24.4859 28.9046 25.1046 28.3689 25.8983L29.8779 25.739L29.8954 25.8043L28.4912 26.8339L29.1635 27.4705L29.1396 27.5119C28.9875 27.4885 28.8433 27.4513 28.6941 27.4387C28.4355 27.4017 28.1719 27.42 27.9208 27.4923C27.6697 27.5646 27.4367 27.6893 27.2373 27.8582C26.8682 28.1788 26.5129 28.5074 26.1605 28.8468C26.0753 28.9397 25.9987 29.0403 25.9319 29.1472L26.1068 29.147L28.6258 28.5771C30.0834 28.1844 31.6219 28.2087 33.0664 28.6472C34.2978 29.0094 35.3419 29.8331 35.9808 30.9464L36.0907 31.1386C35.6498 30.9301 35.2601 30.7603 34.8864 30.563C33.8156 30.0151 32.6103 29.7854 31.4131 29.9011C29.4256 30.0715 27.479 30.5635 25.6492 31.358C27.564 31.755 28.5339 33.0235 29.0982 34.8031C28.3462 34.3015 27.5215 33.9185 26.653 33.6674C27.1753 34.2526 27.4495 35.0181 27.4174 35.8018L26.9507 35.8452C26.5345 35.8809 26.5345 35.8809 26.5176 36.3405L27.4125 36.2407L27.4329 36.3168C27.4667 36.9805 27.654 37.6272 27.98 38.2061C28.2005 38.6371 28.3872 39.0945 28.5642 39.5372C28.6005 39.6502 28.6258 39.7665 28.6397 39.8844C28.0965 40.0125 27.5751 40.1347 27.0576 40.25C26.8439 40.3014 26.5249 40.0252 26.4353 39.7342C26.3456 39.4433 26.2274 38.9149 26.1126 38.5082C26.0542 38.2905 25.9712 38.0677 25.8893 37.8272L25.6678 38.0674C25.462 37.185 25.1306 36.3367 24.6837 35.5485C24.6832 35.5827 24.6884 35.6168 24.699 35.6494C24.7645 36.046 24.6521 36.1928 24.2526 36.2473C23.853 36.3019 23.317 36.3697 22.8521 36.4417C22.6788 36.4668 22.5073 36.503 22.3387 36.5502C22.2373 36.5852 22.1295 36.598 22.0227 36.5878C21.9159 36.5776 21.8125 36.5445 21.7196 36.4908C21.6267 36.4372 21.5464 36.3642 21.4841 36.2768C21.4219 36.1895 21.3791 36.0897 21.3587 35.9844L21.0906 35.1579L20.9821 34.8836L20.4659 35.1561L20.8253 36.1273C21.0434 36.6581 20.8423 36.9744 20.2795 37.0728C19.5029 37.2225 18.7282 37.4009 17.9644 37.5764C17.8612 37.6198 17.7495 37.6387 17.6378 37.6317C17.5261 37.6247 17.4175 37.592 17.3206 37.536C17.2237 37.4801 17.1411 37.4024 17.0792 37.3092C17.0172 37.216 16.9777 37.1097 16.9637 36.9987C16.7693 36.273 16.5372 35.5593 16.2676 34.8577C16.1066 34.3875 16.2195 34.1122 16.7003 34.0125C17.5501 33.8315 18.388 33.6712 19.2368 33.5079C19.3879 33.5142 19.5383 33.5304 19.6873 33.5564ZM25.7569 12.4929C25.7672 12.5316 25.772 12.5715 25.7712 12.6116C25.7804 12.9941 25.8044 13.3669 25.7849 13.7513C25.6763 15.7802 25.3761 17.7942 24.8884 19.7666C24.4277 21.7918 23.9038 23.7989 23.4154 25.8081C23.3756 25.8771 23.3841 25.974 23.3617 26.1083L24.9546 24.4332C25.0124 24.3729 25.0548 24.2995 25.0781 24.2192C26.2132 20.3912 26.7308 16.4067 26.6113 12.4157C26.5243 9.69959 25.9906 7.01638 25.0316 4.47375L24.9435 4.27568C24.9206 4.326 24.9172 4.38305 24.9339 4.43576C25.435 6.62847 25.6183 8.88181 25.4784 11.1267C25.2693 14.4006 24.6698 17.6378 23.6929 20.7695C23.654 20.9519 23.6451 21.1395 23.6667 21.3248C23.6856 21.53 23.7187 21.7336 23.7658 21.9341C23.7459 21.9686 23.7949 22.043 23.775 22.0775C23.6701 22.3389 23.6701 22.3389 23.7828 22.5421C24.1794 20.9308 24.6021 19.2425 24.9732 17.5797C25.3363 15.9014 25.598 14.2027 25.7569 12.4929ZM35.9437 3.55074C33.0869 9.39133 30.5951 15.3966 27.9297 21.3201C28.453 20.9874 28.9626 20.6467 29.4445 20.29C29.5673 20.2094 29.6701 20.1021 29.7454 19.976C31.3283 17.2584 32.7194 14.4335 33.9086 11.522C34.5669 9.89796 35.1039 8.22735 35.5153 6.52392C35.7624 5.55071 35.906 4.55412 35.9437 3.55074ZM31.0512 21.9537C31.2582 22.0732 31.4031 22.1569 31.5412 22.2366C31.6792 22.3163 31.7416 22.2879 31.8358 22.2043C32.1226 21.9466 32.4055 21.6958 32.6912 21.456C34.901 19.5412 37.4075 17.9988 40.1127 16.889C40.5077 16.7306 40.9086 16.594 41.2928 16.4386C39.1835 16.7659 37.1228 17.3533 35.158 18.1874C33.1716 19.0002 31.2616 19.9884 29.4506 21.1401C29.654 21.2022 29.7912 21.2355 29.9343 21.2905C30.0684 21.3495 30.1957 21.423 30.3138 21.5096C30.5177 21.6825 30.6809 21.6387 30.8931 21.4944C32.5678 20.3339 34.3052 19.2666 36.0974 18.2974C36.2817 18.2013 36.4867 18.1172 36.6778 18.0252C35.7655 18.713 34.8247 19.3384 33.8897 19.9856C32.9548 20.6328 32.0387 21.2633 31.0512 21.9537ZM28.3788 27.2199C28.0697 27.036 27.7038 26.9721 27.3507 27.0403C26.6681 27.1676 26.0274 27.4615 25.4857 27.8959C24.7066 28.4575 23.9984 29.1115 23.3767 29.8435C23.0338 30.2621 22.6743 30.6618 22.3107 31.0684C22.6777 31.4367 22.9237 31.9191 23.4844 31.8564C24.5024 29.6469 25.9718 27.9465 28.3788 27.2199ZM30.6529 27.0422C31.7852 26.179 32.6888 25.0516 33.2848 23.7586L32.254 23.0898L31.7846 24.6039L31.7294 24.572C31.8428 23.9935 31.7934 23.3949 31.5869 22.8427C31.4543 22.4349 31.0821 22.3304 30.7679 22.0938C31.2348 23.7712 30.9243 25.377 30.6529 27.0422ZM20.0154 35.1076C21.1353 34.4112 22.3797 33.939 23.6797 33.7175C23.7101 33.7085 23.7375 33.6916 23.759 33.6684C23.7805 33.6451 23.7953 33.6165 23.8019 33.5855C23.8235 33.2745 23.816 32.9621 23.7793 32.6524C23.7693 32.563 23.7405 32.4768 23.6948 32.3993C23.649 32.3218 23.5874 32.2549 23.514 32.203C23.4406 32.151 23.357 32.1152 23.2687 32.0979C23.1805 32.0805 23.0896 32.082 23.0019 32.1024C22.5516 32.1361 22.1245 32.316 21.7859 32.6149C21.0659 33.3454 20.4681 34.1871 20.0154 35.1076ZM28.5221 34.1116C28.2244 33.3408 27.6718 32.695 26.9561 32.2819C26.2405 31.8687 25.4049 31.7129 24.5885 31.8406L24.9486 32.2049C25.0795 32.3301 25.1969 32.4688 25.2987 32.6186C25.407 32.8329 25.5713 33.0138 25.7742 33.1423C25.977 33.2707 26.2108 33.3419 26.4508 33.3483C26.5331 33.3562 26.613 33.3804 26.6858 33.4195L28.5221 34.1116ZM19.979 29.5289L20.0414 29.5005C19.9967 29.1159 19.9588 28.7352 19.9101 28.3574C19.9027 28.3308 19.8891 28.3063 19.8705 28.286C19.8519 28.2656 19.8287 28.25 19.8029 28.2403L19.4647 28.045C18.3554 27.6565 17.2115 27.3751 16.0486 27.2045C16.0038 27.1973 15.9584 27.1958 15.9132 27.2C16.4886 27.6058 17.0789 28.0018 17.6424 28.4283C17.8534 28.6044 18.1142 28.71 18.3883 28.7301C18.9092 28.7683 19.4034 28.976 19.7951 29.3215L19.979 29.5289ZM29.5823 8.65617L29.5064 8.61234C29.3805 8.92609 29.2614 9.24382 29.1355 9.55758C28.7048 10.6063 28.288 11.663 27.8366 12.6998C27.6809 13.0712 27.6305 13.4783 27.691 13.8764C27.739 14.2077 27.7434 14.5507 27.7826 14.8494L27.82 15.5335L27.889 15.5734L29.5823 8.65617ZM20.4058 30.6863C20.4056 30.5113 20.6209 30.3136 20.3417 30.2076C20.1736 30.1595 19.9987 30.1393 19.824 30.148C19.7025 30.165 19.584 30.1987 19.4717 30.2482C18.7354 30.5202 18.0428 30.8984 17.4158 31.3708C17.0974 31.6194 16.7896 31.9294 16.4999 32.1762L16.5551 32.2081C17.963 31.5872 19.432 31.1154 20.938 30.8003L20.7642 30.5436L20.4058 30.6863ZM17.4106 26.1046C19.1892 26.2113 20.94 26.3664 22.4802 27.412C21.9692 26.5798 21.1551 25.9784 20.2094 25.7345C19.2638 25.4906 18.2604 25.6233 17.4106 26.1046ZM20.9473 30.0512L23.007 29.4001C22.8407 29.0286 22.5724 28.7119 22.2333 28.4868C21.8942 28.2617 21.4982 28.1374 21.0913 28.1284L20.9473 30.0512ZM29.6523 28.9029C30.5461 29.06 31.5143 29.1681 32.4452 29.4204C33.3761 29.6726 34.2709 30.0512 35.1798 30.3735C34.1624 29.1236 31.0722 28.3241 29.6523 28.9029ZM17.3011 19.8396C16.5899 19.1205 15.6984 18.6058 14.7201 18.3495L17.3011 19.8396ZM22.4853 19.833C22.3246 19.2986 21.9067 19.2414 21.5232 19.0291L22.4853 19.833ZM29.5188 21.3726C29.2815 21.162 29.1599 21.1655 28.85 21.511L29.5188 21.3726Z" fill="#DBBFFF"/>
<path d="M10.1688 49.8672C10.0396 49.6893 9.93136 49.4971 9.84612 49.2945C9.58731 48.3721 9.35319 47.4548 9.11907 46.5375C9.07831 46.4277 9.06229 46.3102 9.07214 46.1934C9.08199 46.0766 9.11748 45.9634 9.17608 45.8619C9.23467 45.7605 9.31493 45.6731 9.41114 45.6062C9.50734 45.5393 9.61712 45.4944 9.73266 45.4748C10.5846 45.2582 11.4239 45.0158 12.2729 44.7883C12.4112 44.7431 12.5543 44.7145 12.6993 44.7032C12.8582 44.6907 13.016 44.7382 13.1416 44.8362C13.2672 44.9343 13.3515 45.0759 13.378 45.233L14.1236 48.0375C14.1708 48.1506 14.1913 48.2731 14.1834 48.3955C14.1756 48.5178 14.1396 48.6367 14.0783 48.7429C14.017 48.849 13.932 48.9396 13.83 49.0076C13.728 49.0756 13.6117 49.1191 13.4901 49.1348C12.5946 49.363 11.7078 49.624 10.8054 49.8483C10.5945 49.8775 10.381 49.8838 10.1688 49.8672Z" fill="#DBBFFF"/>
<path d="M19.1832 47.4359C18.9857 47.5574 18.7763 47.6585 18.5582 47.7376C17.6754 47.9916 16.7908 48.217 15.9051 48.4601C15.7973 48.4973 15.6827 48.5109 15.5691 48.5C15.4556 48.4891 15.3457 48.4539 15.2469 48.3969C15.1481 48.3399 15.0627 48.2623 14.9965 48.1694C14.9303 48.0765 14.8848 47.9705 14.863 47.8585L14.2744 45.5312C14.2365 45.3896 14.1808 45.2471 14.132 45.1085C13.9453 44.651 13.9865 44.5 14.4086 44.2468C14.5485 44.1753 14.6969 44.1218 14.8502 44.0877C15.6953 43.8671 16.5472 43.6505 17.3894 43.419C17.4986 43.3794 17.6151 43.3642 17.7308 43.3745C17.8465 43.3847 17.9586 43.4201 18.0592 43.4781C18.1597 43.5362 18.2464 43.6156 18.3131 43.7106C18.3798 43.8057 18.4249 43.9142 18.4453 44.0286C18.6765 44.935 18.9225 45.8316 19.1428 46.7409C19.1766 46.9709 19.1901 47.2035 19.1832 47.4359Z" fill="#DBBFFF"/>
<path d="M17.8101 42.5924C17.6743 42.706 17.5219 42.798 17.3581 42.8651C16.4398 43.117 15.5029 43.3214 14.5903 43.5951C14.4767 43.626 14.358 43.6341 14.2412 43.619C14.1244 43.6038 14.0118 43.5657 13.9098 43.5068C13.8078 43.4479 13.7184 43.3694 13.6469 43.2759C13.5754 43.1823 13.5231 43.0755 13.4931 42.9616C13.2903 42.1176 13.0548 41.2823 12.8153 40.454C12.7558 40.3428 12.7257 40.2184 12.7277 40.0923C12.7298 39.9663 12.7639 39.8429 12.8269 39.7337C12.8899 39.6246 12.9798 39.5333 13.0879 39.4685C13.196 39.4038 13.3189 39.3676 13.4448 39.3636C14.2905 39.1525 15.1356 38.9319 15.9801 38.7018C16.0938 38.6532 16.2174 38.6317 16.3408 38.6392C16.4643 38.6466 16.5844 38.6826 16.6915 38.7445C16.7987 38.8063 16.8899 38.8923 16.9581 38.9955C17.0263 39.0988 17.0694 39.2164 17.0842 39.3393C17.303 40.1557 17.5475 40.9593 17.788 41.7699C17.8968 42.0319 17.9046 42.3249 17.8101 42.5924Z" fill="#DBBFFF"/>
<path d="M10.423 50.6873C10.5923 50.568 10.7757 50.4699 10.9689 50.3952C11.909 50.1375 12.8481 49.8975 13.7911 49.6507C13.894 49.6169 14.0031 49.6064 14.1106 49.6199C14.218 49.6333 14.3211 49.6704 14.4125 49.7285C14.504 49.7865 14.5814 49.8641 14.6392 49.9556C14.6971 50.0472 14.7339 50.1504 14.7472 50.2579C14.8879 50.8268 15.0109 51.3947 15.1764 51.9687C15.2541 52.2804 15.3753 52.5804 15.4639 52.8892C15.5038 52.9853 15.5211 53.0893 15.5144 53.1931C15.5076 53.2969 15.477 53.3978 15.425 53.4879C15.373 53.578 15.3009 53.6549 15.2144 53.7126C15.1279 53.7704 15.0292 53.8074 14.926 53.8209C14.0236 54.0452 13.1281 54.2734 12.2384 54.5235C12.1278 54.5655 12.0093 54.5824 11.8915 54.5729C11.7736 54.5634 11.6593 54.5278 11.5569 54.4687C11.4545 54.4096 11.3665 54.3284 11.2994 54.2311C11.2323 54.1337 11.1876 54.0227 11.1687 53.9059C10.946 53.0964 10.7044 52.3036 10.4816 51.4941C10.4357 51.2928 10.4062 51.0881 10.3934 50.8819C10.3934 50.8819 10.4413 50.7991 10.4691 50.7508L10.423 50.6873Z" fill="#DBBFFF"/>
<path d="M19.3153 48.3217C19.4304 48.4823 19.5243 48.6572 19.5947 48.8418C19.8299 49.7413 20.0393 50.6536 20.2527 51.5589C20.2792 51.6547 20.2864 51.7548 20.2738 51.8534C20.2612 51.9519 20.2292 52.047 20.1795 52.1331C20.1298 52.2192 20.0635 52.2945 19.9844 52.3547C19.9053 52.4148 19.815 52.4587 19.7188 52.4836C18.7925 52.7493 17.8633 53.0042 16.9271 53.255C16.8371 53.2853 16.7417 53.2961 16.6472 53.2866C16.5527 53.2772 16.4613 53.2477 16.379 53.2002C16.2968 53.1528 16.2256 53.0883 16.1702 53.0112C16.1147 52.9341 16.0764 52.8461 16.0576 52.753L15.3411 50.0574C15.3048 49.9649 15.2883 49.8658 15.2927 49.7666C15.2971 49.6673 15.3223 49.5701 15.3667 49.4812C15.4111 49.3923 15.4736 49.3138 15.5503 49.2506C15.627 49.1874 15.7161 49.1411 15.8119 49.1146C15.9831 49.057 16.1671 49.0252 16.3413 48.9785C17.0785 48.7693 17.8188 48.571 18.5462 48.3469C18.7928 48.2539 19.0632 48.2451 19.3153 48.3217Z" fill="#DBBFFF"/>
<path d="M11.9705 39.9573C12.0817 40.1036 12.1752 40.2627 12.2491 40.431L12.9851 43.1563C13.0216 43.2533 13.0361 43.3572 13.0276 43.4605C13.0191 43.5638 12.9879 43.6639 12.936 43.7537C12.8842 43.8434 12.8131 43.9206 12.7279 43.9796C12.6427 44.0386 12.5455 44.0779 12.4433 44.0949C11.5398 44.337 10.6461 44.5939 9.74847 44.8578C9.64585 44.8982 9.53544 44.9149 9.42545 44.9068C9.31546 44.8986 9.20874 44.8657 9.11322 44.8106C9.01771 44.7554 8.93587 44.6794 8.87379 44.5883C8.81172 44.4971 8.77102 44.3931 8.75472 44.284L8.05392 41.6251C8.01988 41.5294 8.00703 41.4275 8.01625 41.3264C8.02546 41.2253 8.05653 41.1273 8.1073 41.0394C8.15807 40.9515 8.22733 40.8756 8.3103 40.8171C8.39326 40.7585 8.48795 40.7187 8.58782 40.7003L11.2017 39.9183C11.4534 39.8321 11.7287 39.846 11.9705 39.9573Z" fill="#DBBFFF"/>
<path d="M19.9746 47.1483C19.8579 46.9958 19.7588 46.8306 19.6793 46.6558C19.4186 45.7047 19.1758 44.7548 18.9329 43.8048C18.8766 43.6965 18.8488 43.5756 18.8523 43.4535C18.8558 43.3314 18.8904 43.2123 18.9528 43.1073C19.0153 43.0024 19.1035 42.9151 19.2091 42.8538C19.3147 42.7925 19.4342 42.7592 19.5563 42.757L21.9152 42.1774C22.0109 42.1447 22.1125 42.1329 22.2132 42.1428C22.3138 42.1526 22.4112 42.1839 22.4988 42.2344C22.5864 42.285 22.6621 42.3537 22.721 42.4359C22.7798 42.5182 22.8204 42.6121 22.84 42.7113C22.9198 42.9874 22.963 43.2792 23.0319 43.5582L23.5455 45.4098C23.5904 45.5685 23.607 45.7338 23.5947 45.8983C23.5997 45.9736 23.5898 46.0492 23.5655 46.1207C23.5412 46.1921 23.5031 46.2581 23.4532 46.3148C23.4034 46.3715 23.3428 46.4179 23.2751 46.4511C23.2073 46.4844 23.1336 46.504 23.0583 46.5087C22.2745 46.7187 21.4977 46.9327 20.7169 47.1536C20.6152 47.2015 20.5024 47.2209 20.3905 47.2098C20.2786 47.1987 20.1719 47.1574 20.0816 47.0905L19.9746 47.1483Z" fill="#DBBFFF"/>
<path d="M5.75305 50.9995C5.62763 50.82 5.52304 50.6269 5.4413 50.4238C5.18755 49.4768 4.95848 48.5348 4.72251 47.5888C4.70131 47.5003 4.69885 47.4083 4.71527 47.3188C4.7317 47.2293 4.76665 47.1441 4.81789 47.0689C4.86912 46.9937 4.93552 46.93 5.01281 46.8819C5.0901 46.8338 5.17659 46.8024 5.26673 46.7897L6.99643 46.3437C7.20724 46.2814 7.41911 46.2013 7.6339 46.1321C7.73275 46.0901 7.84001 46.0716 7.94722 46.0781C8.05442 46.0847 8.15864 46.116 8.25165 46.1697C8.34467 46.2234 8.42393 46.298 8.4832 46.3876C8.54246 46.4772 8.5801 46.5793 8.59315 46.6859C8.67084 46.9976 8.72276 47.322 8.80045 47.6337C8.96087 48.2324 9.12527 48.8242 9.30746 49.417C9.36293 49.5249 9.39045 49.645 9.3875 49.7663C9.38454 49.8875 9.35121 50.0061 9.29056 50.1112C9.2299 50.2162 9.14386 50.3044 9.04032 50.3676C8.93677 50.4308 8.81902 50.467 8.69786 50.4729C7.90138 50.6572 7.11763 50.8672 6.31425 51.0474C6.12595 51.0536 5.93757 51.0375 5.75305 50.9995Z" fill="#DBBFFF"/>
<path d="M18.7342 42.1877C18.5933 42.012 18.4718 41.8216 18.372 41.6197C18.1002 40.7359 17.8501 39.8462 17.6001 38.9565C17.5615 38.8684 17.5442 38.7725 17.5496 38.6765C17.5549 38.5805 17.5828 38.4871 17.6308 38.4038C17.6789 38.3205 17.7459 38.2497 17.8264 38.1971C17.9069 38.1444 17.9986 38.1114 18.0941 38.1008C18.9668 37.8961 19.8424 37.7023 20.7249 37.5125C20.9262 37.4813 21.1318 37.5283 21.2995 37.644C21.4671 37.7596 21.5842 37.9351 21.6265 38.1343L22.3882 40.6719C22.4227 40.7705 22.4355 40.8753 22.4258 40.9793C22.4161 41.0832 22.384 41.1839 22.3318 41.2743C22.2796 41.3647 22.2085 41.4428 22.1233 41.5032C22.0381 41.5636 21.9409 41.6049 21.8383 41.6243C21.0142 41.7926 20.2037 42.0331 19.3825 42.2123C19.1662 42.2294 18.9486 42.2212 18.7342 42.1877Z" fill="#DBBFFF"/>
<path d="M7.00321 55.6698C6.8699 55.4744 6.75564 55.2667 6.662 55.0495C6.38697 54.219 6.15548 53.3769 5.90222 52.5405C5.86627 52.4421 5.85235 52.3369 5.86143 52.2324C5.87052 52.128 5.9024 52.0268 5.95482 51.936C6.00724 51.8452 6.07893 51.767 6.16484 51.7069C6.25075 51.6468 6.3488 51.6063 6.45206 51.5882C7.24164 51.4 8.02432 51.2077 8.80807 50.9977C8.91084 50.9604 9.02056 50.9459 9.1295 50.9555C9.23845 50.965 9.34398 50.9983 9.43869 51.053C9.5334 51.1076 9.61499 51.1824 9.67773 51.272C9.74046 51.3616 9.78282 51.4638 9.80182 51.5715L10.5923 54.2822C10.6309 54.374 10.6477 54.4734 10.6414 54.5728C10.6351 54.6721 10.606 54.7687 10.5562 54.8549C10.5064 54.9411 10.4374 55.0146 10.3545 55.0697C10.2716 55.1248 10.1771 55.16 10.0784 55.1725C9.24922 55.3655 8.42406 55.5516 7.58909 55.7228C7.39246 55.7262 7.19603 55.7084 7.00321 55.6698Z" fill="#DBBFFF"/>
<path d="M12.5561 38.8329C12.4352 38.6699 12.3332 38.4937 12.252 38.3077C12.0261 37.5516 11.8259 36.7827 11.6148 36.0167C11.5913 35.9253 11.5868 35.8301 11.6018 35.7369C11.6168 35.6437 11.6509 35.5547 11.7019 35.4753C11.7529 35.3959 11.8198 35.3279 11.8983 35.2755C11.9768 35.2232 12.0653 35.1876 12.1582 35.1711L14.5599 34.5334L14.9627 34.4255C15.052 34.3988 15.1459 34.3907 15.2385 34.4015C15.3311 34.4124 15.4205 34.4421 15.5013 34.4887C15.582 34.5353 15.6524 34.5979 15.7081 34.6727C15.7638 34.7474 15.8037 34.8328 15.8253 34.9235C16.0494 35.651 16.2844 36.3755 16.5193 37.1001C16.5563 37.2 16.5707 37.3068 16.5617 37.4129C16.5527 37.519 16.5204 37.6218 16.4672 37.7141C16.4139 37.8063 16.341 37.8857 16.2536 37.9465C16.1662 38.0074 16.0665 38.0483 15.9615 38.0662C15.0156 38.3022 14.0686 38.556 13.1266 38.785C12.9383 38.8185 12.7473 38.8345 12.5561 38.8329Z" fill="#DBBFFF"/>
<path d="M24.4067 50.627C24.2465 50.7428 24.0767 50.8449 23.8993 50.9322C23.1399 51.2115 22.3748 51.469 21.5987 51.7295C21.5126 51.7656 21.4194 51.7813 21.3262 51.7754C21.233 51.7695 21.1425 51.7421 21.0617 51.6954C20.9808 51.6488 20.9119 51.584 20.8602 51.5063C20.8085 51.4286 20.7755 51.3399 20.7637 51.2473C20.5686 50.374 20.3639 49.5014 20.1497 48.6293C20.0982 48.5143 20.0748 48.3887 20.0813 48.2629C20.0878 48.1371 20.124 48.0146 20.187 47.9055C20.25 47.7964 20.338 47.7038 20.4437 47.6353C20.5494 47.5668 20.6698 47.5243 20.7951 47.5113C21.5314 47.3199 22.2617 47.1067 22.9722 46.928C23.4889 46.7662 23.7976 46.9168 23.8901 47.4579C24.073 48.3364 24.242 49.207 24.3963 50.0873C24.4171 50.2665 24.4206 50.4472 24.4067 50.627Z" fill="#DBBFFF"/>
<path d="M15.674 54.3911C15.7886 54.5459 15.8829 54.7147 15.9544 54.8935C16.1833 55.6605 16.3904 56.4334 16.6084 57.2033C16.6462 57.3297 16.6386 57.4654 16.587 57.5868C16.5354 57.7082 16.4429 57.8078 16.3257 57.8682C16.2018 57.9342 16.0705 57.9851 15.9346 58.0197L13.329 58.7237C13.2338 58.7657 13.1301 58.7847 13.0262 58.7791C12.9223 58.7735 12.8212 58.7435 12.7311 58.6915C12.641 58.6394 12.5645 58.5669 12.5077 58.4797C12.4509 58.3926 12.4154 58.2932 12.4042 58.1898C12.2184 57.5396 11.9998 56.8981 11.7834 56.2211C11.7373 56.0997 11.7018 55.9746 11.6773 55.847C11.6561 55.764 11.6524 55.6773 11.6667 55.5928C11.681 55.5082 11.7128 55.4276 11.7602 55.3561C11.8075 55.2846 11.8693 55.2238 11.9416 55.1777C12.0139 55.1315 12.0951 55.101 12.1799 55.0882C13.1269 54.8344 14.0739 54.5807 15.0337 54.3527C15.2478 54.3327 15.4638 54.3457 15.674 54.3911Z" fill="#DBBFFF"/>
<path d="M8.06073 45.3105C7.88615 45.4297 7.7007 45.5322 7.50685 45.6164C6.70318 45.861 5.90457 46.0808 5.10197 46.3075C5.03048 46.3274 4.95574 46.3329 4.88212 46.3236C4.8085 46.3143 4.73747 46.2904 4.6732 46.2533C4.60893 46.2162 4.55272 46.1666 4.50784 46.1075C4.46297 46.0484 4.43033 45.9809 4.41186 45.9091C4.30181 45.5419 4.26105 45.1503 4.15604 44.7584L3.82974 43.2358C3.78564 43.1305 3.76647 43.0165 3.77372 42.9025C3.78096 42.7886 3.81443 42.6779 3.87151 42.579C3.92859 42.4802 4.00773 42.3958 4.10277 42.3326C4.19781 42.2694 4.30618 42.2289 4.41941 42.2145C5.1222 41.9853 5.82605 41.7384 6.48344 41.4922C6.57655 41.4391 6.68195 41.4112 6.78916 41.4115C6.89638 41.4117 7.00165 41.4401 7.0945 41.4937C7.18735 41.5473 7.26453 41.6243 7.31835 41.717C7.37218 41.8097 7.40078 41.9149 7.40129 42.0222C7.60595 42.8948 7.82549 43.7577 8.01635 44.6224C8.05514 44.8496 8.07001 45.0802 8.06073 45.3105Z" fill="#DBBFFF"/>
<path d="M7.19124 37.0793C7.33908 36.953 7.50269 36.8464 7.67796 36.7622C8.53527 36.4567 9.39842 36.1729 10.2587 35.8782C10.3483 35.8332 10.4478 35.8111 10.5481 35.8141C10.6484 35.817 10.7464 35.8448 10.8333 35.8949C10.9202 35.9451 10.9933 36.0161 11.046 36.1015C11.0986 36.1869 11.1293 36.2841 11.1351 36.3842C11.305 37.0621 11.4928 37.7409 11.6954 38.41C11.898 39.0791 11.6948 39.431 11.0061 39.6039C10.3174 39.7767 9.45425 40.0605 8.68032 40.2854C8.53653 40.347 8.38655 40.3931 8.23295 40.4228C8.09133 40.4288 7.9525 40.3822 7.84321 40.2919C7.73393 40.2016 7.66193 40.0741 7.6411 39.9338C7.48446 39.1533 7.31295 38.3826 7.1494 37.598C7.14004 37.424 7.15411 37.2496 7.19124 37.0793Z" fill="#DBBFFF"/>
<path d="M16.556 54.0246C16.7457 53.8934 16.9486 53.7824 17.1614 53.6932C18.0492 53.4145 18.9429 53.1575 19.8376 52.8828C19.9289 52.8387 20.0295 52.8176 20.1308 52.8213C20.2321 52.825 20.3309 52.8535 20.4187 52.9042C20.5065 52.9548 20.5806 53.0262 20.6344 53.1121C20.6883 53.1979 20.7204 53.2957 20.7278 53.3968C20.8338 54.0563 20.9757 54.7096 21.153 55.3537C21.1963 55.4649 21.214 55.5844 21.2049 55.7034C21.1958 55.8223 21.1602 55.9377 21.1005 56.0411C21.0408 56.1444 20.9587 56.233 20.8602 56.3004C20.7618 56.3678 20.6494 56.4121 20.5315 56.4303C19.7586 56.6373 19.012 56.9424 18.2508 57.193C18.1282 57.2414 18.0017 57.2792 17.8727 57.306C17.8013 57.3296 17.7256 57.3378 17.6508 57.3301C17.576 57.3224 17.5036 57.299 17.4384 57.2614C17.3733 57.2238 17.3168 57.1728 17.2727 57.1118C17.2286 57.0508 17.1979 56.9812 17.1826 56.9076C16.9646 56.1376 16.7467 55.3677 16.5505 54.5919C16.5255 54.4035 16.5274 54.2125 16.556 54.0246Z" fill="#DBBFFF"/>
<path d="M7.36788 56.2653C7.48149 56.1988 7.60204 56.145 7.72738 56.1048C8.56342 55.9158 9.4053 55.7485 10.2453 55.5526C10.349 55.522 10.4578 55.5127 10.5651 55.5255C10.6724 55.5382 10.7761 55.5726 10.8697 55.6267C10.9633 55.6807 11.0449 55.7532 11.1096 55.8398C11.1743 55.9264 11.2207 56.0253 11.246 56.1303C11.4563 56.8498 11.6843 57.5704 11.9244 58.2703C12.0726 58.7147 11.9655 59.0118 11.5094 59.1165C10.7674 59.2862 10.0224 59.4449 9.27665 59.5573C8.96267 59.5828 8.64664 59.553 8.343 59.4691C8.26709 59.4253 8.15006 59.2933 8.11399 59.1804C7.83362 58.4389 7.57502 57.6915 7.30554 56.947C7.25681 56.8375 7.23696 56.7174 7.24787 56.598C7.25879 56.4787 7.3001 56.3641 7.36788 56.2653Z" fill="#DBBFFF"/>
<path d="M4.86684 51.3541C4.71966 51.4435 4.56325 51.5167 4.40034 51.5724C3.73739 51.7326 3.06862 51.8709 2.39878 52.0271C2.31322 52.0511 2.22345 52.0563 2.1357 52.0422C2.04795 52.0281 1.96431 51.9951 1.89056 51.9456C1.8168 51.896 1.7547 51.831 1.70854 51.755C1.66238 51.6791 1.63328 51.594 1.62323 51.5057C1.48693 51.0406 1.3546 50.5685 1.23609 50.1044C1.11757 49.6403 1.05582 49.301 0.972589 48.9033C0.944494 48.7425 0.933955 48.579 0.941155 48.4159C0.943718 48.2902 0.989926 48.1693 1.07186 48.0739C1.15379 47.9785 1.26635 47.9146 1.39024 47.8931C2.01469 47.7199 2.62826 47.5497 3.24979 47.3656C3.34401 47.3213 3.44755 47.3005 3.55157 47.3048C3.65559 47.3092 3.75701 47.3387 3.84718 47.3908C3.93735 47.4428 4.01358 47.5159 4.06938 47.6038C4.12518 47.6917 4.15889 47.7918 4.16763 47.8955C4.30628 48.5001 4.39954 49.0876 4.57668 49.7051C4.65329 50.0346 4.77345 50.3524 4.84317 50.6779C4.87207 50.9021 4.88 51.1285 4.86684 51.3541Z" fill="#DBBFFF"/>
<path d="M24.3367 45.8568C24.218 45.6907 24.1174 45.5123 24.0366 45.3247C23.7858 44.3886 23.5418 43.4564 23.3414 42.5126C23.3032 42.4176 23.2879 42.3149 23.2967 42.2129C23.3055 42.1109 23.3381 42.0123 23.392 41.9252C23.4459 41.8381 23.5195 41.7649 23.6068 41.7115C23.6942 41.658 23.7929 41.6259 23.895 41.6176C24.5231 41.5018 25.1505 41.3395 25.7739 41.1842C25.8583 41.1455 25.9507 41.1277 26.0434 41.132C26.1361 41.1364 26.2265 41.1629 26.3068 41.2093C26.3872 41.2557 26.4553 41.3207 26.5055 41.3988C26.5556 41.4769 26.5864 41.5659 26.5951 41.6583C26.8173 42.5963 27.0286 43.5372 27.225 44.4879C27.2585 44.5838 27.2692 44.6862 27.2562 44.7869C27.2432 44.8876 27.207 44.984 27.1503 45.0682C27.0936 45.1525 27.018 45.2224 26.9296 45.2724C26.8412 45.3223 26.7423 45.351 26.6409 45.3561C26.068 45.5038 25.5285 45.6892 24.9515 45.8438C24.7556 45.8963 24.5626 45.9597 24.3824 45.8096L24.3367 45.8568Z" fill="#DBBFFF"/>
<path d="M23.1825 41.1131C23.0705 41.0582 22.973 40.9779 22.8977 40.8785C22.8225 40.7791 22.7716 40.6635 22.7491 40.5408C22.5097 39.7125 22.2702 38.8841 22.013 38.0547C21.9595 37.9556 21.9333 37.844 21.937 37.7315C21.9407 37.6189 21.9741 37.5094 22.0339 37.4139C22.0937 37.3185 22.1777 37.2406 22.2773 37.1881C22.377 37.1357 22.4888 37.1106 22.6013 37.1154C23.2135 37.0272 23.8279 36.9034 24.4372 36.8043C24.5322 36.7753 24.6322 36.7662 24.731 36.7775C24.8297 36.7888 24.9251 36.8203 25.0111 36.8699C25.0972 36.9196 25.1721 36.9865 25.2313 37.0664C25.2905 37.1462 25.3326 37.2374 25.355 37.3342C25.477 37.6807 25.5693 38.0468 25.6666 38.3883C25.7639 38.7297 26.0101 39.3871 26.1413 39.8769C26.1995 39.9915 26.2191 40.1218 26.1974 40.2485C26.1756 40.3752 26.1136 40.4915 26.0206 40.5801C25.9163 40.6675 25.7927 40.7286 25.66 40.7584C25.0119 40.9087 24.354 41.0442 23.7001 41.1727C23.5234 41.1952 23.345 41.2001 23.1673 41.1871L23.1825 41.1131Z" fill="#DBBFFF"/>
<path d="M3.38804 56.084C3.21124 56.0186 3.05565 55.9061 2.93804 55.7588C2.82043 55.6114 2.74527 55.4347 2.72064 55.2478C2.599 54.5979 2.32389 54.0066 2.1279 53.4058C2.0861 53.2153 2.07496 53.0194 2.0949 52.8254C2.10193 52.7377 2.1403 52.6554 2.20301 52.5936C2.26571 52.5318 2.34856 52.4947 2.43641 52.4889L4.56169 51.9953C4.65479 51.9764 4.75075 51.9767 4.84376 51.996C4.93676 52.0153 5.02487 52.0534 5.10273 52.1078C5.18059 52.1622 5.24658 52.2319 5.2967 52.3126C5.34682 52.3933 5.38002 52.4833 5.39429 52.5772L5.94108 54.5308C6.00816 54.7811 6.11189 55.0158 6.18296 55.2593C6.22322 55.3485 6.24032 55.4465 6.23267 55.5441C6.22502 55.6416 6.19286 55.7357 6.13918 55.8176C6.08549 55.8994 6.01202 55.9664 5.92556 56.0123C5.83911 56.0583 5.74246 56.0816 5.64458 56.0802C5.22746 56.1237 4.81329 56.1919 4.40422 56.2842C4.23206 56.3422 4.04776 56.3542 3.86955 56.319C3.69133 56.2839 3.52536 56.2029 3.38804 56.084Z" fill="#DBBFFF"/>
<path d="M14.4184 31.1586C14.5075 31.3388 14.593 31.4618 14.6487 31.6044C14.8101 32.1426 14.9987 32.6722 15.2139 33.1913C15.445 33.6835 15.1749 33.9601 14.7682 34.0749C14.1259 34.247 13.471 34.3933 12.8218 34.5614C12.4953 34.6489 12.1774 34.7691 11.8411 34.8417C11.7698 34.8696 11.6932 34.8811 11.6168 34.8754C11.5405 34.8696 11.4665 34.8467 11.4002 34.8085C11.3339 34.7702 11.2771 34.7175 11.2339 34.6543C11.1908 34.5911 11.1624 34.519 11.151 34.4433C10.9727 33.8435 10.7985 33.2369 10.6094 32.64C10.5762 32.5325 10.5795 32.417 10.6187 32.3115C10.658 32.206 10.731 32.1165 10.8265 32.0568C10.9223 31.9773 11.0341 31.9194 11.1544 31.8873C11.9937 31.6449 12.8398 31.4065 13.6809 31.1928C13.9249 31.1558 14.1721 31.1443 14.4184 31.1586Z" fill="#DBBFFF"/>
<path d="M3.90246 38.2998C4.01984 38.2159 4.14494 38.1433 4.27605 38.083C4.74256 37.8647 5.21888 37.6612 5.70211 37.4617C5.83863 37.3921 5.98475 37.3431 6.13568 37.3164C6.19313 37.3055 6.2522 37.3065 6.30927 37.3192C6.36634 37.332 6.42021 37.3562 6.4676 37.3905C6.51499 37.4247 6.55491 37.4683 6.58491 37.5185C6.61491 37.5686 6.63436 37.6244 6.64209 37.6824L7.13379 40.0182C7.16781 40.2032 7.13018 40.3943 7.02852 40.5526C6.92686 40.7109 6.76879 40.8246 6.58638 40.8707L4.18675 41.712C3.87292 41.8253 3.59766 41.7124 3.55157 41.4097C3.36029 40.5796 3.38765 39.714 3.63095 38.8976C3.71889 38.6815 3.79168 38.5395 3.90246 38.2998Z" fill="#DBBFFF"/>
<path d="M6.87436 34.3299C7.11425 33.9516 7.45996 33.6521 7.86857 33.4685C8.29951 33.2481 8.75008 33.0573 9.15633 32.8318C9.35017 32.7374 9.53495 32.6254 9.70835 32.4972C9.73075 32.4728 9.75847 32.4539 9.78937 32.4419C9.82027 32.43 9.85351 32.4254 9.8865 32.4284C9.91949 32.4314 9.95134 32.442 9.97956 32.4593C10.0078 32.4767 10.0316 32.5003 10.0492 32.5284C10.1209 32.6139 10.1768 32.7115 10.214 32.8167C10.3816 33.3552 10.5057 33.9053 10.6881 34.4339C10.7299 34.5184 10.7516 34.6113 10.7517 34.7055C10.7517 34.7997 10.7301 34.8927 10.6884 34.9772C10.6467 35.0617 10.5862 35.1354 10.5114 35.1927C10.4366 35.2501 10.3497 35.2894 10.2573 35.3077L7.68132 36.2313C7.58084 36.2632 7.47793 36.2868 7.37362 36.302C7.31565 36.3193 7.25454 36.3235 7.19477 36.3142C7.135 36.3048 7.07806 36.2823 7.0281 36.2482C6.97815 36.214 6.93645 36.1692 6.90604 36.1169C6.87564 36.0646 6.85729 36.0062 6.85234 35.9459C6.78075 35.6417 6.73484 35.332 6.71512 35.0201C6.73712 34.784 6.79067 34.5518 6.87436 34.3299Z" fill="#DBBFFF"/>
<path d="M1.15735 47.3248C1.42628 46.6219 1.50402 45.8603 1.38265 45.1177C1.36672 44.6183 1.3848 44.1184 1.43675 43.6215C1.44925 43.5064 1.49628 43.3978 1.57164 43.3099C1.647 43.2221 1.74718 43.159 1.85901 43.1292C2.11735 43.0483 2.3749 42.9209 2.63828 42.8154C2.70893 42.7802 2.78717 42.7631 2.86603 42.7656C2.94489 42.768 3.02192 42.7899 3.09025 42.8294C3.15858 42.8688 3.21608 42.9246 3.25763 42.9917C3.29918 43.0587 3.32349 43.135 3.32839 43.2138L3.8245 45.8926C3.84965 45.9904 3.85384 46.0925 3.83679 46.1921C3.81974 46.2917 3.78183 46.3866 3.72556 46.4705C3.66929 46.5544 3.59592 46.6255 3.51025 46.6791C3.42459 46.7327 3.32857 46.7676 3.22849 46.7815C2.61891 46.9448 2.02604 47.127 1.41938 47.3012C1.31743 47.3344 1.22529 47.3824 1.13024 47.4195L1.15735 47.3248Z" fill="#DBBFFF"/>
<path d="M24.3862 46.7589C24.5545 46.6449 24.7337 46.5481 24.9212 46.4697C25.5547 46.2649 26.2009 46.0859 26.8373 45.8921C26.8941 45.8661 26.9556 45.852 27.0181 45.8505C27.0805 45.849 27.1426 45.8602 27.2006 45.8833C27.2586 45.9065 27.3113 45.9412 27.3555 45.9853C27.3998 46.0294 27.4346 46.082 27.4579 46.14C27.5526 46.2954 27.5913 46.4785 27.5675 46.6589C27.5436 46.8394 27.4588 47.0062 27.327 47.1317C26.5823 47.8573 26.1557 48.8485 26.1405 49.888C26.137 50.0056 26.0937 50.1922 26.0204 50.2235C25.749 50.3429 25.4941 50.5454 25.1753 50.4442C24.8565 50.3429 24.8998 50.1563 24.8622 49.9505C24.8246 49.7448 24.8039 49.4936 24.7605 49.2661C24.6425 48.6735 24.5206 48.0879 24.4066 47.4884C24.3852 47.2458 24.3783 47.0022 24.3862 46.7589Z" fill="#DBBFFF"/>
<path d="M22.8506 55.3769C22.7918 55.4955 22.707 55.5993 22.6026 55.6808C22.4983 55.7623 22.3769 55.8193 22.2476 55.8476C22.1835 55.8737 22.1143 55.8848 22.0453 55.88C21.9763 55.8753 21.9092 55.8548 21.8493 55.8202C21.7894 55.7856 21.7382 55.7378 21.6996 55.6804C21.6609 55.623 21.636 55.5576 21.6265 55.489C21.4648 54.7332 21.2922 53.9802 21.0989 53.2153C21.0687 53.0332 21.1026 52.8463 21.1949 52.6865C21.2872 52.5266 21.4321 52.4038 21.6049 52.3389C22.1158 52.1554 22.6314 52.0114 23.1531 51.8249C23.4085 51.7331 23.661 51.6305 23.9135 51.5278C24.166 51.4252 24.3471 51.3825 24.4856 51.5729C24.5862 51.7618 24.6582 51.9647 24.6994 52.1748C24.6994 52.1748 24.6515 52.2576 24.6316 52.2921C24.222 52.5759 23.8726 52.938 23.6035 53.3575C23.3345 53.777 23.1511 54.2456 23.064 54.7363C23.0041 54.9534 22.9329 55.1672 22.8506 55.3769Z" fill="#DBBFFF"/>
<path d="M17.262 59.6222C16.9466 59.6426 16.6549 59.6858 16.3692 59.6865C15.3395 59.6688 14.325 59.9366 13.4381 60.4602C13.4142 60.5016 13.3391 60.5042 13.2727 60.5395C13.1631 60.283 13.0485 60.0512 12.9597 59.8067C12.9195 59.6877 12.9278 59.5577 12.9826 59.4448C13.0375 59.3319 13.1346 59.245 13.253 59.2031C13.3645 59.1519 13.4805 59.1111 13.5994 59.0811L16.111 58.3964C16.2444 58.3576 16.3826 58.3383 16.5215 58.339C16.6509 58.3267 16.7799 58.366 16.8805 58.4482C16.9812 58.5304 17.0454 58.649 17.0592 58.7782C17.1292 59.0395 17.1724 59.3313 17.262 59.6222Z" fill="#DBBFFF"/>
<path d="M4.67105 56.8246C5.08655 56.7425 5.49222 56.6454 5.91063 56.5742C6.08585 56.5418 6.26686 56.573 6.42117 56.6621C6.57548 56.7512 6.69297 56.8923 6.75256 57.0602C7.0446 57.8454 7.31088 58.6432 7.58805 59.4381C7.03456 59.4154 6.51137 59.1793 6.12815 58.7793C5.91576 58.5433 5.71847 58.2942 5.53744 58.0334L4.67105 56.8246Z" fill="#DBBFFF"/>
<path d="M28.0482 44.9256C27.9328 44.8969 27.8289 44.8334 27.7507 44.7438C27.6725 44.6542 27.6236 44.5428 27.6106 44.4246C27.4306 43.5569 27.2467 42.6962 27.0736 41.8326C27.02 41.5941 27.0094 41.3481 27.0422 41.1059C27.0661 41.0433 27.1046 40.9873 27.1545 40.9425C27.2044 40.8977 27.2642 40.8654 27.329 40.8483C27.7703 40.7534 28.2203 40.6911 28.7178 40.6103C28.6311 40.9294 28.5241 41.2425 28.3973 41.5479C27.9514 42.4349 27.8117 43.4446 28.0001 44.4194C28.0275 44.5809 28.0439 44.7441 28.0493 44.9079C28.0493 44.9079 28.0602 44.9049 28.0482 44.9256Z" fill="#DBBFFF"/>
<path d="M10.6312 31.6307C10.8763 31.1548 11.2444 30.7532 11.6973 30.4677C12.1501 30.1822 12.6712 30.0232 13.2063 30.0074L13.8944 29.963C14.0022 29.9516 14.1249 29.9304 14.1291 30.0985C14.1333 30.2665 14.1988 30.424 14.1303 30.4948C13.9991 30.6419 13.8311 30.7514 13.6436 30.8119C12.8983 31.0349 12.1403 31.2322 11.3852 31.4404L10.6312 31.6307Z" fill="#DBBFFF"/>
<path d="M19.9674 57.2005C19.2122 57.887 18.8182 58.9201 17.8424 59.4149C17.7258 59.109 17.6301 58.7955 17.556 58.4766C17.5669 58.312 17.6288 58.1548 17.7329 58.0267C17.8073 57.9354 17.907 57.8681 18.0194 57.8333L19.9674 57.2005Z" fill="#DBBFFF"/>
<path d="M12.648 60.7123C11.6664 60.9461 10.9729 60.4261 10.1952 59.9403C10.7305 59.826 11.2599 59.69 11.7999 59.6153C11.9475 59.6046 12.094 59.6483 12.2116 59.7383C12.3293 59.8282 12.4098 59.9581 12.4382 60.1035L12.648 60.7123Z" fill="#DBBFFF"/>
<path d="M25.1888 51.8876C25.0098 51.2414 25.2863 50.8581 26.0074 50.7407C25.88 51.2084 25.5897 51.6152 25.1888 51.8876Z" fill="#DBBFFF"/>
<path d="M5.23375 37.2846L6.31355 36.0678C6.35226 36.1512 6.37358 36.2416 6.37622 36.3335C6.37886 36.4254 6.36276 36.5169 6.3289 36.6024C6.29505 36.6878 6.24414 36.7655 6.17929 36.8307C6.11444 36.8959 6.037 36.9472 5.95168 36.9814C5.66945 37.1037 5.41403 37.1955 5.23375 37.2846Z" fill="#DBBFFF"/>
<path d="M1.10235 50.9729C0.867494 50.6381 0.706061 50.2575 0.62864 49.856C0.55122 49.4545 0.559561 49.0412 0.653118 48.6432L1.10235 50.9729Z" fill="#DBBFFF"/>
<path d="M2.19444 42.5473L3.12264 41.4178C3.26727 41.5657 3.21412 41.7374 3.17293 41.8885C2.99598 42.3384 2.57465 42.3988 2.19444 42.5473Z" fill="#DBBFFF"/>
<path d="M27.8659 46.1811L27.9922 45.5639L28.075 45.6117L27.9516 46.2398L27.8659 46.1811Z" fill="#DBBFFF"/>
</svg>
