<svg width="777" height="625" fill="none" xmlns="http://www.w3.org/2000/svg"><g filter="url(#filter0_d_146_4)" fill="#fff" fill-opacity=".05" stroke="#fff" stroke-opacity=".15"><path d="M451.299 178.054c.92 1.016 1.656 2.632 2.777 2.961 9.474 2.768 10.586 7.401 4.609 15.699-1.249 1.728-2.065 3.913-3.633 5.209-3.201 2.601-3.753 5.826-2.729 9.298 1.161 3.945-.576 6.93-2.256 10.099-1.601 3.016-3.073 6.089-4.529 9.17-.976 2.04-1.497 4.385-2.801 6.153-2.905 3.913-2.112 7.682-.328 11.611.424.928 1.224 2.272.88 2.88-2.088 3.705-3.921 7.786-6.873 10.699-3.321 3.281-7.794 5.369-11.619 8.186-1.208.896-1.912 2.464-3.505 4.617-1.648-.632-4.001-1.441-6.273-2.521-.264-.128.208-1.776.376-2.961l-5.601-2.448c-.8 4.801 1.656 7.962 7.353 9.922 1.601.544 3.025 1.504 4.593 2.113.753.288 2.289.44 2.401.208 1.728-4.209 6.513-2.593 9.154-4.921 1.6-1.425 3.201-2.905 4.713-4.417.448-.441.608-1.425 1.08-1.601 6.186-1.8 5.922-7.241 6.674-11.955.752-4.713 2.752-6.801 7.402-6.809h8.065c.4 4.993.801 9.762 1.145 14.355l2.888-1.288c0-6.474.08-12.867-7.041-16.108a9.058 9.058 0 00-2.145-.984c-3.057-.448-6.129-.8-9.506-1.168 1.664-5.425 2.993-10.243 4.657-14.932a11.752 11.752 0 013.201-4.897c2.872-2.4 3.096-5.137 2.4-8.57-1.544-7.457 1.457-13.747 9.506-15.339 1.889-.376 3.633-3.089 4.802-5.097 1.056-1.841 1.224-4.185 2.008-7.138.92 1.36 1.688 1.985 1.6 2.521-.328 3.272-.424 6.665-1.416 9.746-.736 2.264-3.033 4.001-4.057 6.209-.936 2.033-1.096 4.425-1.728 7.25 1.544 1.08 3.561 2.577 5.657 3.929a31.138 31.138 0 006.97 3.465c-.801-1.041-1.337-2.497-2.401-3.041-3.865-2.057-6.185-7.77-4.001-11.435.704-1.168 2.761-1.6 4.265-2.168 1.504-.568 3.201-1 5.817-1.777l-5.505-3.376c2.769-.801 4.801-1.641 6.818-1.769.376 0 .944 2.745 1.48 4.401 5.929-.384 8.186 4.657 10.258 9.05 1.473 3.113 2.481 5.602 6.402 5.802 1.248.064 2.44 1.264 2.936 1.536-.664-2.361-1.256-5.089-2.248-7.658a9.105 9.105 0 00-2.641-3.16c-2.144-1.881-3.904-3.561-2.576-6.962.904-2.297.592-5.033 1.112-7.514.52-2.48 1.408-4.913 1.952-6.753l30.519 2.536c3.009-4.737-1.496-6.217-3.2-9.002l3.753-1.808-3.113-4.137.6-.8 4.473 1.312 3.465-3.825-1.929-2.192c.416-.312.616-.584.8-.576a14.57 14.57 0 008.883-2.401c2.616-1.696 6.129-2.064 9.306-2.809 3.816-.904 7.689-1.6 12.002-2.464l-2.944-2.313c4.369-3.913 12.002-2.4 14.835.4 2.705 2.617 4.961 1.249 7.298-.128a51.96 51.96 0 004.649-3.464c-.128-.729-.344-1.929-.552-3.097a71.28 71.28 0 007.401-.84 2.896 2.896 0 001.641-2.217c.056-5.345 6.049-15.203 10.738-17.276 3.529-1.6 7.626.232 11.203 4.993l-5.386 4.361a34.133 34.133 0 003.601 1.601c1.457.44 2.985.664 5.009 1.096a28.285 28.285 0 01-.048 4.337 31.493 31.493 0 01-1.464 4.577c1-.288 1.736-.32 1.808-.552 1.217-3.913 4.169-4.681 7.786-4.689 1.801 0 3.673-1.032 5.377-.76 2.057.328 4.001 1.552 5.938 2.4l-.24 1.168 2.664-1.792c3.441 7.034 9.234 13.107 7.154 21.757a19.096 19.096 0 01-2.689 5.969c-5.137 7.754-13.323 13.011-17.7 21.461-.72 1.392-2.584 2.161-3.817 3.321-2.776 2.617-5.489 5.297-7.953 7.69h9.306l9.274-6.866c-3.857-2.472-3.697-5.841.176-6.953a19.12 19.12 0 014.065-.497c2.04 1.721 3.384 3.441 5.105 4.001.76.248 2.296-1.824 3.905-3.2l3.553 5.449c7.561-6.218 16.243-3.009 25.349-2.569l-2.8 5.554c6.505-1.185 11.786 3.656 17.716.064 1.448-.881 3.416-.897 5.601-1.425-.544-4.489-1.416-9.602 3.337-14.019 4.801.752 10.146 6.305 15.427 1.12 3.473 2.001 6.57 3.697 9.554 5.602a5.235 5.235 0 011.937 2.4 110.829 110.829 0 013.737 10.659c.32 1.152-.472 2.616-.176 3.736.216 1.865-.104 4.057.8 5.53a27.064 27.064 0 006.065 7.201c1.849 1.457 4.585 1.777 7.314 2.737.8-7.098 1.504-14.067 2.4-22.093l2.401 2.784c-1.977 1.689-.336 2.769.888 3.201a15.618 15.618 0 006.233 1.096c1.193-.096 2.577-1.512 3.321-2.688 1.761-2.761 3.649-4.001 7.202-3.201 1.6.352 3.673-1.496 5.601-2.176 3.073-1.089 6.193-2.025 9.554-3.113l-6.065-9.194-1.736-.168c1.648-2.081 3.096-4.369 5.001-6.178 1.712-1.6 1.816-1.992-1.665-5.553l30.303-7.001c.144.44.288.888.44 1.328l-9.25 5.641.552.872 8.97-5.257c1.769 3.025-5.289 4.001-.96 7.442 1.264-2.401 2.601-4.801 3.841-7.274 3.697-7.353 9.906-8.082 15.203-1.688l-2.768 3.001c3.2-.145 5.873-.665 8.45-.281a34.623 34.623 0 019.77 2.713c3.145 1.504 5.721.984 7.433-1.424 5.026-7.058 12.803-10.331 19.749-14.604 1.704-1.048 4.705-.184 7.082.096 4.497.521 7.921 2.361 9.426 7.202.288.928 3.144 1.208 4.865 1.496 1.548.139 3.106.155 4.657.048 2.985-3.864 6.353-8.273 9.826-12.594.28-.36 1.336 0 1.977-.176a20.839 20.839 0 004.001-1.289 45.112 45.112 0 006.401-3.673 5.174 5.174 0 001.952-3.072c.336-2.321-.208-4.801.384-7.018.392-1.456 1.945-2.856 3.329-3.713 1.689-1.024 3.593-1.056 4.617 1.313.445.791.956 1.543 1.529 2.248l-3.593 3.345c1.72 2.632 4.001 2.536 6.945 1.672 1.761-.512 4.001.656 6.058 1.064 3.304-7.201 1.664-9.538-6.914-10.402l-3.281-7.754c2.889-1.76 6.402-3.568 9.539-5.889 3.416-2.537 6.401-5.649 9.714-8.322a34.687 34.687 0 016.449-4.185c3.889-1.88 7.93-3.481 11.947-5.105a21.098 21.098 0 013.361-.744c3.28-.72 6.561-1.424 9.826-2.177 1.032-.24 2.208-1.128 3.017-.848 5.217 1.857 9.642-.8 14.457-1.816 3.79-.8 7.3-2.329 10.92-3.145 3.02-.688 6.65 1.28 10.01 2.073 2.83 1.36 4.18 6.513 8.47 3.608-1.37-4.001-4.49-4.545-8.11-4.001 2.27-1.912 2.83-5.873 6.85-5.745.25 0 .66-.536.75-.88 1.55-5.785 6.09-5.473 10.74-5.77 3.64-.231 7.2-1.6 10.55-2.4.98 2.833 1.98 5.745 3.27 9.506-.66 1.8-1.72 4.745-2.93 8.098 2.65 1.2 5.6 3.201 5.01 7.842-.07.504 1.72 1.472 2.79 1.848.8.28 1.75-.072 2.65-.136.06 8.41-.12 8.546-8.6 9.002-.89 0-1.77.945-2.6 1.545-3.65 2.64-7.2 4.329-11.62 1.176-2.75-1.953-6.19.208-8.26 4.521-1.16 2.4-2.47 4.745-4.05 7.762-1.23-2.089-1.9-3.201-2.74-4.617-2.66 1.064-5.12 1.08-6.28-2.945-.58 1.712-2.06 4.593-1.6 4.945 2.03 1.544 4.6 2.401 7.84 3.833 5.53 11.034 2.72 21.093-5.97 22.069 4.21 4.865 5.55 4.865 8.43-.464 2.86 1.512 5.69 3.201 8.67 4.521 2.72 1.224 5.6 2.112 9.79 3.649 1.33 1.992 8.55 1.728 6.81 8.426-.17.192-.31.472-.53.56-10.52 4.081-12.88 13.075-13.87 22.933a14.492 14.492 0 01-1.27 4.169c-2.48 5.665-2.31 11.562-2.05 17.604.24 3.612-.16 7.239-1.17 10.714-1 3.073-1.04 5.522.66 8.154.41.632.44 1.496.8 2.753-1.36.064-2.75.576-3.53.088-4.8-2.953-9.5-.992-12.28 2.04-2.78 3.033-3.65 8.002-4.89 12.203-.59 2.032-.1 4.385-.1 7.81l-5.27-7.202c-.7 1.672-1.21 2.985-1.81 4.241-.69 1.416-1.73 2.593.19 4.121.55.448-.2 2.529-.35 3.865l-.98-.856c-1.5.72-3.36 1.096-4.39 2.232-2.01 2.209-2.79 5.345-.73 7.642 2.57 2.857 2.86 5.985 2.87 9.402 0 5.281 1.86 11.027 3.46 12.627 3.05-.72 5.45-1.817 7.69-1.56.96.112 1.53 3.08 2.41 4.689a38.4 38.4 0 003.56 5.961c.43.536 2.1.08 3.41.08.98.912 2.28 2.208 3.66 3.409 2.4 2.088 2.11 4.225-.57 5.745a4.459 4.459 0 00-2.05 2.697c-1.01 5.657.93 10.17 5.95 13.099 2.05 1.2 3.62 2.768 2.62 5.057-.76 1.744 0 5.057-4.01 4.641-.84-.088-2.65 2.68-2.87 4.289-.67 4.873 0 9.546 4.32 12.899 1.08.84 2.01 1.888 1.7 2.736-1.94 3.377-4 6.674-5.69 10.187-.4.84.36 2.656 1.14 3.544 4.17 4.801 3.6 10.059 2.23 15.644-.91 3.673-1.27 7.49-2.98 12.003-2.73-2.825-5.6-5.602-8.19-8.514-1.95-2.161-3.43-4.801-5.53-6.77-10.4-9.826-20.006-20.356-27.744-32.423a65.464 65.464 0 01-6.817-13.867c-.912-2.665-.056-5.986.2-8.986.304-3.713-.392-6.85-4.169-8.402 6.241-4.801 7.442-11.635 8.178-18.468.336-3.129 1.408-6.474-.712-9.699-.705-1.08-.248-3.2.152-4.689a64.764 64.764 0 002.112-19.052c-.112-3.841 2.401-7.762 4.081-12.635-2.521-4.489-5.865-9.922-8.602-15.643-.872-1.833-.136-4.433-.136-7.674l-5.825 5.977c2.816 2.793.672 8.914 7.057 9.362.064 1.193.128 2.337.192 3.489-.504.232-.872.552-1.2.512-2.4-.264-3.201.977-3.577 3.201-1.16 6.746-2.512 13.451-4.001 21.253-1.016-2.601-1.6-4.065-2.04-5.193-7.57.088-4.737-6.938-7.498-10.483a655.362 655.362 0 00-2.024 3.809c-3.897-2.584-5.778-.176-7.738 2.921-1.832 2.88-4.233 5.393-6.329 8.114-.392.504-.905 1.488-.705 1.776 2.217 3.065.689 6.401.697 9.562 0 2.929.152 6.09-.857 8.738-1.656 4.377-1.832 8.258.801 12.227.384.584.176 1.544.248 2.4 1.104-.936 2.152-2.528 3.144-2.496 1.521.048 3.633.84 4.337 2.016.704 1.177.849 3.201-1.952 3.961-2.801.76-7.202 2.361-7.402 4.073-.752 5.425-5.897 5.938-8.394 9.186-.8 1.048-2.6 1.473-4.001 1.817-.264.064-1.432-1.713-1.328-2.521.144-1.072 1.136-2.032 1.769-3.049-3.681-2.728-3.617-2.68-6.346.801-.472.592-1.752.736-2.656.728-.905-.008-2.057-.8-2.977-.6-5.89 1.072-6.906 2.896-4.945 8.802l-16.556 7.945c-.16.665-.536 2.265-.944 4.001-7.394-4.801-11.875 1.553-16.804 4.193-5.761 3.113-7.874 8.938-9.386 15.668-2.281 10.138-6.786 19.764-10.363 29.607-.224.608-.92 1.136-.936 1.712-.408 12.803-8.002 22.709-13.603 33.391-.087.26-.144.528-.168.801 4.001 3.776 7.314-.465 11.491-1.065l5.097 9.146c.96-2.496 1.896-4.945 2.833-7.393l1.52.472c-.24 1.136-.472 2.264-.8 3.665l4.001-.801-2.017 5.29c4.945-2.817 7.29-7.338 5.985-10.699 2.049-1.16 3.953-2.888 6.098-3.264 2.144-.377 4.577.288 6.593 1.168 3.265 1.424 6.106 4.137 9.459 4.953 4.2 1.032 4.665 2.801 3.064 5.521l5.529 8.106 1.505-.8c-1.168-3.585-1.945-7.362-3.585-10.723-2.545-5.201-2.489-5.801 3.057-7.201.048-4.225-.912-7.85-5.794-8.978l3.009-4.761c6.025 7.897 13.123 14.843 15.099 25.013.585 3.017 1.489 5.562 4.61 6.914.992.432 1.656 1.664 2.4 2.576 6.594 7.834 13.107 15.74 19.813 23.478 1.68 1.936 4 3.361 5.601 5.689-1.945-.8-3.833-2.096-5.858-2.4-2.344-.321-5.137-.449-7.113.568-1.977 1.016-2.241 3.576-1.088 6.009.528 1.104.264 2.625.24 3.953-.192 8.866 4.697 15.315 12.106 18.004 5.938 2.152 5.13 6.721 7.778 9.874l-1.008.8a25.237 25.237 0 00-2.401-2.744c-1.96-1.689-4.457-2.577-6.505-.8-.992.856-.864 3.2-.992 4.841-.152 2.032 0 4.097 0 6.145l-1.409.256c-1.464-2.144-3.4-4.113-4.297-6.473-2.128-5.602-3.52-11.475-5.705-17.044-1.216-3.089-3.417-5.793-5.169-8.666-.736-1.2-1.728-2.305-2.185-3.601-1.944-5.521-3.512-11.203-5.657-16.628-1.424-3.601-3.889-6.753-4.001-10.914 0-1.04-1.352-2.185-2.304-3.017-2.785-2.4-5.69-4.689-8.57-7.041 0 4.697-.888 9.858.192 14.555 2.072 8.978 5.601 17.604 7.874 26.55a25.382 25.382 0 01.136 13.235c-1.969 7.393-2.585 15.147-3.849 22.733-.8 4.585-1.224 9.298-2.633 13.699-3.489 10.931-7.273 21.733-10.314 32.807-2.281 8.29-8.33 14.98-15.532 20.141-.744.528-1.528 1-1.6 1.072l-8.378-1.024c-.144-.576-.4-1.6-.64-2.497-2.401-.368-6.193 5.194-7.034 10.115l-2.496.376c-.56 1.896-1.048 3.569-1.689 5.761-1.44-2.304-2.4-4.001-3.536-5.601-.248-.36-.929-.424-1.681-.736.568-.961.872-2.273 1.601-2.641 4.665-2.24 3.912-6.113 2.84-9.754-1.712-5.809-3.849-11.491-5.721-16.972 1.096-1.936 2.056-4.209 3.553-6.057.8-.985 2.448-1.521 3.793-1.745a43.442 43.442 0 015.601-.12c2.32-.064 4.201-.192 3.425-3.649-.44-1.952.744-4.208.8-6.337.072-6.329-.256-12.659 0-18.98.096-2.993 1.064-5.962 1.792-9.73l-3.897-6.106c-.936.456-3.152.8-3.696 1.953-1.521 3.2-4.385 4.609-7.002 6.401-.44.296-1.2.52-1.28.896-1.521 6.674-8.082 5.69-12.427 7.874-1.136.576-4.385-1.096-5.393-2.593-2.201-3.28-3.593-7.113-5.29-10.674-3.096-1.088-6.329-2.769-9.746-3.313-4.153-.648-8.61-1.08-12.643-.232-3.888.8-5.889.12-7.425-3.385a50.084 50.084 0 00-4.185-7.689c-2.985-4.457-6.274-8.706-9.298-13.139-1.393-2.041-2.265-4.465-3.753-6.402-1.849-2.448-4.073-4.617-6.162-6.873-2.304-2.505-4.889-3.057-8.049-1.473-.697.353-2.049-.344-2.993-.8-4.593-2.112-8.802-2.208-13.987-.704-4.089 1.192-8.002 2.321-11.779 4.321-3.961 2.105-6.049 5.545-8.002 9.21 7.826 5.745 7.066 5.393 2.961 14.403-2.689 5.882-2.697 12.979-4.105 19.485a9.61 9.61 0 01-2.288 4.233c-2.321 2.528-4.93 4.801-7.378 7.201-2.825 2.769-6.322 1.137-8.41-.072-4.193-2.4-8.162-2.448-12.571-1.768a9.048 9.048 0 01-4.625-.672c-7.122-3.001-11.443-1.529-15.547 4.961a11.21 11.21 0 01-4.938 3.849 164.1 164.1 0 01-14.859 5.545 18.625 18.625 0 01-6.906.744c-4.641-.36-9.602-.32-13.795-1.944-4.473-1.713-7.785-5.601-9.442-11.203-.52 1.641-.864 2.753-1.032 3.289-3.881-1.288-7.706-2.337-11.339-3.825-4.457-1.832-8.649-1.256-13.098.112-7.754 2.401-14.988.32-19.917-7.362a5.301 5.301 0 01-.952-3.288c.552-3.529-1.425-4.337-4.273-5.337a121.712 121.712 0 01-13.043-5.858c-2.625-1.28-5.113-2.848-7.506-4.201-2.072 1.697-4.001 3.201-5.913 4.857-4.265 3.665-4.425 8.354-2.265 14.156.737 1.992-1.328 5.561-2.992 7.737-1.329 1.737-4.001 2.457-5.946 3.569a25.012 25.012 0 00-14.627-4.265c-2.329 0-4.641-1.104-6.994-1.472-3.472-.544-2.208-3.825-3.472-5.601a6.757 6.757 0 00-2.569-2.465c-3.161-1.304-6.954.072-9.706-3.793-1.713-2.4-5.753-.224-8.69.168-2.937.392-5.945 1.336-9.49 2.169l-.76 2.76a23.904 23.904 0 00-4.681.32c-1.457.368-3.521.929-4.001 2.009-2.209 4.801-6.29 4.001-10.107 3.769-2.104-.112-3.825-.488-5.713 1.304-2.272 2.16-6.065 1.256-7.914-1.28-1.4-1.929-2.768-3.889-4.001-5.65-2.328-.12-4.633 0-6.817-.4-3.505-.696-4.705-3.432-5.962-6.601a97.552 97.552 0 00-7.673-14.804c-.848-1.376-3.529-2.72-5.041-2.4-8.938 1.768-14.076.528-17.46-8.802l-7.706 4.001c-2.017-10.258-4.305-19.581-5.601-29.047-1.033-7.665-4.473-14.115-8.082-20.62-1.064-1.913-1.56-3.417 1.344-4.337l-.64-.937c-1.232.392-2.449.801-3.697 1.169-4.873 1.336-9.73 2.712-14.643 3.873-1.016.24-2.289-.224-3.345-.609-1.056-.384-2.04-1.384-3.161-1.664-4.841-1.216-4.849-1.152-1.984-5.601.139-.294.252-.599.336-.912l-2.497-2.697-3.896 1.384c.08-3.4-.208-6.001-4.802-5.601-2.568.232-3.568-3.713-2.672-6.361.992-2.945 1.248-6.138 1.688-9.25.072-.497-.704-1.601-.928-1.601-3.689.688-4.625-2.881-6.922-4.289-3.528-2.168-7.305-2.632-11.202-.728a4.593 4.593 0 01-2.617.496c-5.969-1.112-11.89-2.456-17.876-3.449-1.712-.28-3.584.384-4.921.552l-21.557-4.761v.761l-8.802-5.474-3.528 3.257 3.456 2.033-3.528 2.176 4.481 8.658c-2.881-1.552-4.89-3.137-7.138-3.673-1.464-.352-4.249.336-4.801 1.4-3.017 5.922-2.841 6.01-10.258 5.602 2.32 4.753 4.401 9.01 6.505 13.299-5.665 6.401-11.002 6.673-14.835.672-4.409 1.4-10.819-3.201-10.611-7.594.144-3.249-1.928-5.857-4.937-5.401-2.464.368-3.361-.328-4.529-2.401-1.512-2.704-6.401-3.432-9.482-1.984-3.081 1.448-6.025-.536-7.426-4.905a19.636 19.636 0 01-.408-2.153l-3.817 2.065c-.736-4.409-1.28-8.642-2.208-12.803-.352-1.56-1.264-3.737-2.473-4.209-3.032-1.168-3.833-3.201-3.617-6.313-1.752-.201-3.52.048-4.801-.649-1.44-.8-2.312-2.584-3.648-3.664-1.337-1.081-3.625-3.009-4.377-2.585-3.145 1.784-5.922.6-8.874 0-.913-.184-2.401-.232-2.809.288-2.689 3.553-5.825 2.081-9.274 1.088-.76 3.825-2.761 6.666-7.202 6.85-.8-3.345-1.6-6.802-2.496-10.491-5.714 2.761-13.027 2.153-12.963 10.067-2.097.92-3.889 1.672-5.65 2.488-2.088.969-2.528 2.401-2.192 4.801.336 2.401-.64 5.194-1.096 8.162 6.137 1.921 5.289 7.61 4.801 12.723-.32 3.105 1.208 7.482-3.929 8.722l.664 4.121-8.802 4.913c-2.232-3.057-7.162-4.497-10.882-3.073a2621.135 2621.135 0 01-12.531 4.802c.416 3.944.8 8.001 1.32 12.578-.557.266-1.093.577-1.6.929-3.457 2.456-7.074 4.681-6.818 9.874.184 3.705-.52 7.457-.344 11.162.144 3.081-1.496 4.425-3.92 5.129a26.004 26.004 0 01-6.626 1.113 4.045 4.045 0 01-2.945-1.769 11.653 11.653 0 01-1.744-4.801c-.472-4.425-1.409-8.57-3.881-12.427-1.6-2.512-3.201-5.601 1.016-7.953-2.209-3.057-4.097-5.73-6.065-8.354-.496-.656-1.177-1.545-1.857-1.601-4-.488-5.401-2.992-5.961-6.601-.976-6.25-4.001-11.411-8.458-15.916-2-2.008-3.265-4.801-4.697-7.337-2.073-3.665-3.465-4.849-6.282-5.386-2.4-13.171-4.72-26.061-7.09-39.208l3.45-1.865c-.176-.192.264.112.472.528 1.6 3.289 3.777 4.801 7.633 3.241 2.16-.888 4.698-.848 6.954-1.56.72-.232 1.416-1.513 1.544-2.401.14-1.538.16-3.084.064-4.625l14.324 4.385.448-1.12-7.202-4.233c4.001-6.066 9.754-5.945 15.011-1.544 3.93 3.288 7.338 2.104 8.866-2.817.52-1.673 2.601-2.889 3.001-4.553.848-3.481 2.913-1.977 4.93-1.937 1.063 0 2.144-1.136 2.728-1.472-.912-2.4-1.6-4.281-2.337-6.145-1.448-3.673-2.128-7.666-5.84-10.243-1.01-.704-1.281-3.44-.89-4.993.753-2.968-.511-4.001-2.92-5.041-1.432-.64-2.56-2.216-3.52-3.593-1.4-2-2.521-4.201-4.002-6.705 3.49-4.801 6.706-10.187-.488-16.172 2.649-1.784 4.858-2.985 6.698-4.601 2.672-2.336 2.152-8.546-1.168-10.586-2.665-1.601-4.225-4.953-8.266-4.801-2.28.096-3.017-1.937-1.345-4.201 2.025-2.729 3.57-5.85 5.834-8.33.648-.712 3.257-.216 4.633.44 2.192 1.04 4.113 2.664 7.033 4.641v-9.786l-.296.088c.448-2.025.8-4.073 1.36-6.082 1.113-4.201 1.473-8.618 5.746-11.442 5.449-3.601 6.329-5.81 4.313-10.01-.8-1.689-2.753-2.841-4.457-4.522 2.593-2.88-.56-5.689-1.44-8.802-.208-.736-.929-1.736-.673-2.128 2.401-3.609 4.497-7.602 7.61-10.482 2.305-2.145 4.233-3.833 3.753-7.394 2.737-.488 5.297-2.769 8.378.256-1.208-4.105.04-6.401 4.465-6.185a.433.433 0 00.336-.192c2.713-5.426 9.514-4.802 13.083-8.898l10.13 4.401c.16-3.529.288-6.242.448-9.675l-3.376-3.152c2.352-.312 3.792-.696 5.225-.656 4.001.112 8.002.8 11.922.528 8.746-.617 17.46-1.681 26.278-2.577.801-5.545 1.513-10.522 2.249-15.651 7.474-.233 8.074-6.658 10.986-11.395 1.945-3.153 5.538-6.305 8.994-7.266 4.801-1.32 6.226-4.729 8.354-8.146a40.77 40.77 0 015.802-7.753c1.336-1.305 3.64-1.913 5.601-2.209 2.664-.408 4.521-1.16 4.873-4.177.304-2.64.208-5.689 1.528-7.769 2.097-3.289 5.209-5.938 7.938-8.802.184-.193.8 0 1.168 0 3.289.448 6.562 1.016 9.867 1.32 1.048.096 2.16-.504 3.344-.8l1.601 2.248c.8-.664 1.48-1.216 2.4-1.968.8 2.984 2.081 5.185 5.602 3.737.728 2.6 1.36 4.865 2.12 7.561l-4.153-.728a1039.33 1039.33 0 001.656 6.402c3.065 5.601 8.394 9.922 7.906 17.956a51.363 51.363 0 002.337 17.94c.8 2.608.864 4.417.04 6.657-.048.12-.144.312-.096.376 3.753 4.881-1.745 7.682-2.649 11.507a3.31 3.31 0 01-1.552 1.696c-7.13 4.001-14.299 3.145-21.413-.048a4.495 4.495 0 01-1.536-1.744c-2.785-4.377-5.898-8.586-8.17-13.219-1.601-3.289-2.073-7.146-3.017-10.763-.232-.888-.112-1.92-.512-2.704-.912-1.761-2.04-3.409-3.025-5.017-.288 2.28-.648 5.089-1.056 8.33l-1.872.512c.408 1.296.8 2.4 1.12 3.544 1.224 4.329-.24 8.146-4.273 9.835-5.321 2.232-6.097 8.057-9.722 11.586a.423.423 0 00-.04.384c2.056 3.905 1.08 8.242 1.832 12.291.328 1.801 2.449 4.225 4.113 4.545 1.448.28 3.393-1.992 5.265-3.201-2.6-2.456-3.136-8.802-1.44-11.042 1.84-2.401 4.721-2.401 6.401.264.969 1.528 2.193 3.465 1.993 5.041-.488 3.881 2.072 6.402 3.545 9.306.672 1.313 3.28 1.601 5.425 2.585.552-1.993.64-4.313 1.776-5.857 1.521-2.073 3.601-4.345 5.906-5.114 5.513-1.824 11.522 1.769 17.179-.96.289-.144 1.601.952 1.809 1.657.8 2.84 4.481 4.881 2.4 8.505.737.273 1.985.953 2.153.745 2.921-3.545 9.186-4.577 8.346-11.043-.12-.952.8-2.08 1.4-3.049.248-.432.8-.688 1.208-1.032 4.849-4.065 11.555-7.001 9.354-15.419 3.057 3.473 6.554 6.673 8.986 10.546 1.193 1.889 1.081 5.233.337 7.522-.697 2.152-2.649 4.553-5.77 1.944-3.248-2.704-5.881-.384-7.809.712-.321 3.041-.673 5.354-.761 7.674a4.079 4.079 0 00.801 2.721c3.584 3.777 6.825 3.801 10.61.4 1.48-1.336 3.121-2.489 4.721-3.745l3.145 1.776c.064-.336.128-.672.2-1.008 1.432.136 2.864.256 4.297.408 1.976.216 3.953.528 5.929.68 4.289.328 8.586.601 12.883.865 1.168.072 2.352 0 3.521.056 3.601.152 7.201.336 11.474.536l-8.322 7.737-2.888-.8c1.384 1.601 2.2 3.305 3.497 3.841 1.296.536 2.656 1.657 4.689.416 2.944-1.808 8.258-.136 10.986 2.257a7.6 7.6 0 004.073 1.376c2.229.17 4.467.183 6.698.04 3.728-.168 4.401 2.065 4.257 4.489l-4.233 4.073.8.968c.592-.144 1.4-.096 1.752-.472a5.138 5.138 0 015.401-1.784c2.401.432 4.441-.976 4.449-4.169 0-3.065.456-6.13.729-9.338-1.145-2.545-2.977-5.394-3.585-8.474-.304-1.601 1.504-3.633 2.616-5.289.12-.176 2.665.576 2.945 1.32a41.187 41.187 0 012.313 8.802c.168 1.224-.969 2.624-1.217 3.201 1.601.8 3.465 1.344 4.873 2.448 5.354 4.161 10.027 8.602 12.955 15.204 1.449 3.288 5.354 5.873 6.49 9.962.456 1.6.992 3.201 1.552 4.801.872 2.512 1.793 5.001 2.905 8.082l5.889-6.762-1.184-.16c0-3.097.432-6.273-.152-9.25-.416-2.144-2.185-4.001-3.913-5.801-.208-3.097.52-6.194 4.625-6.29l4.353-9.842-3.281-1.44c2.705-2.353 4.801-4.609 7.25-6.218 5.049-3.264 10.114-6.361 13.491-11.602 1.72-2.681 4.113-4.921 5.841-7.594 1.184-1.824 2.449-1.352 3.921-.936l-.048-.016zm56.389 42.457a60.012 60.012 0 00-5.786 5.09c-.68.752-1.048 2.904-.528 3.448 2.305 2.441 1.041 4.609.128 6.978-.8 2.144-1.456 4.377-2.168 6.577 1.008-.736 1.392-1.888 2.128-2.192 2.345-.96 2.809-2.633 3.057-4.969.496-4.657-.752-9.802 3.273-13.667.264-.248-.088-1.129-.104-1.265z"/><path d="M374.779 140.773c3.025-.104 6.009.752 6.802-2.953 0-.12.544-.296.712-.216 3.945 1.928 6.449-3.073 10.706-1.688l-3.569-4.802c2.457-.648 4.529-.912 6.346-1.744 3.201-1.48 6.553-2.561 9.218-5.425 1.2-1.296 3.793-1.745 4.665-3.873a45.587 45.587 0 001.384-5.121l2.057 2.488c2.24-.184 4.001-.08 5.545-.544 1.064-.312 1.808-1.904 2.849-2.096 4.801-.88 9.602-1.417 14.403-2.201a41.771 41.771 0 005.121-1.552c3.865 5.417 10.314 3.689 16.236 3.585 2.4-.04 4.737-1.849 7.161-2.049a17.712 17.712 0 017.458 1.129c.912.352 1.944 3.328 1.456 3.936-2.712 3.393-4.641 7.874-10.218 7.874-6.241 0-12.499.296-18.724.8-4.801.36-9.522 1.113-14.243 1.929a5.166 5.166 0 00-3.201 2.048c-1.921 3.041-4.521 3.297-7.802 3.201-3.449-.136-5.801 2.705-8.49 4.537-4.001 2.721-7.802 6.401-12.259 7.642-5.497 1.6-7.617 7.553-13.171 8.402-5.673 8.209-9.602 16.803-5.849 27.054.197.694.349 1.399.456 2.112-3.705 1.809-6.073-.16-8.394-2.568a14.225 14.225 0 00-3.905-2.841c-1.232-1.256-2.496-2.481-3.68-3.777-1.409-1.544-2.449-3.153-.609-5.137a3.104 3.104 0 00.801-2.505l-2.401 1.601c-.72-.424.416-8.002 1.216-8.37l.961-.464c-3.321-3.497-3.305-6.954-.12-10.059 1.992-1.936 3.904-2.912 5.409.409 3.337-2.321 6.937-3.969 5.673-8.762zm380.454-10.746l8.49 3.825c.328-2.745.608-5.066.944-7.882 1.705.608 3.089.976 4.353 1.6 2.065.992 3.705 1 6.178.312 2.984-.8 6.641.8 9.602 1.28a54.85 54.85 0 00-.56 5.706c0 1.848-4.001 10.882-5.386 10.858-4.329-.096-6.737 3.297-10.074 4.801-2.833 1.241-1.328 3.129-2.256 4.433-4.001.8-11.675-2.928-13.604-6.793-4.08-8.17-2.784-12.515 2.313-18.14zm19.14 2.6l-1.504.184c.104 1.153-.12 2.473.368 3.441 1.288 2.553 3.201 4.393 7.114 4.321l-5.978-7.946zM592.595 86.953l3.705-2.4c2.76 3.32 4 6.585 2.728 10.986-1.032 3.641-.888 7.618-1.352 12.411-3.921 3.505-5.553 3.465-10.403-.968a6.631 6.631 0 00-2.616-1.601c-5.601-1.448-7.09-3.52-6.25-9.162-4.417-2.104-4.433-2.344-1.16-5.921a15.57 15.57 0 002.129-3.393c1.8-3.473 5.041-3.873 8.402-4 2.592-.057 5.009.215 4.817 4.048zM34.437 370.032c-3.328-3.504-7.01-7.057-12.33-8.001a33.744 33.744 0 00-4.273-.841c-5.186-.248-5.906-.8-6.834-5.233 1.952-2.656 4.665-4.801 4.881-7.113.2-2.185-2.256-4.609-4.129-8.002l13.027 2.088.224-2.256c2.649 3.393 5.834 6.001 6.962 9.314 1.128 3.313.256 7.394.256 10.706l8.218 6.906-6.002 2.432z"/><path d="M577.616 84.618c.24 4.585-.153 5.009-4.938 5.705a31.956 31.956 0 00-2.704-3.097c-1.977-1.768-1.937-4.32.488-4.865 4.801-1.064 2.809-2.4.224-3.929 1.648-1.544 3.201-2.912 4.657-4.409.52-.544 1.16-1.496 1.016-2.088-1.336-5.602 3.417-6.698 6.602-8.738 4.801-3.113 4.897-2.969 7.089 2.472.488 1.225.913 2.657 1.833 3.481 2.4 2.193 2.232 3.833-.272 5.801-.704.56-.945 2.113-.881 3.201.169 2.769-1.144 3.833-3.712 4.001a32.802 32.802 0 00-5.53.8c-1.337.44-2.633.997-3.872 1.665zm18.973 41.96c-.56-1.8-1.648-3.384-1.272-4.441 1.528-4.265 3.56-8.346 5.289-12.538.64-1.545.936-3.201 1.432-4.85.424-1.368.512-3.272 1.456-4 1.409-1.025 3.601-1.905 5.178-1.56 2.6.575 1.048 2.68.6 4.224-.216.744-.416 1.488-.8 2.761l2.928-2.585c1.657 2.073 3.113 4.193 4.865 6.026 2.641 2.776 1.545 8.801-2.112 9.898-3.385 1.064-6.994 1.472-10.322 2.664-2.257.849-4.217 2.545-7.242 4.401zM59.427 197.931c-6.466 2.48-6.57 2.552-10.219-2.953-3.28-4.953-6.289-10.09-9.986-16.06 4.641.136 7.858-4.921 11.827.176.864 1.113 3.345.969 5.033 2.065l-3.64.6-.217 1.176c.896 0 1.969.32 2.657-.064 2.128-1.168 2.992-.352 3.2 1.713.48 4.353.929 8.714 1.345 13.347zM472.928 24.604l-2.497-5.081c.265-.305.537-.6.801-.897 2.456 1.865 4.713 2.873 6.209-.68.128-.304 1.256-.424 1.8-.256 1.601.528 2.761 5.505 1.497 7.73-.688-3.48-1.329-4.673-3.801-1.016-3.329 4.937-3.697 4.689-1.224 8.866-.536.288-1.161.92-1.601.8-2.576-.728-4.953-2.633-7.913-1.136-.056 0-3.825-.224-1.849-2.937.08-.104-.8-1.008-1.28-1.392-1.913-1.417-2.129-2.85-.128-4.602l2.984 2.681a8.914 8.914 0 01-.64-1.976c.064-1 .248-1.993.384-2.985.745.368 1.473.8 2.257 1.096 1.744.672 3.497 1.265 5.001 1.785zm304.069 148.24c.8-2.585 1.688-5.097 2.281-7.69.664-2.88 1.816-5.329 5.217-4.481a34.115 34.115 0 018.202 3.441c1.552.864.736 5.689-1.073 6.097-5.073 1.137-10.234 1.865-14.627 2.633zM454.077 16.433c.216 2.769.344 4.465.504 6.514-3.449.288-7.114.592-10.787.912a2.823 2.823 0 00-1.088.296c-3.593 1.993-3.585 2-8.154 0l1.697-.296c-.609-1.904-2.145-4.177 1.256-4.881a36.241 36.241 0 016.057-.312c1.681-.048 3.161.8 4.561-1.6 1.401-2.401 4.417-2.017 5.954-.633zm-123.806 166.99c-6.105.088-8.354-1.288-8.378-4.801 0-2.401 3.657-5.449 6.69-5.505 3.72-.064 5.361 1.944 5.601 6.401.144 3.313-1.032 4.777-3.913 3.905zM484.38 39.806c-1.321 1.065-2.641 2.145-4.001 3.201-2.537 2.009-5.018 1.425-6.546-.992-.688-1.096-.192-3.289.376-4.745 1-2.553 2.737-3.649 5.521-1.809 1.841 1.225 5.49.457 4.489 4.49l.161-.145z"/><path d="M484.251 39.919c2.889-1.6 5.737-3.353 8.738-4.738.488-.224 2.456 1.137 2.4 1.697-.152 2.977-1.6 5.65-4.593 6.241-2.6.512-5.801.64-6.401-3.344l-.144.144zm-19.331 5.689c-.368-2.297-.536-3.313-.744-4.625l-3.721 1.816c0-1.52-.344-2.92.104-4 .448-1.081 1.96-2.193 2.544-2.01 2.889.977 5.602 2.401 8.41 3.666l-6.593 5.153zm-13.5 132.549c1.056-4.601 2.944-5.946 8.394-6.01 1.6 7.082-.072 8.218-8.506 5.906l.112.104zM436.601 15.489c-.152-.352-.584-1.152-.88-2-.688-1.985 0-2.77 2.096-2.401 1.539.34 3.101.56 4.673.656 4.161.088 5.314 2.24 3.609 5.273l-9.498-1.528zm210.598 169.19c3.001.24 7.314 3.521 6.569 5.073-.6 1.256-2.4 2.736-3.632 2.712-2.993-.056-4.017-2.928-2.937-7.785zm-152.746 14.364l-4.537-2.569 3.632-5.849.905.392v8.026zm283.263-35.425c-4.553.576-3.745-3.145-4.801-5.602 5.409-.168 5.665.137 4.801 5.602zm-150.104-41.673c-3.553 3.952-5.441.92-7.754-.448l2.281-3.609c.264 1.656.36 2.272.448 2.848l5.025 1.209zm118.842 26.806c-.801-1.744-1.601-3.481-2.681-5.801l3.377-.512.696 6.401-1.392-.088zM487.108 16.601l-5.961.632c1.84-4.44 2.329-4.513 5.961-.632zM456.006 29.06c-.176 4.498-1.385 6.066-5.994 4.186l5.994-4.186zm29.118 4.873l-5.602.608c-.096-.6-.2-1.2-.304-1.8l5.521-1.329.385 2.52z"/></g><defs><filter id="filter0_d_146_4" x=".465" y=".5" width="1074.4" height="623.711" filterUnits="userSpaceOnUse" color-interpolation-filters="sRGB"><feFlood flood-opacity="0" result="BackgroundImageFix"/><feColorMatrix in="SourceAlpha" values="0 0 0 0 0 0 0 0 0 0 0 0 0 0 0 0 0 0 127 0" result="hardAlpha"/><feOffset/><feGaussianBlur stdDeviation="5"/><feComposite in2="hardAlpha" operator="out"/><feColorMatrix values="0 0 0 0 0 0 0 0 0 0 0 0 0 0 0 0 0 0 0.35 0"/><feBlend in2="BackgroundImageFix" result="effect1_dropShadow_146_4"/><feBlend in="SourceGraphic" in2="effect1_dropShadow_146_4" result="shape"/></filter></defs></svg>