<svg width="76" height="80" fill="none" xmlns="http://www.w3.org/2000/svg"><path d="M36.521 80c-4.515-11.838-9.004-23.596-13.5-35.385H50.67C45.96 56.4 41.255 68.162 36.521 80zm-3.446-.064L1.093 45.876c.114 0 .192-.034.266-.034H20.1a.336.336 0 01.37.266c4.196 11.208 8.395 22.415 12.595 33.623.024.06.04.121.06.182l-.05.023zm6.156-.056c.59-1.464 1.176-2.927 1.759-4.388 3.91-9.78 7.817-19.56 11.724-29.34a.509.509 0 01.558-.383h18.211l-32.201 34.16-.05-.05zm24.653-50.894l11.257 12.949h-22.73l11.473-12.949zm-27.094.011l10.541 12.931H25.94c3.625-4.323 7.226-8.614 10.85-12.93zm-25.778-.027l9.67 12.97H0c3.699-4.345 7.343-8.645 11.012-12.97zM60.6 25.92L49.893 38.574c-3.447-4.223-6.863-8.405-10.316-12.652H60.6zm-26.583-.022L23.352 38.63l-9.267-12.733h19.932zm3.849-19.331v5.716c0 .45-.211.74-.568.793a.673.673 0 01-.814-.74c0-2.113.007-4.228.02-6.344 0-1.733.009-3.465.024-5.198 0-.612.501-.958 1.009-.716a.672.672 0 01.393.672v5.817h-.064zM11.993 20.26c0 .448-.151.673-.444.788a.69.69 0 01-.83-.276A759.284 759.284 0 018.7 17.954l-4.6-6.5c-.043-.06-.09-.12-.13-.187a.71.71 0 01.148-.965.694.694 0 01.981.158c.397.534.777 1.079 1.16 1.62l5.42 7.643c.115.173.22.353.313.538zm57.18-9.316a1.82 1.82 0 01-.178.387c-2.22 3.138-4.442 6.276-6.668 9.414a.71.71 0 01-1.008.236.705.705 0 01-.122-1.04c2.226-3.137 4.457-6.276 6.691-9.414a.672.672 0 01.824-.299.717.717 0 01.46.716z" fill="#DBBFFF"/></svg>