<svg width="83" height="80" fill="none" xmlns="http://www.w3.org/2000/svg"><g clip-path="url(#clip0_242_565)" fill="#DBBFFF"><path d="M41.656 40.667L71.64 23.683 62.144 7.541 32.156 24.525c3.168 5.385 6.319 10.74 9.5 16.142zM16.532 50.998l22.184-12.567c-2.011-3.424-4.023-6.824-6.054-10.288l-12.51 7.082a7.904 7.904 0 00-.435-1.144 195.924 195.924 0 00-2.434-4.127 10.349 10.349 0 00-.69-.912l4.15-2.348c.13-.073.268-.14.392-.221a.67.67 0 00.288-.949.671.671 0 00-.959-.255c-.67.336-1.324.725-1.984 1.093l-7.824 4.413c-.117.067-.238.128-.335.201a.691.691 0 00-.093 1.142.69.69 0 00.763.062c.537-.282 1.06-.587 1.59-.882l3.063-1.717c.119.344.259.68.419 1.006.831 1.442 1.676 2.88 2.534 4.302.215.296.454.573.714.829l-8.816 5.003c2.008 3.437 4.01 6.837 6.037 10.277zM82.58 20.18C78.615 13.435 74.676 6.746 70.707 0l-8.534 4.832 11.873 20.18 8.534-4.833zM42.698 46.023h-5.072v33.92h5.072v-33.92zm-6.624 2.374L19.55 79.947c.191.016.335.04.47.04h4.022a.63.63 0 00.653-.41L36.001 58.01c.113-.206.178-.436.19-.67v-8.682c0-.08 0-.16-.02-.238l-.097-.023zm8.059.395v2.803c0 2.012 0 4.004.017 6.006.003.282.07.56.197.811L55.41 79.584a.634.634 0 00.65.416c1.475-.023 2.95 0 4.535 0a179894.85 179894.85 0 00-16.357-31.231l-.104.023zm-40.53 6.753l10.476-5.939-3.597-6.13L0 49.423l3.603 6.123z"/><path d="M48.651 44.568v-6.244c-.2.104-.365.181-.52.269l-6.137 3.473c-.67.383-.968.299-1.34-.358l-1.217-2.083-8.598 4.866.02.077H48.65z"/></g><defs><clipPath id="clip0_242_565"><path fill="#fff" d="M0 0h82.581v80H0z"/></clipPath></defs></svg>