<svg width="158" height="103" fill="none" xmlns="http://www.w3.org/2000/svg"><path d="M70.084.22v11.8c-9.339.218-17.306 3.565-23.76 10.269a31.465 31.465 0 00-7.517 12.743c3.27 1.136 6.555 1.966 9.575 3.378 17.572 8.194 24.516 29.629 15.221 46.624a33.696 33.696 0 01-39.204 16.379C8.991 96.938-.916 82.735.067 66.361c1.097-18.145 8.054-33.759 21.05-46.44C34.237 7.11 50.13.477 68.52 0c.382-.006.764.007 1.145.04.147.04.289.1.42.18zM158 .083v11.851c-15.557.9-26.011 8.657-31.464 23.083 3.199 1.092 6.306 1.9 9.199 3.185a33.646 33.646 0 0118.703 39.422c-6.485 24.119-35.694 33.243-54.669 17.017-9.015-7.708-12.673-17.68-11.768-29.41 1.11-14.696 6.227-27.806 15.487-39.291a68.653 68.653 0 0123.52-18.791 68.035 68.035 0 0129.76-7.145c.371 0 .747.044 1.232.079z" fill="#fff"/></svg>