<svg width="23" height="23" fill="none" xmlns="http://www.w3.org/2000/svg"><g clip-path="url(#clip0_146_159)"><path d="M22.484 18.177l-3.552-3.552c-.707-.705-1.879-.684-2.61.049l-1.79 1.789-.354-.196c-1.13-.627-2.676-1.485-4.304-3.114-1.632-1.632-2.491-3.18-3.12-4.312-.065-.12-.129-.235-.192-.345l1.201-1.199.59-.591c.734-.733.754-1.905.048-2.611L4.85.542C4.144-.164 2.971-.142 2.24.59L1.236 1.598l.027.027A5.789 5.789 0 00.44 3.08a6.033 6.033 0 00-.367 1.476c-.47 3.888 1.307 7.442 6.13 12.264 6.665 6.665 12.037 6.161 12.268 6.137a6 6 0 001.48-.372 5.77 5.77 0 001.45-.821l.022.019 1.014-.993c.732-.733.753-1.905.047-2.613z" fill="#fff"/></g><defs><clipPath id="clip0_146_159"><path fill="#fff" d="M0 0h23v23H0z"/></clipPath></defs></svg>