<svg width="80" height="80" fill="none" xmlns="http://www.w3.org/2000/svg"><path d="M0 39.509c.077-.793.148-1.59.235-2.383a37.563 37.563 0 015.449-15.95C10.181 13.93 16.366 8.622 24.286 5.428a37.647 37.647 0 0115.942-2.803 38.85 38.85 0 0119.09 5.933l.067.043a1.065 1.065 0 01.645 1.295c-.225 1.297-.289 2.621-.43 3.932a.715.715 0 01-.158.394c-.605.625-1.224 1.233-1.856 1.868-8.554-6.006-17.882-7.757-27.932-4.843-7.257 2.104-12.951 6.484-17.143 12.756a31.358 31.358 0 004.602 40.138c11.586 10.897 28.447 11.3 40.309 2.43A31.146 31.146 0 0067.59 53.798a30.733 30.733 0 002.353-16.104 31.523 31.523 0 00-5.997-15.173c.672-.672 1.29-1.318 1.933-1.947a.673.673 0 01.373-.117c1.472-.175 2.941-.336 4.417-.49a.673.673 0 01.484.288c.443.672.877 1.345 1.267 2.04a38.657 38.657 0 01-21.748 55.829c-3.19 1.042-6.447 1.768-9.825 1.818-.12.011-.239.03-.356.058h-3.516a2.167 2.167 0 00-.357-.054 33.784 33.784 0 01-10.635-2.078c-8.534-3.004-15.227-8.38-20.06-16.02a37.755 37.755 0 01-5.688-16.36c-.087-.792-.158-1.59-.235-2.386V39.51z" fill="#DBBFFF"/><path d="M80 9.308c-2.757 2.38-5.52 4.752-8.266 7.146-1.16 1.008-2.578 1.133-4.003 1.257-.84.07-1.681.138-2.521.195-.283.01-.55.13-.743.336a23103 23103 0 01-24.508 24.497c-.164.165-.373.41-.561.41a3.82 3.82 0 01-1.587-.194 1.68 1.68 0 01-.96-1.62 1.763 1.763 0 01.56-1.386A8102.18 8102.18 0 0058.42 18.892a155.497 155.497 0 003.418-3.56 1.27 1.27 0 00.283-.672c.205-1.56.336-3.136.605-4.686a3.52 3.52 0 01.803-1.533c1.855-2.258 3.751-4.484 5.647-6.722.508-.585 1.076-1.143 1.6-1.718h.246c.106.195.186.403.238.618.124 1.05.205 2.105.336 3.157.131 1.052.239 2.13.414 3.186a1.27 1.27 0 001.206 1.133c1.46.161 2.915.313 4.37.48.807.095 1.61.216 2.414.337v.397z" fill="#DBBFFF"/><path d="M53.445 32.941l3.828-3.798c.232-.229.464-.464.71-.672.702-.612.991-.565 1.428.268.437.834.89 1.742 1.311 2.626 1.755 3.697 2.353 7.57 2.087 11.627-.248 3.993-1.344 7.73-3.55 11.048-3.952 5.94-9.293 9.956-16.47 11.133-5.21.85-10.265.195-14.981-2.276-7.059-3.697-11.48-9.512-12.894-17.354-1.21-6.723.269-12.992 4.34-18.535a23.301 23.301 0 0116.003-9.596c5.136-.736 10.114 0 14.736 2.534.538.293 1.092.555 1.613.867.521.313.521.545.185 1.009-.148.195-.31.38-.484.551-1.304 1.311-2.619 2.615-3.92 3.933a.43.43 0 01-.554.104c-1.405-.544-2.793-1.156-4.239-1.56-1.879-.52-3.835-.46-5.758-.292-4.346.387-7.858 2.427-10.756 5.617a15.603 15.603 0 00-3.976 7.909c-1.738 10.037 4.8 18.037 13.193 19.832 1.22.208 2.46.298 3.697.269 7.577.11 15.066-5.647 16.47-14.252.532-3.362-.033-7.21-2.02-10.992z" fill="#DBBFFF"/><path d="M47.956 38.612c.938 2.672.625 7.378-3.664 10.575-3.476 2.588-8.565 2.319-11.832-.548-4.201-3.698-4.107-9.076-1.909-12.4 2.955-4.457 7.58-5.21 10.877-4.152-.127.155-.235.303-.363.434-1.781 1.835-3.546 3.697-5.351 5.496a4.854 4.854 0 00-1.513 3.233c-.14 2.353 2.353 5.311 5.674 4.434a3.94 3.94 0 001.752-.992c1.945-1.88 3.89-3.762 5.835-5.647.154-.148.322-.282.494-.433z" fill="#DBBFFF"/></svg>