<svg width="22" height="26" fill="none" xmlns="http://www.w3.org/2000/svg"><path d="M3.625 26a23.245 23.245 0 004.28-3.888c.09-.099.143-.145.214-.145a8.58 8.58 0 001.092.066 15.094 15.094 0 002.293-.211c1.104-.172 2.214-.39 3.293-.6l1.188-.232a2.45 2.45 0 00.442-.139h.046l-.072-.264c-2.386.526-4.815.82-7.255.878h-.611l1.24-1.373.916-1.003a.35.35 0 01.273-.112h.124c.306.041.614.064.922.066h.396a25.76 25.76 0 005.437-1.063 1.11 1.11 0 00.26-.119l-.098-.25c-2.202.55-4.46.843-6.729.87l.916-1.003 1.89-2.085a.468.468 0 01.396-.172 16.101 16.101 0 003.826-.6h.072c.33-.08.65-.179.98-.278l.403-.119a.415.415 0 00.201-.132l.267-.323-.812.204c-.299.073-.598.152-.896.218a18.08 18.08 0 01-3.385.462 2.998 2.998 0 01-.357 0l1.176-1.32c.857-.963 1.747-1.98 2.598-2.957a19.447 19.447 0 002.598-3.96c0-.066.065-.139.091-.205a.24.24 0 000-.25l-.117-.166s-.305.502-.364.608l-.305.521a17.05 17.05 0 01-1.806 2.713c-.76.878-1.546 1.75-2.312 2.594l-.325.356-1.429 1.558-.513.555-.058.052-.065-.23a6.964 6.964 0 01-.163-.66 17.523 17.523 0 01-.194-3.506v-.178a3.04 3.04 0 000-.488h-.267l-.032.158c-.028.122-.05.245-.065.37a14.816 14.816 0 00.104 4.218c.019.092.045.182.078.27.03.098.053.197.071.297a.355.355 0 01-.052.245c-.533.58-1.072 1.148-1.61 1.716l-.339.356v-.046a2.552 2.552 0 01-.116-.449 23.374 23.374 0 01-.254-5.604.294.294 0 00-.065-.218l-.195-.224-.071.455a3.623 3.623 0 00-.052.37 22.61 22.61 0 00.072 5.142c.049.301.132.595.246.878a.214.214 0 01-.045.27l-.65.66-1.052 1.116-1.689 1.756-.09.079a24.66 24.66 0 01-.468-5.987H6.78c0 .191-.032.376-.045.568 0 .416-.059.831-.072 1.254a20.12 20.12 0 00.13 3.511c.047.314.11.624.189.931.045.172.032.27-.059.357l-2.793 2.64-.13.092v-.125c-.052-.205-.104-.403-.136-.6a11.628 11.628 0 011.5-8.212 19.895 19.895 0 014.703-5.234 19.86 19.86 0 014.703-2.64c1.442-.66 2.851-1.255 4.254-1.915a6.95 6.95 0 002.215-1.564c.17-.21.326-.43.468-.66l.195-.304.09-.125c.007.13.007.26 0 .39 0 .184-.045.375-.07.56a6.785 6.785 0 00-.085.898 18.9 18.9 0 00.058 2.026 16.072 16.072 0 01-2.93 11.116 23.01 23.01 0 01-5.248 5.28 8.19 8.19 0 01-4.371 1.525c-1.338.086-2.644.172-3.936.323a14.63 14.63 0 00-1.618.324L3.625 26z" fill="#DBBFFF"/><path d="M2.94 21.597a9.464 9.464 0 01-.714-.739 9.062 9.062 0 01-1.8-3.696 15.662 15.662 0 01-.363-5.28c.232-2.05.803-4.045 1.689-5.902a23.393 23.393 0 001.299-3.57A4.277 4.277 0 003.01 0c.117.11.222.23.312.363a9.677 9.677 0 001.871 1.993 13.589 13.589 0 013.586 4.78c.393.934.683 1.91.863 2.91a.221.221 0 01-.103.27l-.845.66.124-.23-.24-.132a11.081 11.081 0 01-1.495 1.927c-.286.31-.571.627-.838.964-.266.337-.46.6-.65.898-.097.145-.2.284-.304.429v-.264l-.098-1.202-.058-1.841a.381.381 0 01.143-.304 16.209 16.209 0 002.468-3.637v-.112L7.7 7.089l-.207.284-.085.139a16.256 16.256 0 01-2.325 3.115c0-.495-.04-.99-.065-1.478-.046-1.11-.091-2.258-.176-3.38a16.07 16.07 0 00-.688-3.644l-.078-.204a.184.184 0 00-.085-.1l-.35-.27.169.7c.052.224.097.435.155.66a18.98 18.98 0 01.579 4.752l.058 2.159.033 1.32h-.033a2.87 2.87 0 01-.396-.231 13.59 13.59 0 01-2.209-1.98l-.13-.139-.032-.033H1.77l-.28-.046.105.244v.053c.02.04.044.077.071.112.666.86 1.441 1.626 2.306 2.277l.247.152c.09.043.175.096.253.159a.487.487 0 01.163.21v2.285a2.028 2.028 0 01-.267-.146 19.4 19.4 0 01-2.845-2.528l-.227-.396h-.091l-.266.046.149.232a.84.84 0 00.084.125 18.38 18.38 0 002.722 2.693c.203.162.42.303.65.422.11.06.13.106.13.179v.878a.174.174 0 010 .072L3.57 18.125l-2.033-1.907-.24.092.078.152v.046c.028.042.058.082.09.12l.04.039 1.877 1.907c.078.08.078.08.058.132a9.186 9.186 0 00-.396 3.017l-.104-.126z" fill="#DBBFFF"/></svg>