<svg width="54" height="51" fill="none" xmlns="http://www.w3.org/2000/svg"><path d="M52.568 6.87H.768A.768.768 0 000 7.638v.682c0 .425.344.768.768.768h51.8a.768.768 0 00.768-.768v-.682a.768.768 0 00-.768-.768zm0 41.431H.768A.768.768 0 000 49.07v.683c0 .424.344.768.768.768h51.8a.768.768 0 00.768-.768v-.683a.768.768 0 00-.768-.768zm-.711-46.14H1.48V5.66h50.378V2.161zM50.677 0H2.66L1.48 1.48h50.377L50.677 0zm-12.63 22.956H15.29v11.378h22.757V22.956z" fill="#DBBFFF"/><path d="M1.849 10.938v35.415h49.638V10.938H1.849zm37.62 24.82H13.866V21.533h25.601v14.223z" fill="#DBBFFF"/></svg>