<svg width="41" height="38" fill="none" xmlns="http://www.w3.org/2000/svg"><path d="M39.76 5.152H.912a.576.576 0 00-.576.576v.512c0 .318.258.576.576.576H39.76a.576.576 0 00.576-.576v-.512a.576.576 0 00-.576-.576zm0 31.072H.912a.576.576 0 00-.576.576v.512c0 .318.258.576.576.576H39.76a.576.576 0 00.576-.576V36.8a.576.576 0 00-.576-.576zM39.227 1.62H1.445v2.625h37.782V1.62zM38.341 0H2.331l-.886 1.11h37.782L38.34 0zM28.87 17.215H11.802v8.534h17.066v-8.534z" fill="#DBBFFF"/><path d="M1.723 8.204v26.56h37.226V8.204H1.723zm28.213 18.613h-19.2V16.15h19.2v10.667z" fill="#DBBFFF"/></svg>