<svg width="30" height="28" fill="none" xmlns="http://www.w3.org/2000/svg"><path d="M28.971 3.742H.754a.418.418 0 00-.418.419v.371c0 .232.187.419.418.419h28.217a.418.418 0 00.419-.419v-.371a.418.418 0 00-.419-.419zm0 22.569H.754a.418.418 0 00-.418.418v.372c0 .231.187.419.418.419h28.217a.418.418 0 00.419-.419v-.372a.418.418 0 00-.419-.418zm-.387-25.134H1.142v1.906h27.442V1.177zM27.94 0H1.786l-.643.806h27.442L27.94 0zm-6.879 12.504H8.665v6.199h12.396v-6.199z" fill="#DBBFFF"/><path d="M1.343 5.958V25.25h27.04V5.96H1.342zm20.492 13.52H7.89V11.73h13.945v7.748z" fill="#DBBFFF"/></svg>