<svg width="15" height="15" fill="none" xmlns="http://www.w3.org/2000/svg"><g clip-path="url(#clip0_3_154)"><path d="M6.765 0a6.772 6.772 0 016.765 6.765 6.724 6.724 0 01-1.04 3.599l2.07 2.07a1.503 1.503 0 11-2.126 2.126l-2.07-2.07a6.724 6.724 0 01-3.6 1.04A6.772 6.772 0 010 6.764 6.772 6.772 0 016.765 0zm0 12.026a5.267 5.267 0 005.261-5.261 5.267 5.267 0 00-5.261-5.262 5.267 5.267 0 00-5.262 5.262 5.267 5.267 0 005.262 5.261z" fill="#fff"/></g><defs><clipPath id="clip0_3_154"><path fill="#fff" transform="matrix(-1 0 0 1 15 0)" d="M0 0h15v15H0z"/></clipPath></defs></svg>