<svg width="30" height="30" fill="none" xmlns="http://www.w3.org/2000/svg"><path fill-rule="evenodd" clip-rule="evenodd" d="M15 30c8.284 0 15-6.716 15-15 0-8.284-6.716-15-15-15C6.716 0 0 6.716 0 15c0 8.284 6.716 15 15 15zm-4.538-13.433L7.013 15.28c-.35-.117-.35-.643 0-.76l14.203-5.495c.293-.117.585.176.526.468l-2.571 12.274c-.059.293-.41.41-.643.234l-3.449-2.513c-.234-.175-.526-.175-.701 0l-1.93 1.578c-.233.175-.584.117-.642-.175l-1.344-4.325zm7.949-4.793l-6.78 4.15c-.293.116-.41.467-.234.76l.701 2.571c.059.234.35.175.35 0l.176-1.403c0-.292.176-.526.351-.701l5.553-5.202c.117-.059 0-.234-.117-.175z" fill="#fff"/></svg>