<svg width="84" height="111" fill="none" xmlns="http://www.w3.org/2000/svg"><path fill-rule="evenodd" clip-rule="evenodd" d="M83.015 67.28c-.195-11.203-5.53-21.01-10.985-27.575-6.115-7.316-13.859-12.193-22.773-16.05-.165 16.012-10.798 24.867-9.11 41.442.256 2.536.999 4.427 1.674 6.94 3.504-1.695 6.588-5.867 9.11-9.341 4.201 4.134 2.896 14.661 1.192 20.597.706.555 1.741-.556 2.146-.953a26.12 26.12 0 005.043-7.189c6.377-12.328 2.318-30.269-3.595-40.473.24 0 .278.195.473.232a49.15 49.15 0 0112.944 36.647C68 86.257 54.952 97.767 39.427 97.91c-18.33.158-30.967-15.007-32.092-31.86a34.073 34.073 0 0111.488-28.265c6.423-5.567 15.337-7.743 25.399-9.334-26.84.848-46.154 15.862-44.068 44.548a38.53 38.53 0 0011.72 25.384c6.326 6.235 14.685 11.255 25.4 12.006A42.12 42.12 0 0071.039 97.22c6.678-7.12 12.201-17.04 12.006-29.94M22.004 25.336C27.257 12.58 37.094.95 55.207 3.906c-13.701 2.356-21.25 7.233-27.845 18.256 4.127-3.564 8.711-6.596 15.464-7.128a46.273 46.273 0 01-1.56 9.244c7.863-1.883 12.883-10.205 15.584-15.135.488-.892 1.501-3.886 4.225-5.935C50.27-1.624 38.647.447 31.669 5.977c-6.859 5.432-10.573 15.007-13.154 24.671 2.251-.322 2.769-3.564 3.49-5.312z" fill="#fff"/></svg>