<svg width="88" height="59" fill="none" xmlns="http://www.w3.org/2000/svg"><path d="M0 58.186v-8.371h5.044v.891H1.286v7.48H0zm8.752-2.651l-3.109-5.72H7.08l2.422 4.434 2.61-4.434h1.198l-3.708 6.287c-.487.845-.961 1.413-1.386 1.68-.436.265-1.086.404-1.947.404H6.03v-.973h.25c.599 0 1.048-.092 1.347-.266.3-.173.612-.532.937-1.076l.187-.337zm4.645 2.651v-1.042c.874-.116 1.448-.544 1.723-1.297.287-.775.425-2.617.425-5.5v-.532H20.8v8.371h-1.286v-7.503H16.83v.185c0 2.548-.15 4.273-.462 5.188-.238.695-.587 1.204-1.037 1.528-.449.324-1.099.521-1.935.602zm9.739 0v-8.371h5.044v.891h-3.758v2.698h.687c.711 0 1.236.023 1.56.081.325.058.637.174.924.348.687.405 1.037 1.007 1.037 1.794 0 .938-.387 1.633-1.174 2.084-.537.313-1.436.475-2.684.475h-1.636zm1.286-.868h.45c.873 0 1.485-.116 1.835-.347.424-.301.637-.718.637-1.263 0-.498-.175-.868-.537-1.1-.362-.22-.95-.335-1.76-.335h-.625v3.045zm4.919.868l3.584-8.371h1.26l3.522 8.371h-1.374l-.986-2.315h-3.808l-1 2.315h-1.198zm2.56-3.207h3.071l-1.535-3.601-1.536 3.6zm6.055 3.207l2.997-4.203-2.846-4.168h1.523l2.16 3.149 2.285-3.15h1.198l-2.884 4.03 2.96 4.342h-1.524l-2.285-3.311-2.372 3.311h-1.212zm7.817 0l3.583-8.371h1.261l3.521 8.371h-1.373l-.987-2.315h-3.807l-1 2.315h-1.198zm2.56-3.207h3.07l-1.535-3.601-1.536 3.6zm7.116 3.207v-8.371h2.46c.711 0 1.248.058 1.636.162.387.104.699.3.949.567.312.36.474.846.474 1.47 0 .88-.325 1.587-.974 2.085-.65.51-1.548.764-2.697.764h-.562v3.323H55.45zm1.286-4.214h.512c.75 0 1.336-.163 1.748-.487.412-.324.612-.787.612-1.39 0-.497-.163-.856-.487-1.065-.325-.22-.862-.324-1.61-.324h-.775v3.266zm9.564 4.214v-8.371h2.46c.712 0 1.248.058 1.636.162.387.104.699.3.949.567.312.36.474.846.474 1.47 0 .88-.325 1.587-.974 2.085-.649.51-1.548.764-2.697.764h-.562v3.323H66.3zm1.286-4.214h.512c.75 0 1.336-.163 1.748-.487.412-.324.612-.787.612-1.39 0-.497-.162-.856-.487-1.065-.325-.22-.861-.324-1.61-.324h-.775v3.266zm8.016 1.563l-3.109-5.72h1.436l2.422 4.434 2.61-4.434h1.199l-3.709 6.287c-.487.845-.961 1.413-1.386 1.68-.436.265-1.086.404-1.947.404h-.238v-.973h.25c.6 0 1.049-.092 1.348-.266.3-.173.612-.532.937-1.076l.187-.337zM88 57.758c-.887.428-1.86.637-2.91.637-1.398 0-2.484-.383-3.246-1.147-.761-.764-1.149-1.84-1.149-3.242 0-1.4.388-2.478 1.174-3.254.774-.764 1.873-1.146 3.284-1.146.812 0 1.748.128 2.834.37v1.112c-1.236-.393-2.185-.59-2.859-.59-.974 0-1.735.3-2.273.926-.524.614-.799 1.47-.799 2.594 0 1.077.288 1.91.862 2.524.574.614 1.348.926 2.347.926.85 0 1.76-.243 2.735-.73v1.02z" fill="#fff"/><path fill-rule="evenodd" clip-rule="evenodd" d="M60.154 25.925c-.077-4.337-2.149-8.143-4.277-10.698-2.365-2.842-5.37-4.735-8.835-6.233-.062 6.218-4.191 9.648-3.536 16.094.098.987.386 1.721.648 2.698 1.361-.658 2.559-2.28 3.538-3.628 1.633 1.606 1.127 5.693.463 8 .274.213.676-.218.836-.372.828-.768 1.442-1.801 1.956-2.791 2.477-4.79.9-11.756-1.395-15.721.093 0 .108.076.185.093 3.041 3.255 5.469 8.433 5.026 14.231-.44 5.709-5.508 10.182-11.538 10.235-7.12.06-12.026-5.834-12.465-12.375-.324-4.877 1.841-8.698 4.463-10.976 2.493-2.162 5.957-3.01 9.863-3.627-10.422.33-17.925 6.162-17.116 17.302.305 4.193 2.056 7.392 4.554 9.861 2.456 2.42 5.703 4.372 9.865 4.651a16.355 16.355 0 0013.116-5.115c2.595-2.767 4.74-6.618 4.648-11.629zM36.459 9.645c2.05-4.965 5.86-9.471 12.895-8.322-5.322.915-8.253 2.81-10.814 7.09 1.6-1.385 3.382-2.562 6.004-2.768-.13 1.283-.182 2.027-.611 3.59 3.054-.731 5.005-3.963 6.052-5.878.191-.348.572-1.51 1.641-2.304C47.424-.826 42.921-.021 40.21 2.128c-2.662 2.109-4.106 5.831-5.108 9.582.886-.125 1.076-1.384 1.357-2.065z" fill="#fff"/></svg>