<svg width="272" height="18" fill="none" xmlns="http://www.w3.org/2000/svg"><path d="M196.334 6.882c3.163.612 5.271 2.754 7.342 4.916-1.643-5.506-5.959-6.516-10.964-6.378 4.589-1.72 11.756.245 11.683 8.159-5.433-.783-6.118-1.037-7.483-2.879l2.705-.648c-.612-.689-1.068-1.27-1.594-1.775-.526-.504-1.126-.933-1.689-1.395zm-12.996-5.65c4.479.918 12.237 8.793 14.99 15.829-3.047-7.037-10.991-14.174-14.99-15.829z" fill="#fff"/><path opacity=".5" d="M183.266 17.553V1h-.306v16.553h.306zm-2.142 0V1h-.306v16.553h.306zm-2.137 0V1h-.306v16.553h.306zm-2.144 0V1h-.306v16.553h.306zm-2.139 0V1h-.306v16.553h.306zm-2.143 0V1h-.306v16.553h.306zm-2.138 0V1h-.306v16.553h.306zm-2.142 0V1h-.306v16.553h.306zm-2.141 0V1h-.306v16.553h.306zm-2.142 0V1h-.306v16.553h.306zm-2.141 0V1h-.306v16.553h.306zm-2.138 0V1h-.306v16.553h.306zm-2.141 0V1h-.306v16.553h.306zm-2.142 0V1h-.306v16.553h.306zm-2.141 0V1h-.306v16.553h.306zm-2.14 0V1h-.306v16.553h.306zm-2.139 0V1h-.306v16.553h.306zm-2.144 0V1h-.305v16.553h.305zm-2.139 0V1h-.306v16.553h.306zm-2.14 0V1h-.306v16.553h.306zm-2.14 0V1h-.305v16.553h.305zm-2.143 0V1h-.306v16.553h.306zm-2.139 0V1h-.306v16.553h.306zm-2.144 0V1h-.305v16.553h.305zm-2.137 0V1h-.306v16.553h.306zm-2.142 0V1h-.306v16.553h.306zm-2.141 0V1h-.306v16.553h.306zm-2.142 0V1h-.306v16.553h.306zm-2.137 0V1h-.306v16.553h.306zm-2.142 0V1h-.306v16.553h.306zm-2.141 0V1h-.306v16.553h.306zm-2.142 0V1h-.306v16.553h.306zm-2.138 0V1h-.306v16.553h.306zm-2.143 0V1h-.306v16.553h.306zm-2.139 0V1h-.306v16.553h.306zm-2.144 0V1h-.306v16.553h.306zm-2.137 0V1h-.306v16.553h.306zm-2.142 0V1h-.306v16.553h.306zm-2.141 0V1h-.306v16.553h.306zm-2.142 0V1h-.306v16.553h.306zm-2.141 0V1h-.306v16.553h.306zm-2.138 0V1h-.306v16.553h.306zm-2.141 0V1h-.306v16.553h.306zm-2.142 0V1h-.306v16.553h.306zm-2.141 0V1h-.306v16.553h.306zm-2.14 0V1h-.306v16.553h.306zm-2.14 0V1h-.305v16.553h.305zm-2.143 0V1h-.306v16.553h.306zm-2.139 0V1h-.306v16.553h.306zm-2.14 0V1h-.306v16.553h.306zm-2.14 0V1h-.306v16.553h.306zm-2.142 0V1h-.307v16.553h.306zm-2.142 0V1h-.306v16.553h.306zm-2.138 0V1h-.306v16.553h.306zm-2.142 0V1h-.305v16.553h.305zm-2.141 0V1h-.306v16.553h.306zm-2.141 0V1h-.306v16.553h.306zm-2.142 0V1h-.306v16.553h.306zm-2.138 0V1H58.8v16.553h.306zm-2.141 0V1h-.306v16.553h.306zm-2.141 0V1h-.306v16.553h.306zm-2.142 0V1h-.306v16.553h.306zm-2.138 0V1h-.306v16.553h.306zm-2.143 0V1h-.306v16.553h.306zm-2.14 0V1h-.306v16.553h.306zm-2.143 0V1h-.306v16.553h.306zm-2.138 0V1h-.305v16.553h.305zm-2.141 0V1h-.306v16.553h.306zm-2.141 0V1h-.306v16.553h.306zm-2.142 0V1h-.306v16.553h.306zm-2.141 0V1h-.306v16.553h.306zm-2.138 0V1h-.306v16.553h.306zm-2.142 0V1h-.306v16.553h.306zm-2.141 0V1h-.306v16.553h.306zm-2.141 0V1h-.306v16.553h.306zm-2.138 0V1h-.306v16.553h.306zm-2.142 0V1h-.306v16.553h.306zm-2.141 0V1h-.306v16.553h.306zm-2.142 0V1h-.305v16.553h.306zm-2.14 0V1h-.305v16.553h.306zm-2.14 0V1h-.306v16.553h.305zm-2.142 0V1h-.306v16.553h.306zm-2.141 0V1H7.42v16.553h.306zm-2.138 0V1h-.306v16.553h.306zm-2.142 0V1h-.306v16.553h.306zm-2.141 0V1H1v16.553h.306z" fill="#fff"/><path d="M1.153 17.4V1.154h269.69v16.248H1.153z" stroke="#fff" stroke-width=".6" stroke-miterlimit="10"/><g clip-path="url(#clip0_113_68)" fill-rule="evenodd" clip-rule="evenodd" fill="#fff"><path d="M216.347 7.338h.218a.598.598 0 01.296.075.25.25 0 01.115.124c.019.047.042.165.042.45v3.025c0 .33-.039.456-.072.5-.078.1-.203.149-.381.149h-.218v.23h2.111v-.23h-.221a.578.578 0 01-.29-.077.263.263 0 01-.123-.12c-.018-.049-.04-.166-.04-.452V7.99c0-.336.04-.457.075-.502.078-.099.204-.148.378-.148h.221v-.235h-2.111v.232zm-3.269 3.361l-1.667-3.593H210v.232h.052a.907.907 0 01.393.061c.066.03.121.08.155.144.05.137.071.282.061.427v3.06c0 .31-.036.43-.067.474-.073.106-.198.157-.379.157H210v.23h1.736v-.23h-.22c-.17 0-.289-.042-.365-.127-.03-.035-.083-.146-.083-.505V8.135l1.714 3.727.014.03h.18l1.722-3.756v2.893c0 .311-.036.431-.067.476-.071.104-.198.156-.379.156h-.218v.23h2.092v-.23h-.214c-.165 0-.291-.042-.366-.128-.031-.035-.083-.146-.083-.504V7.97c0-.31.037-.43.067-.474.073-.106.198-.157.382-.157h.214v-.232h-1.414l-1.634 3.593zm9.507-.173a2.265 2.265 0 01-.35.623.94.94 0 01-.376.267c-.14.05-.389.076-.739.076h-.342c-.384 0-.49-.02-.52-.031a.195.195 0 01-.101-.083.93.93 0 01-.049-.37V8.066c0-.336.027-.46.05-.505a.38.38 0 01.182-.16 1.21 1.21 0 01.47-.064h.083v-.23h-2.225v.23h.227a.46.46 0 01.364.134c.038.044.082.165.082.516v3.02c0 .321-.034.44-.063.485-.076.113-.2.169-.383.169h-.227v.23h3.72l.425-1.359-.21-.046-.018.04zm4.929.992c-.1-.088-.217-.287-.345-.591l-1.628-3.896-.015-.031h-.189l-1.661 3.885c-.139.33-.267.551-.377.656-.035.033-.124.083-.354.12l-.042.009v.222h1.576v-.227h-.047c-.267-.02-.371-.062-.413-.094a.19.19 0 01-.06-.065.19.19 0 01-.023-.084c.015-.136.055-.268.117-.39l.305-.708h1.744l.266.643c.07.144.115.3.133.458a.19.19 0 01-.021.087.186.186 0 01-.057.068c-.057.045-.175.073-.349.082h-.049v.229h1.95v-.227h-.049a.67.67 0 01-.413-.143l.001-.003zm-1.554-1.553h-1.454l.737-1.709.717 1.71zm11.356-2.258A2.174 2.174 0 00235.699 7a2.3 2.3 0 00-1.612.625c-.515.477-.777 1.102-.777 1.856 0 .743.227 1.35.672 1.816a2.3 2.3 0 002.573.514 2.3 2.3 0 00.757-.53c.457-.479.688-1.087.688-1.807 0-.701-.23-1.294-.684-1.765v-.002zm-1.682-.353c.434 0 .764.148 1.009.45.308.384.463.976.463 1.761 0 .722-.14 1.257-.419 1.59a1.31 1.31 0 01-1.05.495 1.169 1.169 0 01-.953-.45c-.318-.401-.48-.985-.48-1.734 0-.729.155-1.29.461-1.666a1.181 1.181 0 01.969-.446zm-4.306-.016h.214c.171 0 .29.04.366.127.038.043.082.165.082.505v2.559l-2.767-3.404-.015-.019h-1.348v.232h.052c.098-.004.195.005.29.028.104.03.203.075.293.134.106.087.202.185.288.292v3.237c0 .311-.036.431-.065.476-.074.104-.203.156-.384.156h-.214v.23h1.736v-.23h-.218a.469.469 0 01-.364-.127c-.037-.043-.083-.166-.083-.505V8.29l2.996 3.664.015.02h.201V7.97c0-.311.036-.431.067-.475.072-.106.196-.157.379-.157h.215v-.232h-1.736v.232z"/></g><defs><clipPath id="clip0_113_68"><path fill="#fff" transform="translate(210 7)" d="M0 0h28v5H0z"/></clipPath></defs></svg>