<svg width="272" height="25" fill="none" xmlns="http://www.w3.org/2000/svg"><path d="M199.961 9.736c4.038.777 6.742 3.5 9.389 6.29-2.102-7.036-7.624-8.336-14.027-8.162 5.871-2.196 15.039.306 14.947 10.438-6.953-1-7.828-1.328-9.575-3.671l3.463-.829c-.786-.881-1.367-1.621-2.04-2.27s-1.435-1.205-2.157-1.796zm-16.624-7.228c5.727 1.181 15.669 11.249 19.191 20.249-3.913-9-14.073-18.129-19.191-20.249z" fill="#fff"/><path opacity=".5" d="M183.264 24.051V1.001h-.306v23.05h.306zm-2.141-.001V1h-.306v23.05h.306zm-2.138 0V1h-.306v23.05h.306zm-2.142 0V1h-.306v23.05h.306zm-2.141 0V1h-.306v23.05h.306zm-2.142 0V1h-.305v23.05h.305zm-2.139 0V1h-.306v23.05h.306zm-2.14 0V1h-.306v23.05h.306zm-2.143 0V1h-.306v23.05h.306zm-2.14 0V1h-.306v23.05h.306zm-2.143 0V1h-.306v23.05h.306zm-2.136 0V1h-.306v23.05h.306zm-2.143 0V1h-.306v23.05h.306zm-2.14 0V1h-.306v23.05h.306zm-2.143 0V1h-.306v23.05h.306zm-2.138 0V1h-.306v23.05h.306zm-2.141 0V1h-.306v23.05h.306zm-2.142 0V1h-.306v23.05h.306zm-2.141 0V1h-.306v23.05h.306zm-2.138 0V1h-.306v23.05h.306zm-2.141 0V1h-.306v23.05h.306zm-2.142 0V1h-.306v23.05h.306zm-2.141 0V1h-.306v23.05h.306zm-2.142 0V1h-.305v23.05h.305zm-2.139 0V1h-.306v23.05h.306zm-2.14 0V1h-.306v23.05h.306zm-2.143 0V1h-.306v23.05h.306zm-2.14 0V1h-.306v23.05h.306zm-2.139 0V1h-.306v23.05h.306zm-2.14 0V1h-.306v23.05h.306zm-2.143 0V1h-.306v23.05h.306zm-2.142 0V1h-.305v23.05h.305zm-2.137 0V1h-.306v23.05h.306zm-2.142 0V1h-.306v23.05h.306zm-2.141 0V1h-.306v23.05h.306zm-2.142 0V1h-.306v23.05h.306zm-2.139 0V1h-.306v23.05h.306zm-2.14 0V1h-.306v23.05h.306zm-2.141 0V1h-.306v23.05h.306zm-2.142 0V1h-.306v23.05h.306zm-2.141 0V1h-.306v23.05h.306zm-2.138 0V1h-.306v23.05h.306zm-2.143 0V1h-.306v23.05h.306zm-2.14 0V1h-.306v23.05h.306zm-2.143 0V1h-.306v23.05h.306zm-2.138 0V1h-.306v23.05h.306zm-2.141 0V1h-.306v23.05h.306zm-2.142 0V1h-.306v23.05h.306zm-2.141 0V1h-.306v23.05h.306zm-2.138 0V1h-.306v23.05h.306zm-2.142 0V1h-.305v23.05h.306zm-2.14 0V1h-.307v23.05h.306zm-2.142 0V1h-.306v23.05h.306zm-2.138 0V1h-.306v23.05h.306zm-2.143 0V1h-.306v23.05h.306zm-2.14 0V1h-.306v23.05h.306zm-2.143 0V1h-.306v23.05h.306zm-2.14 0V1h-.306v23.05h.306zm-2.139 0V1h-.306v23.05h.306zm-2.142 0V1h-.306v23.05h.306zm-2.141 0V1h-.306v23.05h.306zm-2.142 0V1h-.306v23.05h.306zm-2.138 0V1h-.305v23.05h.305zm-2.141 0V1h-.306v23.05h.306zm-2.141 0V1h-.306v23.05h.306zm-2.142 0V1h-.306v23.05h.306zm-2.138 0V1h-.306v23.05h.306zm-2.141 0V1h-.306v23.05h.306zm-2.142 0V1h-.305v23.05h.305zm-2.141 0V1h-.306v23.05h.306zm-2.141 0V1h-.306v23.05h.306zm-2.138 0V1h-.306v23.05h.306zm-2.143 0V1h-.306v23.05h.306zm-2.14 0V1h-.306v23.05h.306zm-2.144 0V1h-.305v23.05h.306zm-2.137 0V1h-.306v23.05h.306zm-2.141 0V1h-.306v23.05h.306zm-2.142 0V1h-.306v23.05h.306zm-2.141 0V1h-.306v23.05h.306zm-2.139 0V1h-.305v23.05h.306zm-2.14 0V1h-.306v23.05h.305zm-2.142 0V1h-.306v23.05h.306zm-2.141 0V1H7.42v23.05h.306zm-2.138 0V1h-.306v23.05h.306zm-2.142 0V1h-.306v23.05h.306zm-2.141 0V1H1v23.05h.306z" fill="#fff"/><path d="M1.152 23.898V1.153h269.69v22.745H1.152z" stroke="#fff" stroke-width=".6" stroke-miterlimit="10"/><g clip-path="url(#clip0_113_292)" fill-rule="evenodd" clip-rule="evenodd" fill="#fff"><path d="M223.347 10.338h.218a.598.598 0 01.296.075c.051.027.092.07.115.123.019.048.041.166.041.451v3.025c0 .33-.039.456-.072.5-.077.1-.202.149-.38.149h-.218v.23h2.11v-.23h-.22a.585.585 0 01-.291-.077.261.261 0 01-.122-.12c-.018-.049-.04-.166-.04-.452V10.99c0-.336.04-.457.075-.502.078-.099.204-.148.378-.148h.22v-.235h-2.11v.232zm-3.27 3.361l-1.666-3.593H217v.232h.052a.907.907 0 01.393.062c.066.03.12.08.155.143.05.137.071.282.061.427v3.06c0 .31-.036.43-.067.474-.073.106-.198.157-.379.157H217v.23h1.736v-.23h-.22c-.17 0-.289-.042-.366-.127-.029-.035-.082-.146-.082-.505v-2.894l1.713 3.727.015.03h.18l1.722-3.756v2.893c0 .311-.037.431-.067.476-.071.104-.199.156-.379.156h-.218v.23h2.092v-.23h-.214c-.165 0-.291-.042-.366-.128-.032-.035-.083-.146-.083-.504v-3.06c0-.31.037-.43.067-.474.073-.106.198-.157.382-.157h.214v-.232h-1.414l-1.635 3.593zm9.508-.173a2.243 2.243 0 01-.351.623.933.933 0 01-.376.267c-.139.05-.388.076-.739.076h-.341c-.385 0-.49-.02-.52-.031a.195.195 0 01-.101-.083.93.93 0 01-.05-.37v-2.941c0-.337.028-.461.051-.506a.376.376 0 01.182-.16c.151-.052.311-.074.47-.064h.083v-.23h-2.226v.23h.228a.464.464 0 01.363.134c.038.044.083.165.083.516v3.02c0 .321-.034.44-.064.485-.075.113-.2.169-.382.169h-.228v.23h3.72l.426-1.359-.211-.046-.017.04zm4.928.992c-.1-.088-.216-.287-.344-.591l-1.628-3.896-.016-.031h-.188l-1.661 3.885c-.14.33-.267.551-.378.656-.034.033-.123.083-.353.12l-.043.009v.222h1.577v-.227h-.047c-.267-.02-.371-.062-.414-.094a.188.188 0 01-.082-.149c.015-.136.055-.268.117-.39l.305-.708h1.744l.266.643c.07.144.115.3.133.458a.187.187 0 01-.079.155c-.057.045-.174.073-.349.082h-.048v.229h1.95v-.227h-.049a.67.67 0 01-.413-.143v-.003zm-1.554-1.553h-1.453l.737-1.709.716 1.71zm11.357-2.258a2.175 2.175 0 00-1.617-.707 2.3 2.3 0 00-1.612.625c-.515.477-.777 1.102-.777 1.856 0 .743.226 1.35.672 1.816a2.3 2.3 0 002.573.514 2.3 2.3 0 00.757-.53c.457-.479.687-1.087.687-1.807 0-.701-.229-1.294-.683-1.765v-.002zm-1.682-.353c.434 0 .763.148 1.009.45.307.384.463.976.463 1.761 0 .722-.141 1.257-.419 1.59a1.32 1.32 0 01-1.05.495 1.169 1.169 0 01-.953-.45c-.319-.401-.48-.985-.48-1.734 0-.729.155-1.29.461-1.666a1.174 1.174 0 01.969-.446zm-4.306-.016h.214c.171 0 .29.04.365.127.038.043.083.165.083.505v2.559l-2.767-3.404-.016-.019h-1.347v.232h.052a1.04 1.04 0 01.289.028 1.1 1.1 0 01.294.134c.106.087.202.185.288.292v3.237c0 .311-.036.431-.066.476-.073.104-.202.156-.383.156h-.214v.23h1.736v-.23h-.218a.469.469 0 01-.364-.127c-.038-.043-.083-.166-.083-.505v-2.74l2.996 3.664.015.02h.201V10.97c0-.311.036-.431.066-.475.073-.106.197-.157.38-.157h.215v-.232h-1.736v.232z"/></g><defs><clipPath id="clip0_113_292"><path fill="#fff" transform="translate(217 10)" d="M0 0h28v5H0z"/></clipPath></defs></svg>