<svg width="324" height="18" fill="none" xmlns="http://www.w3.org/2000/svg"><path d="M238.227 6.916c3.163.612 5.271 2.754 7.342 4.917-1.643-5.507-5.959-6.516-10.964-6.382 4.589-1.716 11.756.248 11.683 8.162-5.433-.783-6.118-1.04-7.483-2.879l2.704-.648c-.611-.692-1.067-1.27-1.593-1.775-.527-.504-1.126-.933-1.689-1.395zm-12.996-5.65c4.479.917 12.237 8.792 14.99 15.828-3.047-7.036-10.991-14.173-14.99-15.828z" fill="#fff"/><path opacity=".5" d="M225.506 17.554V1h-.306v16.554h.306zm-2.136-.001V1h-.306v16.553h.306zm-2.134 0V1h-.306v16.553h.306zm-2.136 0V1h-.306v16.553h.306zm-2.134 0V1h-.306v16.553h.306zm-2.137 0V1h-.305v16.553h.305zm-2.134 0V1h-.306v16.553h.306zm-2.136 0V1h-.306v16.553h.306zm-2.136 0V1h-.306v16.553h.306zm-2.134 0V1h-.306v16.553h.306zm-2.135 0V1h-.306v16.553h.306zm-2.136 0V1h-.306v16.553h.306zm-2.134 0V1h-.306v16.553h.306zm-2.136 0V1h-.306v16.553h.306zm-2.136 0V1h-.306v16.553h.306zm-2.135 0V1h-.305v16.553h.305zm-2.136 0V1h-.306v16.553h.306zm-2.134 0V1h-.306v16.553h.306zm-2.136 0V1h-.306v16.553h.306zm-2.136 0V1h-.306v16.553h.306zm-2.134 0V1h-.306v16.553h.306zm-2.137 0V1h-.305v16.553h.305zm-2.134 0V1h-.306v16.553h.306zm-2.136 0V1h-.306v16.553h.306zm-2.134 0V1h-.306v16.553h.306zm-2.135 0V1h-.305v16.553h.305zm-2.136 0V1h-.306v16.553h.306zm-2.136 0V1h-.306v16.553h.306zm-2.134 0V1h-.306v16.553h.306zm-2.136 0V1h-.306v16.553h.306zm-2.134 0V1h-.306v16.553h.306zm-2.137 0V1h-.305v16.553h.305zm-2.136 0V1h-.306v16.553h.306zm-2.134 0V1h-.306v16.553h.306zm-2.136 0V1h-.306v16.553h.306zm-2.134 0V1h-.306v16.553h.306zm-2.136 0V1h-.306v16.553h.306zm-2.136 0V1h-.306v16.553h.306zm-2.135 0V1h-.306v16.553h.306zm-2.136 0V1h-.306v16.553h.306zm-2.132 0V1h-.306v16.553h.306zm-2.138 0V1h-.306v16.553h.306zm-2.133 0V1h-.306v16.553h.306zm-2.134 0V1h-.306v16.553h.306zm-2.136 0V1h-.306v16.553h.306zm-2.135 0V1h-.305v16.553h.305zm-2.134 0V1h-.306v16.553h.306zm-2.136 0V1h-.306v16.553h.306zm-2.136 0V1h-.306v16.553h.306zm-2.134 0V1h-.306v16.553h.306zm-2.136 0V1h-.306v16.553h.306zm-2.135 0V1h-.306v16.553h.306zm-2.136 0V1h-.306v16.553h.306zm-2.136 0V1h-.306v16.553h.306zm-2.134 0V1h-.306v16.553h.306zm-2.136 0V1h-.306v16.553h.306zm-2.135 0V1h-.306v16.553h.306zm-2.136 0V1h-.306v16.553h.306zm-2.136 0V1h-.306v16.553h.306zm-2.134 0V1h-.306v16.553h.306zm-2.137 0V1h-.305v16.553h.306zm-2.133 0V1h-.306v16.553h.306zm-2.135 0V1h-.306v16.553h.306zm-2.136 0V1h-.306v16.553h.306zm-2.134 0V1h-.306v16.553h.306zm-2.136 0V1h-.306v16.553h.306zm-2.136 0V1h-.306v16.553h.306zm-2.135 0V1h-.306v16.553h.306zm-2.135 0V1h-.307v16.553h.306zm-2.135 0V1h-.306v16.553h.306zm-2.136 0V1h-.306v16.553h.306zm-2.136 0V1h-.306v16.553h.306zm-2.135 0V1h-.305v16.553h.305zm-2.136 0V1h-.306v16.553h.306zm-2.134 0V1h-.306v16.553h.306zm-2.136 0V1h-.306v16.553h.306zm-2.136 0V1h-.306v16.553h.306zm-2.134 0V1h-.306v16.553h.306zm-2.137 0V1h-.305v16.553h.305zm-2.134 0V1h-.306v16.553h.306zm-2.134 0V1h-.306v16.553h.306zm-2.137 0V1h-.305v16.553h.306zm-2.135 0V1h-.306v16.553h.306zm-2.135 0V1h-.306v16.553h.306zm-2.136 0V1h-.306v16.553h.306zm-2.134 0V1h-.306v16.553h.306zm-2.136 0V1h-.306v16.553h.306zm-2.134 0V1h-.306v16.553h.306zm-2.137 0V1h-.306v16.553h.306zm-2.136 0V1h-.306v16.553h.306zm-2.134 0V1h-.306v16.553h.306zm-2.136 0V1h-.306v16.553h.306zm-2.134 0V1h-.306v16.553h.306zm-2.133 0V1h-.306v16.553h.306zm-2.14 0V1h-.305v16.553h.306zm-2.13 0V1h-.306v16.553h.306zm-2.136 0V1h-.306v16.553h.306zm-2.137 0V1h-.305v16.553h.305zm-2.134 0V1h-.306v16.553h.306zm-2.136 0V1h-.306v16.553h.306zm-2.134 0V1h-.306v16.553h.306zm-2.134 0V1h-.306v16.553h.306zm-2.137 0V1h-.306v16.553h.306zm-2.134 0V1h-.306v16.553h.306zm-2.136 0V1h-.306v16.553h.306zm-2.136 0V1H1v16.553h.306z" fill="#fff"/><path d="M1.16 17.4V1.153h321.67V17.4H1.159z" stroke="#fff" stroke-width=".6" stroke-miterlimit="10"/><g clip-path="url(#clip0_113_170)" fill-rule="evenodd" clip-rule="evenodd" fill="#fff"><path d="M258.347 7.338h.218a.6.6 0 01.296.075c.051.027.092.07.115.124.019.047.041.165.041.45v3.025c0 .33-.039.456-.072.5-.077.1-.202.149-.38.149h-.218v.23h2.11v-.23h-.22a.585.585 0 01-.291-.077.261.261 0 01-.122-.12c-.018-.049-.04-.166-.04-.452V7.99c0-.336.04-.457.075-.502.077-.099.204-.148.378-.148h.22v-.235h-2.11v.232zm-3.27 3.361l-1.666-3.593H252v.232h.052a.9.9 0 01.392.061.33.33 0 01.156.144c.05.137.071.282.061.427v3.06c0 .31-.036.43-.067.474-.074.106-.198.157-.379.157H252v.23h1.736v-.23h-.22c-.171 0-.29-.042-.366-.127-.029-.035-.082-.146-.082-.505V8.135l1.713 3.727.014.03h.181l1.722-3.756v2.893c0 .311-.037.431-.067.476-.071.104-.199.156-.379.156h-.218v.23h2.092v-.23h-.214c-.165 0-.291-.042-.366-.128-.032-.035-.083-.146-.083-.504V7.97c0-.31.036-.43.067-.474.073-.106.198-.157.382-.157h.214v-.232h-1.414l-1.635 3.593zm9.508-.173a2.268 2.268 0 01-.351.623.933.933 0 01-.376.267c-.139.05-.388.076-.739.076h-.341c-.385 0-.49-.02-.52-.031a.195.195 0 01-.101-.083.912.912 0 01-.05-.37V8.066c0-.336.028-.46.051-.505a.376.376 0 01.182-.16c.151-.052.31-.074.47-.064h.083v-.23h-2.226v.23h.228a.465.465 0 01.363.134c.038.044.083.165.083.516v3.02c0 .321-.034.44-.064.485-.075.113-.2.169-.382.169h-.228v.23h3.72l.426-1.359-.211-.046-.017.04zm4.928.992c-.1-.088-.216-.287-.344-.591l-1.628-3.896-.016-.031h-.188l-1.661 3.885c-.14.33-.267.551-.378.656-.034.033-.123.083-.354.12l-.042.009v.222h1.577v-.227h-.047c-.267-.02-.372-.062-.414-.094a.188.188 0 01-.082-.149c.015-.136.055-.268.117-.39l.305-.708h1.743l.267.643c.07.144.115.3.133.458a.187.187 0 01-.079.155c-.057.045-.174.073-.349.082h-.048v.229h1.95v-.227h-.049a.67.67 0 01-.413-.143v-.003zm-1.554-1.553h-1.453l.737-1.709.716 1.71zm11.357-2.258A2.184 2.184 0 00277.699 7a2.298 2.298 0 00-1.612.625c-.515.477-.777 1.102-.777 1.856 0 .743.226 1.35.672 1.816a2.3 2.3 0 002.573.514 2.31 2.31 0 00.757-.53c.457-.479.687-1.087.687-1.807 0-.701-.229-1.294-.683-1.765v-.002zm-1.683-.353c.434 0 .764.148 1.01.45.307.384.463.976.463 1.761 0 .722-.141 1.257-.419 1.59a1.323 1.323 0 01-1.05.495 1.169 1.169 0 01-.953-.45c-.319-.401-.48-.985-.48-1.734 0-.729.155-1.29.461-1.666a1.173 1.173 0 01.968-.446zm-4.305-.016h.214c.171 0 .29.04.365.127.038.043.083.165.083.505v2.559l-2.767-3.404-.016-.019h-1.347v.232h.052a1.04 1.04 0 01.289.028 1.1 1.1 0 01.294.134c.106.087.202.185.287.292v3.237c0 .311-.035.431-.065.476-.073.104-.202.156-.383.156h-.214v.23h1.735v-.23h-.217a.469.469 0 01-.364-.127c-.038-.043-.083-.166-.083-.505V8.29l2.996 3.664.015.02h.2V7.97c0-.311.037-.431.067-.475.073-.106.197-.157.38-.157h.215v-.232h-1.736v.232z"/></g><defs><clipPath id="clip0_113_170"><path fill="#fff" transform="translate(252 7)" d="M0 0h28v5H0z"/></clipPath></defs></svg>