<svg width="777" height="625" viewBox="0 0 777 625" fill="none" xmlns="http://www.w3.org/2000/svg">
<g filter="url(#filter0_d_146_4)">
<path d="M451.299 178.054C452.219 179.07 452.955 180.686 454.076 181.015C463.55 183.783 464.662 188.416 458.685 196.714C457.436 198.442 456.62 200.627 455.052 201.923C451.851 204.524 451.299 207.749 452.323 211.221C453.484 215.166 451.747 218.151 450.067 221.32C448.466 224.336 446.994 227.409 445.538 230.49C444.562 232.53 444.041 234.875 442.737 236.643C439.832 240.556 440.625 244.325 442.409 248.254C442.833 249.182 443.633 250.526 443.289 251.134C441.201 254.839 439.368 258.92 436.416 261.833C433.095 265.114 428.622 267.202 424.797 270.019C423.589 270.915 422.885 272.483 421.292 274.636C419.644 274.004 417.291 273.195 415.019 272.115C414.755 271.987 415.227 270.339 415.395 269.154L409.794 266.706C408.994 271.507 411.45 274.668 417.147 276.628C418.748 277.172 420.172 278.132 421.74 278.741C422.493 279.029 424.029 279.181 424.141 278.949C425.869 274.74 430.654 276.356 433.295 274.028C434.895 272.603 436.496 271.123 438.008 269.611C438.456 269.17 438.616 268.186 439.088 268.01C445.274 266.21 445.01 260.769 445.762 256.055C446.514 251.342 448.514 249.254 453.164 249.246H461.229C461.629 254.239 462.03 259.008 462.374 263.601L465.262 262.313C465.262 255.839 465.342 249.446 458.221 246.205C457.552 245.785 456.831 245.454 456.076 245.221C453.019 244.773 449.947 244.421 446.57 244.053C448.234 238.628 449.563 233.81 451.227 229.121C451.864 227.245 452.965 225.561 454.428 224.224C457.3 221.824 457.524 219.087 456.828 215.654C455.284 208.197 458.285 201.907 466.334 200.315C468.223 199.939 469.967 197.226 471.136 195.218C472.192 193.377 472.36 191.033 473.144 188.08C474.064 189.44 474.832 190.065 474.744 190.601C474.416 193.873 474.32 197.266 473.328 200.347C472.592 202.611 470.295 204.348 469.271 206.556C468.335 208.589 468.175 210.981 467.543 213.806C469.087 214.886 471.104 216.383 473.2 217.735C475.369 219.177 477.711 220.341 480.17 221.2C479.369 220.159 478.833 218.703 477.769 218.159C473.904 216.102 471.584 210.389 473.768 206.724C474.472 205.556 476.529 205.124 478.033 204.556C479.537 203.988 481.234 203.556 483.85 202.779L478.345 199.403C481.114 198.602 483.146 197.762 485.163 197.634C485.539 197.634 486.107 200.379 486.643 202.035C492.572 201.651 494.829 206.692 496.901 211.085C498.374 214.198 499.382 216.687 503.303 216.887C504.551 216.951 505.743 218.151 506.239 218.423C505.575 216.062 504.983 213.334 503.991 210.765C503.364 209.524 502.46 208.443 501.35 207.605C499.206 205.724 497.446 204.044 498.774 200.643C499.678 198.346 499.366 195.61 499.886 193.129C500.406 190.649 501.294 188.216 501.838 186.376L532.357 188.912C535.366 184.175 530.861 182.695 529.157 179.91L532.91 178.102L529.797 173.965L530.397 173.165L534.87 174.477L538.335 170.652L536.406 168.46C536.822 168.148 537.022 167.876 537.206 167.884C540.349 168.064 543.465 167.222 546.089 165.483C548.705 163.787 552.218 163.419 555.395 162.674C559.211 161.77 563.084 161.074 567.397 160.21L564.453 157.897C568.822 153.984 576.455 155.497 579.288 158.297C581.993 160.914 584.249 159.546 586.586 158.169C588.199 157.102 589.751 155.945 591.235 154.705C591.107 153.976 590.891 152.776 590.683 151.608C593.163 151.457 595.633 151.177 598.084 150.768C598.52 150.564 598.899 150.254 599.185 149.867C599.471 149.48 599.657 149.028 599.725 148.551C599.781 143.206 605.774 133.348 610.463 131.275C613.992 129.675 618.089 131.507 621.666 136.268L616.28 140.629C617.449 141.232 618.651 141.766 619.881 142.23C621.338 142.67 622.866 142.894 624.89 143.326C624.985 144.771 624.969 146.221 624.842 147.663C624.471 149.224 623.982 150.754 623.378 152.24C624.378 151.952 625.114 151.92 625.186 151.688C626.403 147.775 629.355 147.007 632.972 146.999C634.773 146.999 636.645 145.967 638.349 146.239C640.406 146.567 642.35 147.791 644.287 148.639L644.047 149.807L646.711 148.015C650.152 155.049 655.945 161.122 653.865 169.772C653.319 171.902 652.409 173.921 651.176 175.741C646.039 183.495 637.853 188.752 633.476 197.202C632.756 198.594 630.892 199.363 629.659 200.523C626.883 203.14 624.17 205.82 621.706 208.213H631.012L640.286 201.347C636.429 198.875 636.589 195.506 640.462 194.394C641.795 194.083 643.158 193.917 644.527 193.897C646.567 195.618 647.911 197.338 649.632 197.898C650.392 198.146 651.928 196.074 653.537 194.698L657.09 200.147C664.651 193.929 673.333 197.138 682.439 197.578L679.639 203.132C686.144 201.947 691.425 206.788 697.355 203.196C698.803 202.315 700.771 202.299 702.956 201.771C702.412 197.282 701.54 192.169 706.293 187.752C711.094 188.504 716.439 194.057 721.72 188.872C725.193 190.873 728.29 192.569 731.274 194.474C732.146 195.061 732.821 195.898 733.211 196.874C734.637 200.361 735.884 203.918 736.948 207.533C737.268 208.685 736.476 210.149 736.772 211.269C736.988 213.134 736.668 215.326 737.572 216.799C739.157 219.535 741.21 221.972 743.637 224C745.486 225.457 748.222 225.777 750.951 226.737C751.751 219.639 752.455 212.67 753.351 204.644L755.752 207.428C753.775 209.117 755.416 210.197 756.64 210.629C758.622 211.416 760.743 211.789 762.873 211.725C764.066 211.629 765.45 210.213 766.194 209.037C767.955 206.276 769.843 205.036 773.396 205.836C774.996 206.188 777.069 204.34 778.997 203.66C782.07 202.571 785.19 201.635 788.551 200.547L782.486 191.353L780.75 191.185C782.398 189.104 783.846 186.816 785.751 185.007C787.463 183.407 787.567 183.015 784.086 179.454L814.389 172.453C814.533 172.893 814.677 173.341 814.829 173.781L805.579 179.422L806.131 180.294L815.101 175.037C816.87 178.062 809.812 179.038 814.141 182.479C815.405 180.078 816.742 177.678 817.982 175.205C821.679 167.852 827.888 167.123 833.185 173.517L830.417 176.518C833.617 176.373 836.29 175.853 838.867 176.237C842.239 176.657 845.531 177.571 848.637 178.95C851.782 180.454 854.358 179.934 856.07 177.526C861.096 170.468 868.873 167.195 875.819 162.922C877.523 161.874 880.524 162.738 882.901 163.018C887.398 163.539 890.822 165.379 892.327 170.22C892.615 171.148 895.471 171.428 897.192 171.716C898.74 171.855 900.298 171.871 901.849 171.764C904.834 167.9 908.202 163.491 911.675 159.17C911.955 158.81 913.011 159.17 913.652 158.994C915.025 158.7 916.366 158.269 917.653 157.705C919.883 156.658 922.024 155.429 924.054 154.032C925.055 153.278 925.749 152.187 926.006 150.96C926.342 148.639 925.798 146.159 926.39 143.942C926.782 142.486 928.335 141.086 929.719 140.229C931.408 139.205 933.312 139.173 934.336 141.542C934.781 142.333 935.292 143.085 935.865 143.79L932.272 147.135C933.992 149.767 936.273 149.671 939.217 148.807C940.978 148.295 943.218 149.463 945.275 149.871C948.579 142.67 946.939 140.333 938.361 139.469L935.08 131.715C937.969 129.955 941.482 128.147 944.619 125.826C948.035 123.289 951.02 120.177 954.333 117.504C956.321 115.874 958.484 114.471 960.782 113.319C964.671 111.439 968.712 109.838 972.729 108.214C973.827 107.875 974.951 107.626 976.09 107.47C979.37 106.75 982.651 106.046 985.916 105.293C986.948 105.053 988.124 104.165 988.933 104.445C994.15 106.302 998.575 103.645 1003.39 102.629C1007.18 101.829 1010.69 100.3 1014.31 99.4841C1017.33 98.7959 1020.96 100.764 1024.32 101.557C1027.15 102.917 1028.5 108.07 1032.79 105.165C1031.42 101.164 1028.3 100.62 1024.68 101.164C1026.95 99.252 1027.51 95.2912 1031.53 95.4192C1031.78 95.4192 1032.19 94.8831 1032.28 94.539C1033.83 88.7537 1038.37 89.0657 1043.02 88.7697C1046.66 88.5376 1050.22 87.1693 1053.57 86.3691C1054.55 89.2018 1055.55 92.1144 1056.84 95.8753C1056.18 97.6757 1055.12 100.62 1053.91 103.973C1056.56 105.173 1059.51 107.174 1058.92 111.815C1058.85 112.319 1060.64 113.287 1061.71 113.663C1062.51 113.943 1063.46 113.591 1064.36 113.527C1064.42 121.937 1064.24 122.073 1055.76 122.529C1054.87 122.529 1053.99 123.474 1053.16 124.074C1049.51 126.714 1045.96 128.403 1041.54 125.25C1038.79 123.297 1035.35 125.458 1033.28 129.771C1032.12 132.171 1030.81 134.516 1029.23 137.533C1028 135.444 1027.33 134.332 1026.49 132.916C1023.83 133.98 1021.37 133.996 1020.21 129.971C1019.63 131.683 1018.15 134.564 1018.61 134.916C1020.64 136.46 1023.21 137.317 1026.45 138.749C1031.98 149.783 1029.17 159.842 1020.48 160.818C1024.69 165.683 1026.03 165.683 1028.91 160.354C1031.77 161.866 1034.6 163.555 1037.58 164.875C1040.3 166.099 1043.18 166.987 1047.37 168.524C1048.7 170.516 1055.92 170.252 1054.18 176.95C1054.01 177.142 1053.87 177.422 1053.65 177.51C1043.13 181.591 1040.77 190.585 1039.78 200.443C1039.57 201.889 1039.14 203.295 1038.51 204.612C1036.03 210.277 1036.2 216.174 1036.46 222.216C1036.7 225.828 1036.3 229.455 1035.29 232.93C1034.29 236.003 1034.25 238.452 1035.95 241.084C1036.36 241.716 1036.39 242.58 1036.75 243.837C1035.39 243.901 1034 244.413 1033.22 243.925C1028.42 240.972 1023.72 242.933 1020.94 245.965C1018.16 248.998 1017.29 253.967 1016.05 258.168C1015.46 260.2 1015.95 262.553 1015.95 265.978L1010.68 258.776C1009.98 260.448 1009.47 261.761 1008.87 263.017C1008.18 264.433 1007.14 265.61 1009.06 267.138C1009.61 267.586 1008.86 269.667 1008.71 271.003L1007.73 270.147C1006.23 270.867 1004.37 271.243 1003.34 272.379C1001.33 274.588 1000.55 277.724 1002.61 280.021C1005.18 282.878 1005.47 286.006 1005.48 289.423C1005.48 294.704 1007.34 300.45 1008.94 302.05C1011.99 301.33 1014.39 300.233 1016.63 300.49C1017.59 300.602 1018.16 303.57 1019.04 305.179C1020.04 307.269 1021.24 309.265 1022.6 311.14C1023.03 311.676 1024.7 311.22 1026.01 311.22C1026.99 312.132 1028.29 313.428 1029.67 314.629C1032.07 316.717 1031.78 318.854 1029.1 320.374C1028.09 320.969 1027.35 321.937 1027.05 323.071C1026.04 328.728 1027.98 333.241 1033 336.17C1035.05 337.37 1036.62 338.938 1035.62 341.227C1034.86 342.971 1035.62 346.284 1031.61 345.868C1030.77 345.78 1028.96 348.548 1028.74 350.157C1028.07 355.03 1028.74 359.703 1033.06 363.056C1034.14 363.896 1035.07 364.944 1034.76 365.792C1032.82 369.169 1030.76 372.466 1029.07 375.979C1028.67 376.819 1029.43 378.635 1030.21 379.523C1034.38 384.324 1033.81 389.582 1032.44 395.167C1031.53 398.84 1031.17 402.657 1029.46 407.17C1026.73 404.345 1023.86 401.568 1021.27 398.656C1019.32 396.495 1017.84 393.855 1015.74 391.886C1005.34 382.06 995.734 371.53 987.996 359.463C985.184 355.126 982.896 350.471 981.179 345.596C980.267 342.931 981.123 339.61 981.379 336.61C981.683 332.897 980.987 329.76 977.21 328.208C983.451 323.407 984.652 316.573 985.388 309.74C985.724 306.611 986.796 303.266 984.676 300.041C983.971 298.961 984.428 296.841 984.828 295.352C986.473 289.142 987.185 282.72 986.94 276.3C986.828 272.459 989.341 268.538 991.021 263.665C988.5 259.176 985.156 253.743 982.419 248.022C981.547 246.189 982.283 243.589 982.283 240.348L976.458 246.325C979.274 249.118 977.13 255.239 983.515 255.687C983.579 256.88 983.643 258.024 983.707 259.176C983.203 259.408 982.835 259.728 982.507 259.688C980.107 259.424 979.306 260.665 978.93 262.889C977.77 269.635 976.418 276.34 974.929 284.142C973.913 281.541 973.329 280.077 972.889 278.949C965.319 279.037 968.152 272.011 965.391 268.466C964.655 269.843 964.079 270.923 963.367 272.275C959.47 269.691 957.589 272.099 955.629 275.196C953.797 278.076 951.396 280.589 949.3 283.31C948.908 283.814 948.395 284.798 948.595 285.086C950.812 288.151 949.284 291.487 949.292 294.648C949.292 297.577 949.444 300.738 948.435 303.386C946.779 307.763 946.603 311.644 949.236 315.613C949.62 316.197 949.412 317.157 949.484 318.013C950.588 317.077 951.636 315.485 952.628 315.517C954.149 315.565 956.261 316.357 956.965 317.533C957.669 318.71 957.814 320.734 955.013 321.494C952.212 322.254 947.811 323.855 947.611 325.567C946.859 330.992 941.714 331.505 939.217 334.753C938.417 335.801 936.617 336.226 935.216 336.57C934.952 336.634 933.784 334.857 933.888 334.049C934.032 332.977 935.024 332.017 935.657 331C931.976 328.272 932.04 328.32 929.311 331.801C928.839 332.393 927.559 332.537 926.655 332.529C925.75 332.521 924.598 331.729 923.678 331.929C917.788 333.001 916.772 334.825 918.733 340.731L902.177 348.676C902.017 349.341 901.641 350.941 901.233 352.677C893.839 347.876 889.358 354.23 884.429 356.87C878.668 359.983 876.555 365.808 875.043 372.538C872.762 382.676 868.257 392.302 864.68 402.145C864.456 402.753 863.76 403.281 863.744 403.857C863.336 416.66 855.742 426.566 850.141 437.248C850.054 437.508 849.997 437.776 849.973 438.049C853.974 441.825 857.287 437.584 861.464 436.984L866.561 446.13C867.521 443.634 868.457 441.185 869.394 438.737L870.914 439.209C870.674 440.345 870.442 441.473 870.114 442.874L874.115 442.073L872.098 447.363C877.043 444.546 879.388 440.025 878.083 436.664C880.132 435.504 882.036 433.776 884.181 433.4C886.325 433.023 888.758 433.688 890.774 434.568C894.039 435.992 896.88 438.705 900.233 439.521C904.433 440.553 904.898 442.322 903.297 445.042L908.826 453.148L910.331 452.348C909.163 448.763 908.386 444.986 906.746 441.625C904.201 436.424 904.257 435.824 909.803 434.424C909.851 430.199 908.891 426.574 904.009 425.446L907.018 420.685C913.043 428.582 920.141 435.528 922.117 445.698C922.702 448.715 923.606 451.26 926.727 452.612C927.719 453.044 928.383 454.276 929.127 455.188C935.721 463.022 942.234 470.928 948.94 478.666C950.62 480.602 952.94 482.027 954.541 484.355C952.596 483.555 950.708 482.259 948.683 481.955C946.339 481.634 943.546 481.506 941.57 482.523C939.593 483.539 939.329 486.099 940.482 488.532C941.01 489.636 940.746 491.157 940.722 492.485C940.53 501.351 945.419 507.8 952.828 510.489C958.766 512.641 957.958 517.21 960.606 520.363L959.598 521.163C958.865 520.192 958.063 519.275 957.197 518.419C955.237 516.73 952.74 515.842 950.692 517.619C949.7 518.475 949.828 520.819 949.7 522.46C949.548 524.492 949.7 526.557 949.7 528.605L948.291 528.861C946.827 526.717 944.891 524.748 943.994 522.388C941.866 516.786 940.474 510.913 938.289 505.344C937.073 502.255 934.872 499.551 933.12 496.678C932.384 495.478 931.392 494.373 930.935 493.077C928.991 487.556 927.423 481.874 925.278 476.449C923.854 472.848 921.389 469.696 921.277 465.535C921.277 464.495 919.925 463.35 918.973 462.518C916.188 460.118 913.283 457.829 910.403 455.477C910.403 460.174 909.515 465.335 910.595 470.032C912.667 479.01 916.196 487.636 918.469 496.582C919.684 500.904 919.731 505.471 918.605 509.817C916.636 517.21 916.02 524.964 914.756 532.55C913.956 537.135 913.532 541.848 912.123 546.249C908.634 557.18 904.85 567.982 901.809 579.056C899.528 587.346 893.479 594.036 886.277 599.197C885.533 599.725 884.749 600.197 884.677 600.269L876.299 599.245C876.155 598.669 875.899 597.645 875.659 596.748C873.258 596.38 869.466 601.942 868.625 606.863L866.129 607.239C865.569 609.135 865.081 610.808 864.44 613C863 610.696 862.04 608.999 860.904 607.399C860.656 607.039 859.975 606.975 859.223 606.663C859.791 605.702 860.095 604.39 860.824 604.022C865.489 601.782 864.736 597.909 863.664 594.268C861.952 588.459 859.815 582.777 857.943 577.296C859.039 575.36 859.999 573.087 861.496 571.239C862.296 570.254 863.944 569.718 865.289 569.494C867.151 569.334 869.022 569.293 870.89 569.374C873.21 569.31 875.091 569.182 874.315 565.725C873.875 563.773 875.059 561.517 875.115 559.388C875.187 553.059 874.859 546.729 875.115 540.408C875.211 537.415 876.179 534.446 876.907 530.678L873.01 524.572C872.074 525.028 869.858 525.372 869.314 526.525C867.793 529.725 864.929 531.134 862.312 532.926C861.872 533.222 861.112 533.446 861.032 533.822C859.511 540.496 852.95 539.512 848.605 541.696C847.469 542.272 844.22 540.6 843.212 539.103C841.011 535.823 839.619 531.99 837.922 528.429C834.826 527.341 831.593 525.66 828.176 525.116C824.023 524.468 819.566 524.036 815.533 524.884C811.645 525.684 809.644 525.004 808.108 521.499C806.94 518.819 805.54 516.246 803.923 513.81C800.938 509.353 797.649 505.104 794.625 500.671C793.232 498.63 792.36 496.206 790.872 494.269C789.023 491.821 786.799 489.652 784.71 487.396C782.406 484.891 779.821 484.339 776.661 485.923C775.964 486.276 774.612 485.579 773.668 485.123C769.075 483.011 764.866 482.915 759.681 484.419C755.592 485.611 751.679 486.74 747.902 488.74C743.941 490.845 741.853 494.285 739.9 497.95C747.726 503.695 746.966 503.343 742.861 512.353C740.172 518.235 740.164 525.332 738.756 531.838C738.365 533.42 737.577 534.877 736.468 536.071C734.147 538.599 731.538 540.872 729.09 543.272C726.265 546.041 722.768 544.409 720.68 543.2C716.487 540.8 712.518 540.752 708.109 541.432C706.535 541.617 704.94 541.385 703.484 540.76C696.362 537.759 692.041 539.231 687.937 545.721C686.69 547.447 684.977 548.782 682.999 549.57C678.142 551.658 673.173 553.507 668.14 555.115C665.905 555.794 663.563 556.046 661.234 555.859C656.593 555.499 651.632 555.539 647.439 553.915C642.966 552.202 639.654 548.314 637.997 542.712C637.477 544.353 637.133 545.465 636.965 546.001C633.084 544.713 629.259 543.664 625.626 542.176C621.169 540.344 616.977 540.92 612.528 542.288C604.774 544.689 597.54 542.608 592.611 534.926C591.939 533.966 591.604 532.809 591.659 531.638C592.211 528.109 590.234 527.301 587.386 526.301C582.927 524.605 578.572 522.65 574.343 520.443C571.718 519.163 569.23 517.595 566.837 516.242C564.765 517.939 562.836 519.443 560.924 521.099C556.659 524.764 556.499 529.453 558.659 535.255C559.396 537.247 557.331 540.816 555.667 542.992C554.338 544.729 551.666 545.449 549.721 546.561C545.408 543.653 540.295 542.162 535.094 542.296C532.765 542.296 530.453 541.192 528.1 540.824C524.628 540.28 525.892 536.999 524.628 535.223C524.007 534.186 523.12 533.335 522.059 532.758C518.898 531.454 515.105 532.83 512.353 528.965C510.64 526.565 506.6 528.741 503.663 529.133C500.726 529.525 497.718 530.469 494.173 531.302L493.413 534.062C491.846 534.015 490.278 534.122 488.732 534.382C487.275 534.75 485.211 535.311 484.731 536.391C482.522 541.192 478.441 540.392 474.624 540.16C472.52 540.048 470.799 539.672 468.911 541.464C466.639 543.624 462.846 542.72 460.997 540.184C459.597 538.255 458.229 536.295 456.996 534.534C454.668 534.414 452.363 534.534 450.179 534.134C446.674 533.438 445.474 530.702 444.217 527.533C442.087 522.388 439.519 517.436 436.544 512.729C435.696 511.353 433.015 510.009 431.503 510.329C422.565 512.097 417.427 510.857 414.043 501.527L406.337 505.528C404.32 495.27 402.032 485.947 400.736 476.481C399.703 468.816 396.263 462.366 392.654 455.861C391.59 453.948 391.094 452.444 393.998 451.524L393.358 450.587C392.126 450.979 390.909 451.388 389.661 451.756C384.788 453.092 379.931 454.468 375.018 455.629C374.002 455.869 372.729 455.405 371.673 455.02C370.617 454.636 369.633 453.636 368.512 453.356C363.671 452.14 363.663 452.204 366.528 447.755C366.667 447.461 366.78 447.156 366.864 446.843L364.367 444.146L360.471 445.53C360.551 442.13 360.263 439.529 355.669 439.929C353.101 440.161 352.101 436.216 352.997 433.568C353.989 430.623 354.245 427.43 354.685 424.318C354.757 423.821 353.981 422.717 353.757 422.717C350.068 423.405 349.132 419.836 346.835 418.428C343.307 416.26 339.53 415.796 335.633 417.7C334.829 418.12 333.918 418.293 333.016 418.196C327.047 417.084 321.126 415.74 315.14 414.747C313.428 414.467 311.556 415.131 310.219 415.299L288.662 410.538V411.299L279.86 405.825L276.332 409.082L279.788 411.115L276.26 413.291L280.741 421.949C277.86 420.397 275.851 418.812 273.603 418.276C272.139 417.924 269.354 418.612 268.802 419.676C265.785 425.598 265.961 425.686 258.544 425.278C260.864 430.031 262.945 434.288 265.049 438.577C259.384 444.978 254.047 445.25 250.214 439.249C245.805 440.649 239.395 436.048 239.603 431.655C239.747 428.406 237.675 425.798 234.666 426.254C232.202 426.622 231.305 425.926 230.137 423.853C228.625 421.149 223.736 420.421 220.655 421.869C217.574 423.317 214.63 421.333 213.229 416.964C213.053 416.255 212.917 415.536 212.821 414.811L209.004 416.876C208.268 412.467 207.724 408.234 206.796 404.073C206.444 402.513 205.532 400.336 204.323 399.864C201.291 398.696 200.49 396.663 200.706 393.551C198.954 393.35 197.186 393.599 195.905 392.902C194.465 392.102 193.593 390.318 192.257 389.238C190.92 388.157 188.632 386.229 187.88 386.653C184.735 388.437 181.958 387.253 179.006 386.653C178.093 386.469 176.605 386.421 176.197 386.941C173.508 390.494 170.372 389.022 166.923 388.029C166.163 391.854 164.162 394.695 159.721 394.879C158.921 391.534 158.121 388.077 157.225 384.388C151.511 387.149 144.198 386.541 144.262 394.455C142.165 395.375 140.373 396.127 138.612 396.943C136.524 397.912 136.084 399.344 136.42 401.744C136.756 404.145 135.78 406.938 135.324 409.906C141.461 411.827 140.613 417.516 140.125 422.629C139.805 425.734 141.333 430.111 136.196 431.351L136.86 435.472L128.058 440.385C125.826 437.328 120.896 435.888 117.176 437.312C113.023 438.913 108.862 440.513 104.645 442.114C105.061 446.058 105.445 450.115 105.965 454.692C105.408 454.958 104.872 455.269 104.365 455.621C100.908 458.077 97.2911 460.302 97.5471 465.495C97.7312 469.2 97.027 472.952 97.2031 476.657C97.3471 479.738 95.7067 481.082 93.2822 481.786C91.1311 482.442 88.904 482.816 86.6567 482.899C86.0662 482.838 85.4964 482.648 84.9875 482.342C84.4787 482.037 84.0432 481.623 83.712 481.13C82.7828 479.679 82.187 478.039 81.9676 476.329C81.4955 471.904 80.5593 467.759 78.0867 463.902C76.4864 461.39 74.886 458.301 79.103 455.949C76.8945 452.892 75.0061 450.219 73.0376 447.595C72.5415 446.939 71.8613 446.05 71.1812 445.994C67.1803 445.506 65.78 443.002 65.2198 439.393C64.2436 433.143 61.2189 427.982 56.7619 423.477C54.7615 421.469 53.4972 418.676 52.0649 416.14C49.9924 412.475 48.6001 411.291 45.7835 410.754C43.3829 397.583 41.0624 384.693 38.6938 371.546L42.1426 369.681C41.9666 369.489 42.4067 369.793 42.6147 370.209C44.2151 373.498 46.3916 375.01 50.2485 373.45C52.4089 372.562 54.9455 372.602 57.202 371.89C57.9222 371.658 58.6183 370.377 58.7464 369.489C58.8851 367.951 58.9065 366.405 58.8104 364.864L73.1336 369.249L73.5817 368.129L66.3801 363.896C70.381 357.83 76.1343 357.951 81.3915 362.352C85.3204 365.64 88.7292 364.456 90.2575 359.535C90.7776 357.862 92.8581 356.646 93.2582 354.982C94.1064 351.501 96.1708 353.005 98.1873 353.045C99.2515 353.045 100.332 351.909 100.916 351.573C100.004 349.173 99.3155 347.292 98.5794 345.428C97.131 341.755 96.4509 337.762 92.7381 335.185C91.7298 334.481 91.4578 331.745 91.8499 330.192C92.602 327.224 91.3377 326.191 88.9292 325.151C87.4969 324.511 86.3686 322.935 85.4084 321.558C84.0081 319.558 82.8878 317.357 81.4075 314.853C84.8963 310.052 88.113 304.666 80.9194 298.681C83.568 296.897 85.7765 295.696 87.6169 294.08C90.2895 291.744 89.7694 285.534 86.4486 283.494C83.784 281.893 82.2237 278.541 78.1828 278.693C75.9023 278.789 75.1661 276.756 76.8385 274.492C78.8629 271.763 80.4073 268.642 82.6718 266.162C83.3199 265.45 85.9285 265.946 87.3048 266.602C89.4973 267.642 91.4178 269.266 94.3384 271.243V261.457L94.0424 261.545C94.4905 259.52 94.8425 257.472 95.4027 255.463C96.5149 251.262 96.875 246.845 101.148 244.021C106.597 240.42 107.477 238.211 105.461 234.011C104.661 232.322 102.708 231.17 101.004 229.489C103.597 226.609 100.444 223.8 99.5636 220.687C99.3556 219.951 98.6354 218.951 98.8914 218.559C101.292 214.95 103.388 210.957 106.501 208.077C108.806 205.932 110.734 204.244 110.254 200.683C112.991 200.195 115.551 197.914 118.632 200.939C117.424 196.834 118.672 194.538 123.097 194.754C123.164 194.75 123.229 194.731 123.288 194.697C123.346 194.664 123.396 194.618 123.433 194.562C126.146 189.136 132.947 189.76 136.516 185.664L146.646 190.065C146.806 186.536 146.934 183.823 147.094 180.39L143.718 177.238C146.07 176.926 147.51 176.542 148.943 176.582C152.944 176.694 156.945 177.382 160.865 177.11C169.611 176.493 178.325 175.429 187.143 174.533C187.944 168.988 188.656 164.011 189.392 158.882C196.866 158.649 197.466 152.224 200.378 147.487C202.323 144.334 205.916 141.182 209.372 140.221C214.173 138.901 215.598 135.492 217.726 132.075C219.345 129.269 221.293 126.667 223.528 124.322C224.864 123.017 227.168 122.409 229.129 122.113C231.793 121.705 233.65 120.953 234.002 117.936C234.306 115.296 234.21 112.247 235.53 110.167C237.627 106.878 240.739 104.229 243.468 101.365C243.652 101.172 244.268 101.365 244.636 101.365C247.925 101.813 251.198 102.381 254.503 102.685C255.551 102.781 256.663 102.181 257.847 101.885L259.448 104.133C260.248 103.469 260.928 102.917 261.848 102.165C262.648 105.149 263.929 107.35 267.45 105.902C268.178 108.502 268.81 110.767 269.57 113.463L265.417 112.735C265.969 114.896 266.521 117.032 267.073 119.137C270.138 124.738 275.467 129.059 274.979 137.093C274.69 143.164 275.482 149.238 277.316 155.033C278.116 157.641 278.18 159.45 277.356 161.69C277.308 161.81 277.212 162.002 277.26 162.066C281.013 166.947 275.515 169.748 274.611 173.573C274.313 174.306 273.762 174.907 273.059 175.269C265.929 179.27 258.76 178.414 251.646 175.221C250.99 174.784 250.46 174.183 250.11 173.477C247.325 169.1 244.212 164.891 241.94 160.258C240.339 156.969 239.867 153.112 238.923 149.495C238.691 148.607 238.811 147.575 238.411 146.791C237.499 145.03 236.371 143.382 235.386 141.774C235.098 144.054 234.738 146.863 234.33 150.104L232.458 150.616C232.866 151.912 233.258 153.016 233.578 154.16C234.802 158.489 233.338 162.306 229.305 163.995C223.984 166.227 223.208 172.052 219.583 175.581C219.547 175.638 219.524 175.702 219.517 175.769C219.51 175.835 219.519 175.903 219.543 175.965C221.599 179.87 220.623 184.207 221.375 188.256C221.703 190.057 223.824 192.481 225.488 192.801C226.936 193.081 228.881 190.809 230.753 189.6C228.153 187.144 227.617 180.798 229.313 178.558C231.153 176.157 234.034 176.157 235.714 178.822C236.683 180.35 237.907 182.287 237.707 183.863C237.219 187.744 239.779 190.265 241.252 193.169C241.924 194.482 244.532 194.77 246.677 195.754C247.229 193.761 247.317 191.441 248.453 189.897C249.974 187.824 252.054 185.552 254.359 184.783C259.872 182.959 265.881 186.552 271.538 183.823C271.827 183.679 273.139 184.775 273.347 185.48C274.147 188.32 277.828 190.361 275.747 193.985C276.484 194.258 277.732 194.938 277.9 194.73C280.821 191.185 287.086 190.153 286.246 183.687C286.126 182.735 287.046 181.607 287.646 180.638C287.894 180.206 288.446 179.95 288.854 179.606C293.703 175.541 300.409 172.605 298.208 164.187C301.265 167.66 304.762 170.86 307.194 174.733C308.387 176.622 308.275 179.966 307.531 182.255C306.834 184.407 304.882 186.808 301.761 184.199C298.513 181.495 295.88 183.815 293.952 184.911C293.631 187.952 293.279 190.265 293.191 192.585C293.124 193.559 293.408 194.524 293.992 195.306C297.576 199.083 300.817 199.107 304.602 195.706C306.082 194.37 307.723 193.217 309.323 191.961L312.468 193.737C312.532 193.401 312.596 193.065 312.668 192.729C314.1 192.865 315.532 192.985 316.965 193.137C318.941 193.353 320.918 193.665 322.894 193.817C327.183 194.145 331.48 194.418 335.777 194.682C336.945 194.754 338.129 194.682 339.298 194.738C342.899 194.89 346.499 195.074 350.772 195.274L342.45 203.011L339.562 202.211C340.946 203.812 341.762 205.516 343.059 206.052C344.355 206.588 345.715 207.709 347.748 206.468C350.692 204.66 356.006 206.332 358.734 208.725C359.931 209.566 361.345 210.044 362.807 210.101C365.036 210.271 367.274 210.284 369.505 210.141C373.233 209.973 373.906 212.206 373.762 214.63L369.529 218.703L370.329 219.671C370.921 219.527 371.729 219.575 372.081 219.199C372.706 218.403 373.551 217.809 374.512 217.491C375.473 217.174 376.506 217.147 377.482 217.415C379.883 217.847 381.923 216.439 381.931 213.246C381.931 210.181 382.387 207.116 382.66 203.908C381.515 201.363 379.683 198.514 379.075 195.434C378.771 193.833 380.579 191.801 381.691 190.145C381.811 189.969 384.356 190.721 384.636 191.465C385.73 194.304 386.505 197.256 386.949 200.267C387.117 201.491 385.98 202.891 385.732 203.468C387.333 204.268 389.197 204.812 390.605 205.916C395.959 210.077 400.632 214.518 403.56 221.12C405.009 224.408 408.914 226.993 410.05 231.082C410.506 232.682 411.042 234.283 411.602 235.883C412.474 238.395 413.395 240.884 414.507 243.965L420.396 237.203L419.212 237.043C419.212 233.946 419.644 230.77 419.06 227.793C418.644 225.649 416.875 223.792 415.147 221.992C414.939 218.895 415.667 215.798 419.772 215.702L424.125 205.86L420.844 204.42C423.549 202.067 425.645 199.811 428.094 198.202C433.143 194.938 438.208 191.841 441.585 186.6C443.305 183.919 445.698 181.679 447.426 179.006C448.61 177.182 449.875 177.654 451.347 178.07L451.299 178.054ZM507.688 220.511C505.652 222.082 503.72 223.782 501.902 225.601C501.222 226.353 500.854 228.505 501.374 229.049C503.679 231.49 502.415 233.658 501.502 236.027C500.702 238.171 500.046 240.404 499.334 242.604C500.342 241.868 500.726 240.716 501.462 240.412C503.807 239.452 504.271 237.779 504.519 235.443C505.015 230.786 503.767 225.641 507.792 221.776C508.056 221.528 507.704 220.647 507.688 220.511Z" fill="white" fill-opacity="0.05" stroke="white" stroke-opacity="0.15"/>
<path d="M374.779 140.773C377.804 140.669 380.788 141.525 381.581 137.82C381.581 137.7 382.125 137.524 382.293 137.604C386.238 139.532 388.742 134.531 392.999 135.916L389.43 131.114C391.887 130.466 393.959 130.202 395.776 129.37C398.977 127.89 402.329 126.809 404.994 123.945C406.194 122.649 408.787 122.2 409.659 120.072C410.219 118.393 410.682 116.683 411.043 114.951L413.1 117.439C415.34 117.255 417.101 117.359 418.645 116.895C419.709 116.583 420.453 114.991 421.494 114.799C426.295 113.919 431.096 113.382 435.897 112.598C437.635 112.191 439.346 111.672 441.018 111.046C444.883 116.463 451.332 114.735 457.254 114.631C459.654 114.591 461.991 112.782 464.415 112.582C466.953 112.419 469.497 112.803 471.873 113.711C472.785 114.063 473.817 117.039 473.329 117.647C470.617 121.04 468.688 125.521 463.111 125.521C456.87 125.521 450.612 125.817 444.387 126.321C439.586 126.681 434.865 127.434 430.144 128.25C428.855 128.501 427.711 129.234 426.943 130.298C425.022 133.339 422.422 133.595 419.141 133.499C415.692 133.363 413.34 136.204 410.651 138.036C406.65 140.757 402.849 144.437 398.392 145.678C392.895 147.278 390.775 153.231 385.221 154.08C379.548 162.289 375.619 170.883 379.372 181.134C379.569 181.828 379.721 182.533 379.828 183.246C376.123 185.055 373.755 183.086 371.434 180.678C370.304 179.515 368.983 178.555 367.529 177.837C366.297 176.581 365.033 175.356 363.849 174.06C362.44 172.516 361.4 170.907 363.24 168.923C363.549 168.589 363.781 168.192 363.919 167.76C364.057 167.327 364.099 166.869 364.041 166.418L361.64 168.019C360.92 167.595 362.056 160.017 362.856 159.649L363.817 159.185C360.496 155.688 360.512 152.231 363.697 149.126C365.689 147.19 367.601 146.214 369.106 149.535C372.443 147.214 376.043 145.566 374.779 140.773Z" fill="white" fill-opacity="0.05" stroke="white" stroke-opacity="0.15"/>
<path d="M755.233 130.027L763.723 133.852C764.051 131.107 764.331 128.786 764.667 125.97C766.372 126.578 767.756 126.946 769.02 127.57C771.085 128.562 772.725 128.57 775.198 127.882C778.182 127.082 781.839 128.682 784.8 129.162C784.514 131.053 784.327 132.958 784.24 134.868C784.24 136.716 780.239 145.75 778.854 145.726C774.525 145.63 772.117 149.023 768.78 150.527C765.947 151.768 767.452 153.656 766.524 154.96C762.523 155.76 754.849 152.032 752.92 148.167C748.84 139.997 750.136 135.652 755.233 130.027ZM774.373 132.627L772.869 132.811C772.973 133.964 772.749 135.284 773.237 136.252C774.525 138.805 776.438 140.645 780.351 140.573L774.373 132.627Z" fill="white" fill-opacity="0.05" stroke="white" stroke-opacity="0.15"/>
<path d="M592.595 86.9532L596.3 84.5527C599.06 87.8734 600.3 91.1382 599.028 95.5392C597.996 99.18 598.14 103.157 597.676 107.95C593.755 111.455 592.123 111.415 587.273 106.982C586.538 106.251 585.642 105.703 584.657 105.381C579.056 103.933 577.567 101.861 578.407 96.2193C573.99 94.1148 573.974 93.8748 577.247 90.298C578.1 89.2636 578.815 88.1232 579.376 86.9052C581.176 83.4324 584.417 83.0323 587.778 82.9043C590.37 82.8483 592.787 83.1204 592.595 86.9532Z" fill="white" fill-opacity="0.05" stroke="white" stroke-opacity="0.15"/>
<path d="M34.4373 370.032C31.1085 366.528 27.4277 362.975 22.1065 362.031C20.7018 361.659 19.2745 361.378 17.8335 361.19C12.6484 360.942 11.9282 360.39 11 355.957C12.9524 353.301 15.6651 351.156 15.8811 348.844C16.0811 346.659 13.6246 344.235 11.7522 340.842L24.7791 342.93L25.0032 340.674C27.6518 344.067 30.8365 346.675 31.9647 349.988C33.093 353.301 32.2208 357.382 32.2208 360.694L40.4387 367.6L34.4373 370.032Z" fill="white" fill-opacity="0.05" stroke="white" stroke-opacity="0.15"/>
<path d="M577.616 84.6177C577.856 89.2027 577.463 89.6268 572.678 90.323C571.844 89.2338 570.941 88.1995 569.974 87.2263C567.997 85.4579 568.037 82.9053 570.462 82.3612C575.263 81.2969 573.271 79.9606 570.686 78.4323C572.334 76.8879 573.887 75.5196 575.343 74.0233C575.863 73.4792 576.503 72.5269 576.359 71.9348C575.023 66.3335 579.776 65.2373 582.961 63.1968C587.762 60.0841 587.858 60.2282 590.05 65.6694C590.538 66.8937 590.963 68.326 591.883 69.1502C594.283 71.3427 594.115 72.983 591.611 74.9515C590.907 75.5116 590.666 77.064 590.73 78.1522C590.899 80.9208 589.586 81.9851 587.018 82.1531C585.155 82.2621 583.305 82.5298 581.488 82.9533C580.151 83.3929 578.855 83.9499 577.616 84.6177Z" fill="white" fill-opacity="0.05" stroke="white" stroke-opacity="0.15"/>
<path d="M596.589 126.578C596.029 124.778 594.941 123.194 595.317 122.137C596.845 117.872 598.877 113.791 600.606 109.599C601.246 108.054 601.542 106.398 602.038 104.749C602.462 103.381 602.55 101.477 603.494 100.749C604.903 99.7243 607.095 98.8441 608.672 99.1881C611.272 99.7643 609.72 101.869 609.272 103.413C609.056 104.157 608.856 104.901 608.472 106.174L611.4 103.589C613.057 105.662 614.513 107.782 616.265 109.615C618.906 112.391 617.81 118.416 614.153 119.513C610.768 120.577 607.159 120.985 603.831 122.177C601.574 123.026 599.614 124.722 596.589 126.578Z" fill="white" fill-opacity="0.05" stroke="white" stroke-opacity="0.15"/>
<path d="M59.4267 197.931C52.9613 200.411 52.8572 200.483 49.2084 194.978C45.9277 190.025 42.919 184.888 39.2222 178.918C43.8632 179.054 47.0799 173.997 51.0488 179.094C51.913 180.207 54.3936 180.063 56.082 181.159L52.4412 181.759L52.2251 182.935C53.1213 182.935 54.1936 183.255 54.8817 182.871C57.0102 181.703 57.8744 182.519 58.0824 184.584C58.5625 188.937 59.0106 193.298 59.4267 197.931Z" fill="white" fill-opacity="0.05" stroke="white" stroke-opacity="0.15"/>
<path d="M472.928 24.6037L470.431 19.5225C470.696 19.2184 470.968 18.9224 471.232 18.6263C473.688 20.4907 475.945 21.499 477.441 17.9462C477.569 17.6421 478.697 17.5221 479.241 17.6901C480.842 18.2182 482.002 23.1953 480.738 25.4198C480.05 21.9391 479.409 20.7468 476.937 24.4036C473.608 29.3407 473.24 29.0927 475.713 33.2696C475.177 33.5577 474.552 34.1898 474.112 34.0698C471.536 33.3416 469.159 31.4372 466.199 32.9335C466.143 32.9335 462.374 32.7095 464.35 29.9969C464.43 29.8929 463.55 28.9886 463.07 28.6046C461.157 27.1882 460.941 25.7559 462.942 24.0035L465.926 26.6841C465.636 26.0526 465.422 25.3893 465.286 24.7077C465.35 23.7075 465.534 22.7152 465.67 21.723C466.415 22.0911 467.143 22.5232 467.927 22.8193C469.671 23.4914 471.424 24.0835 472.928 24.6037Z" fill="white" fill-opacity="0.05" stroke="white" stroke-opacity="0.15"/>
<path d="M776.997 172.844C777.797 170.259 778.685 167.747 779.278 165.154C779.942 162.274 781.094 159.825 784.495 160.673C787.367 161.457 790.125 162.614 792.697 164.114C794.249 164.978 793.433 169.803 791.624 170.211C786.551 171.348 781.39 172.076 776.997 172.844Z" fill="white" fill-opacity="0.05" stroke="white" stroke-opacity="0.15"/>
<path d="M454.077 16.4334C454.293 19.202 454.421 20.8984 454.581 22.9469C451.132 23.2349 447.467 23.539 443.794 23.8591C443.415 23.8836 443.045 23.9843 442.706 24.1551C439.113 26.1476 439.121 26.1556 434.552 24.1551L436.249 23.8591C435.64 21.9546 434.104 19.6821 437.505 18.978C439.512 18.7049 441.538 18.6005 443.562 18.6659C445.243 18.6179 446.723 19.4661 448.123 17.0655C449.524 14.665 452.54 15.0491 454.077 16.4334Z" fill="white" fill-opacity="0.05" stroke="white" stroke-opacity="0.15"/>
<path d="M330.271 183.423C324.166 183.511 321.917 182.135 321.893 178.622C321.893 176.221 325.55 173.173 328.583 173.117C332.303 173.053 333.944 175.061 334.184 179.518C334.328 182.831 333.152 184.295 330.271 183.423Z" fill="white" fill-opacity="0.05" stroke="white" stroke-opacity="0.15"/>
<path d="M484.38 39.8065C483.059 40.8707 481.739 41.9509 480.379 43.0072C477.842 45.0156 475.361 44.4315 473.833 42.015C473.145 40.9187 473.641 38.7262 474.209 37.2699C475.209 34.7173 476.946 33.6211 479.73 35.4615C481.571 36.6857 485.22 35.9176 484.219 39.9505L484.38 39.8065Z" fill="white" fill-opacity="0.05" stroke="white" stroke-opacity="0.15"/>
<path d="M484.251 39.9185C487.14 38.3181 489.988 36.5657 492.989 35.1814C493.477 34.9574 495.445 36.3177 495.389 36.8778C495.237 39.8545 493.789 42.5271 490.796 43.1192C488.196 43.6313 484.995 43.7594 484.395 39.7745L484.251 39.9185Z" fill="white" fill-opacity="0.05" stroke="white" stroke-opacity="0.15"/>
<path d="M464.92 45.6076C464.552 43.3111 464.384 42.2949 464.176 40.9826L460.455 42.799C460.455 41.2786 460.111 39.8783 460.559 38.7981C461.007 37.7178 462.519 36.6056 463.103 36.7896C465.992 37.7659 468.705 39.1902 471.513 40.4545L464.92 45.6076Z" fill="white" fill-opacity="0.05" stroke="white" stroke-opacity="0.15"/>
<path d="M451.42 178.157C452.476 173.556 454.364 172.211 459.814 172.147C461.414 179.229 459.742 180.365 451.308 178.053L451.42 178.157Z" fill="white" fill-opacity="0.05" stroke="white" stroke-opacity="0.15"/>
<path d="M436.601 15.489C436.449 15.1369 436.017 14.3367 435.721 13.4885C435.033 11.5041 435.721 10.7199 437.817 11.088C439.356 11.4286 440.918 11.6479 442.49 11.7441C446.651 11.8322 447.804 13.9846 446.099 17.0173L436.601 15.489Z" fill="white" fill-opacity="0.05" stroke="white" stroke-opacity="0.15"/>
<path d="M647.199 184.679C650.2 184.919 654.513 188.2 653.768 189.752C653.168 191.008 651.368 192.488 650.136 192.464C647.143 192.408 646.119 189.536 647.199 184.679Z" fill="white" fill-opacity="0.05" stroke="white" stroke-opacity="0.15"/>
<path d="M494.453 199.043L489.916 196.474L493.548 190.625L494.453 191.017V199.043Z" fill="white" fill-opacity="0.05" stroke="white" stroke-opacity="0.15"/>
<path d="M777.716 163.618C773.163 164.194 773.971 160.473 772.915 158.016C778.324 157.848 778.58 158.153 777.716 163.618Z" fill="white" fill-opacity="0.05" stroke="white" stroke-opacity="0.15"/>
<path d="M627.612 121.945C624.059 125.897 622.171 122.865 619.858 121.497L622.139 117.888C622.403 119.544 622.499 120.16 622.587 120.736L627.612 121.945Z" fill="white" fill-opacity="0.05" stroke="white" stroke-opacity="0.15"/>
<path d="M746.454 148.751C745.653 147.007 744.853 145.27 743.773 142.95L747.15 142.438L747.846 148.839L746.454 148.751Z" fill="white" fill-opacity="0.05" stroke="white" stroke-opacity="0.15"/>
<path d="M487.108 16.6012L481.147 17.2334C482.987 12.7924 483.476 12.7204 487.108 16.6012Z" fill="white" fill-opacity="0.05" stroke="white" stroke-opacity="0.15"/>
<path d="M456.006 29.0605C455.83 33.5576 454.621 35.1259 450.012 33.2455L456.006 29.0605Z" fill="white" fill-opacity="0.05" stroke="white" stroke-opacity="0.15"/>
<path d="M485.124 33.9327L479.522 34.5408C479.426 33.9407 479.322 33.3405 479.218 32.7404L484.739 31.4121L485.124 33.9327Z" fill="white" fill-opacity="0.05" stroke="white" stroke-opacity="0.15"/>
</g>
<defs>
<filter id="filter0_d_146_4" x="0.464844" y="0.5" width="1074.4" height="623.711" filterUnits="userSpaceOnUse" color-interpolation-filters="sRGB">
<feFlood flood-opacity="0" result="BackgroundImageFix"/>
<feColorMatrix in="SourceAlpha" type="matrix" values="0 0 0 0 0 0 0 0 0 0 0 0 0 0 0 0 0 0 127 0" result="hardAlpha"/>
<feOffset/>
<feGaussianBlur stdDeviation="5"/>
<feComposite in2="hardAlpha" operator="out"/>
<feColorMatrix type="matrix" values="0 0 0 0 0 0 0 0 0 0 0 0 0 0 0 0 0 0 0.35 0"/>
<feBlend mode="normal" in2="BackgroundImageFix" result="effect1_dropShadow_146_4"/>
<feBlend mode="normal" in="SourceGraphic" in2="effect1_dropShadow_146_4" result="shape"/>
</filter>
</defs>
</svg>
