<svg width="40" height="46" viewBox="0 0 40 46" fill="none" xmlns="http://www.w3.org/2000/svg">
<g clip-path="url(#clip0_226_118)">
<path d="M6.58984 46C9.46303 44.0359 12.0774 41.7253 14.3725 39.1216C14.5379 38.9465 14.6324 38.8647 14.7623 38.8647C15.4205 38.9447 16.0832 38.9837 16.7463 38.9815C18.1435 38.9604 19.537 38.8355 20.9152 38.6078C22.9229 38.3042 24.9424 37.9188 26.9028 37.5451L29.064 37.1364C29.3388 37.0794 29.6077 36.9973 29.8671 36.8911H29.9498L29.8198 36.424C25.4824 37.3541 21.0653 37.8742 16.6282 37.9772H15.5181L17.7738 35.5481L19.439 33.7731C19.5022 33.7064 19.5793 33.6541 19.6649 33.6199C19.7505 33.5856 19.8427 33.5701 19.935 33.5745H20.1594C20.7153 33.6482 21.2755 33.6872 21.8364 33.6913C22.0726 33.6913 22.3206 33.6913 22.5568 33.6913C25.9098 33.4125 29.2233 32.7822 32.4416 31.8111C32.6073 31.7608 32.766 31.6902 32.914 31.6009L32.7369 31.1572C28.7317 32.1325 24.6264 32.6497 20.5019 32.6987L22.1671 30.9236L25.6037 27.2333C25.6904 27.1293 25.8011 27.0475 25.9265 26.9946C26.0518 26.9418 26.1882 26.9195 26.3241 26.9297C28.6772 26.8492 31.0122 26.4925 33.2801 25.867H33.41C34.0123 25.7269 34.591 25.5517 35.1933 25.3765L35.9255 25.1663C36.0681 25.1257 36.1954 25.0445 36.2916 24.9328L36.7759 24.3605L35.2996 24.7225C34.7564 24.851 34.2131 24.9911 33.6699 25.1079C31.649 25.5689 29.5891 25.8426 27.5169 25.9254C27.3006 25.938 27.0837 25.938 26.8674 25.9254L29.005 23.5898C30.5639 21.8848 32.1818 20.0863 33.7289 18.358C35.5882 16.2228 37.1747 13.8695 38.4529 11.3511C38.4529 11.2343 38.5709 11.1059 38.6182 10.9891C38.66 10.9225 38.6822 10.8456 38.6822 10.7672C38.6822 10.6888 38.66 10.6119 38.6182 10.5453L38.4056 10.2534C38.4056 10.2534 37.8505 11.1409 37.7443 11.3278L37.1892 12.2503C36.2533 13.9508 35.1538 15.5582 33.9061 17.05C32.5243 18.6032 31.0953 20.1447 29.7017 21.6395L29.1112 22.2701L26.5131 25.0262L25.5801 26.0071L25.4738 26.1006L25.3557 25.6918C25.2376 25.2831 25.1313 24.9094 25.0605 24.524C24.7295 22.4743 24.6108 20.3965 24.7062 18.3229V18.0076C24.73 17.7201 24.73 17.431 24.7062 17.1435H24.222L24.1629 17.4237C24.1121 17.6396 24.0727 17.8578 24.0448 18.0777C23.7416 20.561 23.8053 23.0748 24.2338 25.54C24.2685 25.703 24.3159 25.8631 24.3755 26.0188C24.4299 26.1911 24.4733 26.3666 24.5054 26.5443C24.5288 26.6949 24.4951 26.8488 24.4109 26.9764C23.4425 28.0041 22.4623 29.0084 21.4821 30.0127L20.868 30.6433V30.5616C20.7726 30.3039 20.7014 30.0381 20.6554 29.7675C20.0935 26.4935 19.9388 23.1639 20.1948 19.8528C20.2024 19.784 20.1958 19.7144 20.1755 19.6482C20.1552 19.582 20.1216 19.5205 20.0767 19.4674L19.7224 19.0703L19.5925 19.8761C19.5495 20.0923 19.5179 20.3106 19.498 20.5301C19.1856 23.5573 19.2292 26.6101 19.6279 29.6273C19.718 30.1601 19.8685 30.6811 20.0767 31.1805C20.1229 31.257 20.1399 31.3472 20.1248 31.435C20.1096 31.5228 20.0633 31.6024 19.994 31.6593L18.8131 32.8271L16.8999 34.8007L13.8293 37.9071L13.664 38.0472C12.9383 34.565 12.6527 31.0071 12.8136 27.4552H12.3294C12.3294 27.7939 12.2704 28.1209 12.2468 28.4595C12.2468 29.1953 12.1405 29.931 12.1169 30.6784C12.0092 32.7521 12.0883 34.8312 12.3531 36.8911C12.4383 37.4455 12.5526 37.9951 12.6955 38.5377C12.7782 38.8414 12.7546 39.0165 12.5893 39.1683L7.51101 43.8396L7.27482 44.0031V43.7812C7.18034 43.4192 7.08586 43.0688 7.02681 42.7185C6.05799 37.709 7.03195 32.5225 9.75489 28.1909C12.0249 24.6254 14.9205 21.4893 18.3052 18.9302C20.9293 16.9991 23.8055 15.4278 26.8556 14.259C29.4774 13.0912 32.0401 12.0401 34.591 10.8723C36.1033 10.2187 37.4715 9.27839 38.6182 8.10462C38.9267 7.7338 39.2107 7.34372 39.4685 6.93681L39.8228 6.39962L39.9881 6.17773C40 6.40725 40 6.63722 39.9881 6.86674C39.9881 7.19373 39.9055 7.53239 39.8582 7.85938C39.7709 8.38476 39.7196 8.91538 39.7047 9.4476C39.6741 10.6437 39.7096 11.8405 39.811 13.0328C40.5842 20.016 38.6839 27.0323 34.4847 32.6987C31.8378 36.3043 28.6148 39.4597 24.9424 42.0412C22.6059 43.6685 19.849 44.6043 16.9943 44.7388C14.5615 44.8906 12.1877 45.0424 9.83756 45.311C8.84737 45.4477 7.86563 45.6387 6.8969 45.8832L6.58984 46Z" fill="#DBBFFF"/>
<path d="M5.34956 38.2107C4.89285 37.7984 4.45918 37.3617 4.05048 36.9028C2.46305 35.0025 1.34323 32.7639 0.779144 30.363C0.0157172 27.3099 -0.20803 24.1491 0.117792 21.0206C0.540964 17.3946 1.57902 13.8652 3.18836 10.5804C4.15047 8.54239 4.94049 6.42924 5.55033 4.2625C5.94706 2.86517 5.92243 1.38368 5.47947 0C5.69139 0.19317 5.88146 0.408531 6.04634 0.642295C7.00546 1.97124 8.15065 3.1587 9.44758 4.16908C12.2305 6.47189 14.4578 9.36061 15.9666 12.624C16.6825 14.2775 17.2093 16.0049 17.5373 17.7741C17.5709 17.8629 17.5702 17.9608 17.5354 18.0492C17.5005 18.1375 17.4339 18.21 17.3484 18.2529L15.8131 19.4207L16.0375 19.0119L15.6005 18.7784C14.8253 20.0108 13.9143 21.1544 12.8843 22.1884C12.3646 22.7372 11.845 23.2978 11.3608 23.8934C10.8766 24.489 10.5223 24.9561 10.1798 25.4816C10.0026 25.7385 9.81369 25.9838 9.62473 26.2407V25.7735L9.44758 23.6481L9.34129 20.3899C9.33945 20.2866 9.36197 20.1843 9.40707 20.091C9.45217 19.9978 9.5186 19.9162 9.60111 19.8528C11.3872 17.9206 12.8972 15.7556 14.0889 13.4181V13.3481V13.2196L14.0062 12.5423L13.6283 13.0444L13.4747 13.2897C12.2946 15.2883 10.875 17.139 9.24681 18.8017C9.24681 17.9259 9.17596 17.05 9.12872 16.1858C9.04605 14.2239 8.96338 12.1919 8.80985 10.2067C8.64935 8.01681 8.22919 5.85321 7.558 3.76035L7.41629 3.39832C7.38846 3.32335 7.33385 3.26105 7.26276 3.22315L6.62503 2.74435L6.93208 3.98223C7.02656 4.37928 7.10923 4.75298 7.21552 5.15004C7.92949 7.89653 8.28275 10.7225 8.2666 13.5583L8.37288 17.377L8.43193 19.7126H8.37288C8.12218 19.5955 7.88128 19.4588 7.65248 19.3039C6.18898 18.2842 4.84254 17.1094 3.63713 15.8005L3.40093 15.5552L3.34188 15.4968H3.22379L2.71596 15.4151L2.90492 15.8472V15.9406C2.94249 16.0103 2.98595 16.0767 3.03483 16.1391C4.24507 17.6604 5.65499 19.0153 7.22733 20.1681L7.6761 20.4367C7.83998 20.5123 7.99452 20.6064 8.13669 20.7169C8.26842 20.8118 8.37068 20.9413 8.43193 21.0906C8.43193 22.1767 8.43193 23.2744 8.43193 24.3605V25.1313C8.26433 25.0576 8.10248 24.9717 7.94773 24.8743C6.07965 23.5544 4.34711 22.0563 2.77501 20.4016L2.36167 19.7009H2.19633L1.71212 19.7827L1.98375 20.1914C2.02803 20.2698 2.07941 20.3441 2.13728 20.4133C3.61451 22.1675 5.27295 23.7644 7.08561 25.178C7.45397 25.4642 7.84948 25.7145 8.2666 25.9254C8.46736 26.0305 8.50279 26.1122 8.50279 26.2407C8.50279 26.3691 8.50279 27.4085 8.50279 27.7939C8.51206 27.8362 8.51206 27.88 8.50279 27.9223L6.49512 32.068L2.79863 28.6931L2.36167 28.8566L2.50338 29.1252V29.2069C2.55392 29.2804 2.60915 29.3506 2.66872 29.4171L2.73958 29.4872L6.15263 32.8621C6.29435 33.0023 6.29435 33.0023 6.25892 33.0957C5.71584 34.8217 5.47226 36.6262 5.53852 38.4326L5.34956 38.2107Z" fill="#DBBFFF"/>
</g>
<defs>
<clipPath id="clip0_226_118">
<rect width="40" height="46" fill="white"/>
</clipPath>
</defs>
</svg>
