<svg width="158" height="103" viewBox="0 0 158 103" fill="none" xmlns="http://www.w3.org/2000/svg">
<path d="M70.0837 0.220132V12.0192C60.745 12.2377 52.7784 15.5852 46.3239 22.2888C42.8412 25.8787 40.2645 30.2471 38.8074 35.0318C42.0762 36.168 45.3625 36.9983 48.3822 38.4098C65.954 46.6036 72.898 68.0387 63.603 85.0337C59.9417 91.8494 54.0466 97.1977 46.9078 100.18C39.769 103.163 31.8212 103.598 24.3994 101.413C8.99069 96.9377 -0.91617 82.7351 0.0670872 66.3606C1.16396 48.2162 8.12106 32.6021 21.1175 19.9202C34.2364 7.11167 50.1302 0.477964 68.5192 0.0016301C68.9013 -0.00490703 69.2835 0.00822042 69.6642 0.0409604C69.8115 0.0813611 69.9527 0.141639 70.0837 0.220132Z" fill="white"/>
<path d="M158 0.0825668V11.9341C142.443 12.8343 131.989 20.5911 126.536 35.0166C129.735 36.1091 132.842 36.9176 135.735 38.2024C143.028 41.4798 148.915 47.2471 152.342 54.4708C155.77 61.6946 156.513 69.9026 154.438 77.6244C147.953 101.743 118.744 110.867 99.7693 94.6413C90.7539 86.9326 87.0962 76.9602 88.0008 65.231C89.1107 50.5346 94.2281 37.4245 103.488 25.94C109.841 18.0135 117.874 11.5956 127.008 7.14891C136.256 2.53801 146.434 0.0945217 156.768 0.00390625C157.139 0.00390625 157.515 0.0476066 158 0.0825668Z" fill="white"/>
</svg>
