<svg width="30" height="28" viewBox="0 0 30 28" fill="none" xmlns="http://www.w3.org/2000/svg">
<path d="M28.9713 3.74219H0.754312C0.52325 3.74219 0.335938 3.9295 0.335938 4.16056V4.53245C0.335938 4.76351 0.52325 4.95082 0.754312 4.95082H28.9713C29.2024 4.95082 29.3897 4.76351 29.3897 4.53245V4.16056C29.3897 3.9295 29.2024 3.74219 28.9713 3.74219Z" fill="#DBBFFF"/>
<path d="M28.9713 26.311H0.754312C0.52325 26.311 0.335938 26.4983 0.335938 26.7294V27.1013C0.335938 27.3324 0.52325 27.5197 0.754312 27.5197H28.9713C29.2024 27.5197 29.3897 27.3324 29.3897 27.1013V26.7294C29.3897 26.4983 29.2024 26.311 28.9713 26.311Z" fill="#DBBFFF"/>
<path d="M28.5839 1.17725H1.1416V3.08317H28.5839V1.17725Z" fill="#DBBFFF"/>
<path d="M27.9408 0H1.78466L1.1416 0.805758H28.5839L27.9408 0Z" fill="#DBBFFF"/>
<path d="M21.0613 12.5044H8.66504V18.7025H21.0613V12.5044Z" fill="#DBBFFF"/>
<path d="M1.34277 5.9585V25.2502H28.3822V5.9585H1.34277ZM21.8354 19.4782H7.88956V11.7305H21.8354V19.4782Z" fill="#DBBFFF"/>
</svg>
