<svg width="22" height="26" viewBox="0 0 22 26" fill="none" xmlns="http://www.w3.org/2000/svg">
<path d="M3.62451 25.9999C5.20476 24.8898 6.64268 23.5838 7.905 22.1122C7.99593 22.0132 8.0479 21.9669 8.11935 21.9669C8.48137 22.0121 8.84583 22.0342 9.21058 22.033C9.979 22.0211 10.7455 21.9504 11.5035 21.8217C12.6077 21.6501 13.7184 21.4323 14.7966 21.2211L15.9853 20.99C16.1364 20.9579 16.2843 20.9115 16.427 20.8514H16.4725L16.401 20.5874C14.0154 21.1131 11.586 21.4071 9.14562 21.4653H8.53505L9.77568 20.0924L10.6915 19.0891C10.7263 19.0514 10.7687 19.0218 10.8158 19.0025C10.8629 18.9831 10.9136 18.9744 10.9643 18.9768H11.0878C11.3935 19.0185 11.7016 19.0405 12.0101 19.0429C12.14 19.0429 12.2764 19.0429 12.4063 19.0429C14.2505 18.8853 16.0729 18.529 17.843 17.9801C17.9341 17.9517 18.0214 17.9118 18.1028 17.8613L18.0054 17.6105C15.8025 18.1618 13.5446 18.4541 11.2761 18.4818L12.192 17.4785L14.0821 15.3927C14.1298 15.3339 14.1907 15.2876 14.2597 15.2578C14.3286 15.2279 14.4036 15.2153 14.4784 15.2211C15.7725 15.1756 17.0568 14.974 18.3042 14.6204H18.3756C18.7069 14.5412 19.0252 14.4422 19.3564 14.3432L19.7591 14.2244C19.8376 14.2014 19.9076 14.1555 19.9605 14.0924L20.2268 13.7689L19.4149 13.9735C19.1161 14.0462 18.8173 14.1254 18.5185 14.1914C17.4071 14.4519 16.2741 14.6066 15.1344 14.6534C15.0154 14.6605 14.8961 14.6605 14.7772 14.6534L15.9528 13.3333C16.8102 12.3696 17.7001 11.3531 18.551 10.3762C19.5736 9.16932 20.4462 7.8392 21.1492 6.41579C21.1492 6.34979 21.2141 6.27718 21.2401 6.21117C21.2631 6.17352 21.2753 6.13008 21.2753 6.08576C21.2753 6.04143 21.2631 5.99799 21.2401 5.96035L21.1232 5.79533C21.1232 5.79533 20.8179 6.29698 20.7594 6.40259L20.4542 6.92404C19.9394 7.88519 19.3347 8.79368 18.6484 9.63691C17.8885 10.5148 17.1025 11.3861 16.3361 12.231L16.0113 12.5874L14.5823 14.1452L14.0692 14.6996L14.0107 14.7524L13.9457 14.5214C13.8808 14.2904 13.8223 14.0792 13.7834 13.8613C13.6013 12.7028 13.536 11.5284 13.5885 10.3564V10.1782C13.6016 10.0156 13.6016 9.85226 13.5885 9.68972H13.3222L13.2897 9.84813C13.2618 9.97012 13.2401 10.0935 13.2247 10.2178C13.058 11.6214 13.093 13.0422 13.3287 14.4356C13.3478 14.5277 13.3738 14.6182 13.4066 14.7062C13.4365 14.8036 13.4604 14.9028 13.4781 15.0032C13.4909 15.0884 13.4724 15.1753 13.4261 15.2475C12.8935 15.8283 12.3544 16.396 11.8152 16.9636L11.4775 17.3201V17.2739C11.425 17.1282 11.3859 16.978 11.3606 16.825C11.0515 14.9745 10.9664 13.0926 11.1072 11.2211C11.1114 11.1822 11.1078 11.1429 11.0966 11.1054C11.0855 11.068 11.067 11.0332 11.0423 11.0033L10.8474 10.7788L10.776 11.2343C10.7523 11.3565 10.735 11.4799 10.724 11.6039C10.5522 13.3149 10.5762 15.0404 10.7955 16.7458C10.845 17.047 10.9278 17.3414 11.0423 17.6237C11.0677 17.6669 11.0771 17.7179 11.0687 17.7676C11.0604 17.8172 11.0349 17.8621 10.9968 17.8943L10.3473 18.5544L9.29502 19.6699L7.60621 21.4257L7.51527 21.5049C7.11615 19.5367 6.95906 17.5257 7.0476 15.5181H6.78129C6.78129 15.7095 6.74881 15.8943 6.73582 16.0858C6.73582 16.5016 6.67736 16.9174 6.66437 17.3399C6.60518 18.512 6.64866 19.6871 6.79428 20.8514C6.84116 21.1648 6.90404 21.4754 6.98265 21.7821C7.02811 21.9537 7.01512 22.0528 6.92419 22.1386L4.13115 24.7788L4.00125 24.8712V24.7458C3.94928 24.5412 3.89732 24.3432 3.86484 24.1452C3.33199 21.3137 3.86767 18.3822 5.36529 15.9339C6.6138 13.9187 8.20635 12.1461 10.068 10.6996C11.5112 9.60812 13.0931 8.71998 14.7707 8.05936C16.2126 7.39929 17.6222 6.80523 19.0252 6.14516C19.8569 5.77571 20.6094 5.24425 21.2401 4.58081C21.4098 4.37121 21.566 4.15073 21.7078 3.92074L21.9026 3.61711L21.9936 3.4917C22.0001 3.62143 22.0001 3.75141 21.9936 3.88114C21.9936 4.06596 21.9481 4.25738 21.9221 4.44219C21.8741 4.73915 21.8459 5.03906 21.8377 5.33988C21.8209 6.01593 21.8404 6.6924 21.8961 7.36629C22.3214 11.3133 21.2762 15.2791 18.9667 18.4818C17.5109 20.5198 15.7383 22.3033 13.7184 23.7623C12.4333 24.6822 10.9171 25.211 9.34698 25.2871C8.00892 25.3729 6.70334 25.4587 5.41075 25.6105C4.86615 25.6878 4.3262 25.7957 3.79339 25.9339L3.62451 25.9999Z" fill="#DBBFFF"/>
<path d="M2.94021 21.5974C2.68902 21.3643 2.4505 21.1175 2.22571 20.8581C1.35262 19.784 0.736725 18.5187 0.426479 17.1617C0.0065937 15.436 -0.116467 13.6495 0.0627348 11.8812C0.29548 9.83175 0.86641 7.83683 1.75155 5.9802C2.28071 4.82831 2.71522 3.63392 3.05063 2.40924C3.26883 1.61944 3.25529 0.782082 3.01166 0C3.12821 0.109183 3.23275 0.230909 3.32344 0.363036C3.85095 1.11418 4.4808 1.78535 5.19412 2.35644C6.72473 3.65803 7.94975 5.29078 8.77959 7.13531C9.17333 8.06989 9.46309 9.04624 9.64349 10.0462C9.66196 10.0964 9.66157 10.1518 9.6424 10.2017C9.62323 10.2516 9.58661 10.2926 9.53956 10.3168L8.69515 10.9769L8.81857 10.7459L8.57824 10.6139C8.15185 11.3104 7.65081 11.9569 7.08429 12.5413C6.79849 12.8515 6.51269 13.1683 6.24638 13.5049C5.98007 13.8416 5.7852 14.1056 5.59684 14.4026C5.4994 14.5479 5.39548 14.6865 5.29155 14.8317V14.5677L5.19412 13.3663L5.13566 11.5248C5.13465 11.4663 5.14703 11.4085 5.17184 11.3558C5.19664 11.3031 5.23318 11.257 5.27856 11.2211C6.26091 10.129 7.09139 8.90535 7.74682 7.58416V7.54455V7.47195L7.70135 7.08911L7.4935 7.37294L7.40906 7.51155C6.75995 8.64124 5.9792 9.68729 5.0837 10.6271C5.0837 10.132 5.04472 9.63696 5.01874 9.14851C4.97328 8.0396 4.92781 6.89109 4.84337 5.76898C4.75509 4.53124 4.524 3.30834 4.15485 2.12541L4.07691 1.92079C4.0616 1.87842 4.03157 1.8432 3.99247 1.82178L3.64171 1.55116L3.81059 2.25083C3.86256 2.47525 3.90803 2.68647 3.96648 2.91089C4.35917 4.46326 4.55346 6.06056 4.54458 7.66337L4.60304 9.82178L4.63551 11.1419H4.60304C4.46515 11.0757 4.33266 10.9984 4.20682 10.9109C3.40189 10.3345 2.66135 9.67053 1.99837 8.93069L1.86846 8.79208L1.83599 8.75908H1.77103L1.49173 8.71287L1.59565 8.9571V9.0099C1.61632 9.04928 1.64022 9.08682 1.6671 9.12211C2.33274 9.98194 3.10819 10.7478 3.97298 11.3993L4.21981 11.5512C4.30994 11.5939 4.39493 11.6471 4.47313 11.7096C4.54558 11.7632 4.60183 11.8364 4.63551 11.9208C4.63551 12.5347 4.63551 13.1551 4.63551 13.769V14.2046C4.54333 14.163 4.45432 14.1144 4.3692 14.0594C3.34176 13.3133 2.38886 12.4666 1.52421 11.5314L1.29687 11.1353H1.20593L0.939617 11.1815L1.08901 11.4125C1.11336 11.4569 1.14163 11.4988 1.17345 11.538C1.98593 12.5295 2.89807 13.432 3.89503 14.231C4.09764 14.3928 4.31516 14.5343 4.54458 14.6535C4.655 14.7129 4.67449 14.7591 4.67449 14.8317C4.67449 14.9043 4.67449 15.4917 4.67449 15.7096C4.67958 15.7335 4.67958 15.7583 4.67449 15.7822L3.57026 18.1254L1.5372 16.2178L1.29687 16.3102L1.37481 16.462V16.5083C1.40261 16.5498 1.43298 16.5895 1.46575 16.6271L1.50472 16.6667L3.3819 18.5743C3.45984 18.6535 3.45984 18.6535 3.44036 18.7063C3.14166 19.6818 3.00769 20.7018 3.04413 21.7228L2.94021 21.5974Z" fill="#DBBFFF"/>
</svg>
