<svg width="41" height="38" viewBox="0 0 41 38" fill="none" xmlns="http://www.w3.org/2000/svg">
<path d="M39.7599 5.15234H0.911938C0.593821 5.15234 0.335938 5.41023 0.335938 5.72834V6.24034C0.335938 6.55846 0.593821 6.81634 0.911938 6.81634H39.7599C40.0781 6.81634 40.3359 6.55846 40.3359 6.24034V5.72834C40.3359 5.41023 40.0781 5.15234 39.7599 5.15234Z" fill="#DBBFFF"/>
<path d="M39.7599 36.2236H0.911938C0.593821 36.2236 0.335938 36.4815 0.335938 36.7996V37.3116C0.335938 37.6297 0.593821 37.8876 0.911938 37.8876H39.7599C40.0781 37.8876 40.3359 37.6297 40.3359 37.3116V36.7996C40.3359 36.4815 40.0781 36.2236 39.7599 36.2236Z" fill="#DBBFFF"/>
<path d="M39.2266 1.62061H1.44531V4.24461H39.2266V1.62061Z" fill="#DBBFFF"/>
<path d="M38.3413 0H2.33065L1.44531 1.10933H39.2266L38.3413 0Z" fill="#DBBFFF"/>
<path d="M28.8694 17.2153H11.8027V25.7487H28.8694V17.2153Z" fill="#DBBFFF"/>
<path d="M1.72266 8.20361V34.7636H38.9493V8.20361H1.72266ZM29.936 26.8169H10.736V16.1503H29.936V26.8169Z" fill="#DBBFFF"/>
</svg>
