<svg width="109" height="80" viewBox="0 0 109 80" fill="none" xmlns="http://www.w3.org/2000/svg">
<path d="M77.6929 79.4568L66.9647 63.4146C62.8678 57.2794 58.7732 51.1453 54.6808 45.0123C49.9044 37.8601 45.1248 30.7079 40.3417 23.5557C40.1523 23.2848 40.0537 22.9608 40.0601 22.6304C40.0601 21.0211 40.0601 19.4119 40.0601 17.806C40.0601 17.0885 40.0601 17.0852 40.7608 17.0852C47.4928 17.0852 54.2259 17.0852 60.9602 17.0852C61.1244 17.0852 61.2954 17.1355 61.463 17.0148C61.4362 16.827 61.2619 16.7834 61.1479 16.6795C58.6536 14.7618 56.1626 12.8374 53.6549 10.9365C53.2928 10.6616 53.2559 10.5376 53.6549 10.2425C56.1626 8.34497 58.6536 6.42058 61.1479 4.49955C61.2719 4.40232 61.4563 4.34198 61.4832 4.10059H60.94C54.17 4.10059 47.4012 4.10059 40.6334 4.10059C40.1875 4.10059 40.0199 4.00337 40.0433 3.52394C40.0836 2.70591 40.0668 1.88118 40.0433 1.05979C40.0474 0.922673 40.0239 0.786134 39.9744 0.6582C39.9249 0.530265 39.8504 0.413516 39.7551 0.314815C39.6598 0.216114 39.5458 0.137452 39.4197 0.0834528C39.2936 0.0294534 39.158 0.00120632 39.0208 0.0003717C38.7446 -0.00695396 38.4765 0.0942488 38.2741 0.282273C38.0717 0.470298 37.951 0.730169 37.9379 1.00615C37.9111 1.31794 37.9379 1.63644 37.9379 1.95158C37.9379 8.80651 37.9379 15.6614 37.9379 22.5164C37.9463 22.9166 37.8291 23.3094 37.6027 23.6395C33.8254 29.2696 30.056 34.912 26.2944 40.5667L1.38797 77.8308C0.935373 78.5013 0.489478 79.1919 0 79.9362H77.931C77.8987 79.757 77.8162 79.5907 77.6929 79.4568ZM43.6105 44.9251C42.6785 45.78 41.6626 46.5209 40.3719 46.7657C38.5548 47.1009 36.8617 46.8595 35.3631 45.6995C34.8938 45.3375 34.4322 44.9642 33.9785 44.5798C32.2117 43.0476 30.1733 42.5783 27.9103 42.994C27.8433 42.994 27.7762 42.994 27.6723 43.0208C27.6555 42.813 27.793 42.6856 27.8801 42.5615C31.4786 37.1728 35.0793 31.7852 38.6822 26.3987C39.0175 25.9226 39.0175 25.9192 39.3259 26.3987L50.1615 42.6017C50.2352 42.7157 50.2889 42.8431 50.3961 43.051C49.2007 42.7595 47.9507 42.7767 46.7637 43.101C45.5767 43.4253 44.4917 44.0461 43.6105 44.905V44.9251Z" fill="#DBBFFF"/>
<path d="M101.869 70.0133C101.674 69.7887 100.94 68.6354 100.729 68.3203L91.9417 55.1513L78.5313 35.0357C78.0352 34.2948 78.0452 34.2881 77.5256 35.0357C73.1314 41.6292 68.7351 48.2204 64.3365 54.8093C64.2236 54.9364 64.1613 55.1004 64.1613 55.2703C64.1613 55.4402 64.2236 55.6043 64.3365 55.7313C65.9357 58.0781 67.5147 60.4584 69.0972 62.8287C72.8319 68.4164 76.5645 74.0119 80.2948 79.6152C80.361 79.7331 80.4589 79.8302 80.5774 79.8953C80.6959 79.9605 80.8303 79.9912 80.9653 79.9839C89.9659 79.9839 98.9699 79.9839 107.977 79.9839C108.118 79.9839 108.289 80.0644 108.423 79.8666L101.869 70.0133ZM86.2892 53.133C84.9513 53.2111 83.6743 53.7191 82.6483 54.5814C82.122 55.0138 81.6124 55.4731 81.0491 55.8486C80.1088 56.4856 78.9914 56.8097 77.8562 56.7748C76.7209 56.7399 75.6256 56.3477 74.7262 55.6542C74.4705 55.4715 74.2253 55.2745 73.9919 55.0641C72.2486 53.4314 70.227 52.7777 67.7259 53.3241L70.3846 49.3379C72.8297 45.6769 75.2726 42.0147 77.7133 38.3515C77.9111 38.0564 78.0117 37.8251 78.3268 38.2978C81.5319 43.1323 84.7638 47.9499 87.9823 52.7743C88.1094 52.9075 88.1904 53.0778 88.2136 53.2604C87.5766 53.1664 86.9331 53.1238 86.2892 53.133Z" fill="#DBBFFF"/>
</svg>
