<svg width="83" height="80" viewBox="0 0 83 80" fill="none" xmlns="http://www.w3.org/2000/svg">
<g clip-path="url(#clip0_242_565)">
<path d="M41.6558 40.667L71.6398 23.6832L62.1435 7.54102L32.1562 24.5248C35.3239 29.91 38.4748 35.265 41.6558 40.667Z" fill="#DBBFFF"/>
<path d="M16.5322 50.9981L38.7159 38.4305C36.7047 35.0069 34.6935 31.6067 32.6621 28.1429L20.1524 35.2248C20.0369 34.833 19.8912 34.4507 19.7166 34.0814C18.9255 32.6932 18.1076 31.3217 17.283 29.9536C17.0698 29.6371 16.8393 29.3326 16.5925 29.0416L20.7423 26.6943C20.873 26.6206 21.0105 26.5535 21.1345 26.473C21.2188 26.433 21.2938 26.3757 21.3547 26.305C21.4156 26.2343 21.4611 26.1516 21.4882 26.0623C21.5154 25.973 21.5236 25.8789 21.5123 25.7863C21.501 25.6936 21.4705 25.6043 21.4228 25.5241C21.3798 25.4412 21.32 25.3681 21.2471 25.3096C21.1743 25.2512 21.09 25.2086 20.9998 25.1846C20.9095 25.1606 20.8152 25.1557 20.723 25.1703C20.6307 25.1849 20.5426 25.2186 20.4641 25.2692C19.7937 25.6046 19.14 25.9935 18.4797 26.3624L10.656 30.7752C10.5387 30.8422 10.4181 30.9026 10.3208 30.9763C10.2418 31.0204 10.1723 31.0796 10.1161 31.1505C10.0599 31.2214 10.0183 31.3027 9.99356 31.3897C9.94359 31.5655 9.96546 31.7539 10.0544 31.9136C10.0984 31.9926 10.1575 32.0622 10.2284 32.1184C10.2993 32.1745 10.3806 32.2162 10.4676 32.241C10.6433 32.2909 10.8317 32.2691 10.9913 32.1801C11.5276 31.8985 12.0505 31.5933 12.5801 31.2983L15.6439 29.5814C15.7628 29.925 15.9027 30.261 16.0629 30.5874C16.8942 32.0292 17.7389 33.4678 18.597 34.8895C18.8118 35.1848 19.0506 35.4618 19.311 35.7177L10.4951 40.7207C12.503 44.1577 14.5042 47.5578 16.5322 50.9981Z" fill="#DBBFFF"/>
<path d="M82.5804 20.1794C78.6149 13.4362 74.6763 6.74658 70.7075 0L62.1732 4.83192L74.0461 25.0113L82.5804 20.1794Z" fill="#DBBFFF"/>
<path d="M42.6982 46.0225H37.6265V79.9432H42.6982V46.0225Z" fill="#DBBFFF"/>
<path d="M36.0744 48.3965L19.5489 79.9465C19.74 79.9632 19.8841 79.9867 20.0182 79.9867C21.359 79.9867 22.6998 79.9867 24.0406 79.9867C24.1795 80.0005 24.319 79.9679 24.4373 79.8938C24.5556 79.8198 24.646 79.7086 24.6943 79.5776C28.4642 72.3884 32.233 65.1992 36.0007 58.01C36.1136 57.8036 36.1789 57.5744 36.1917 57.3394C36.1917 54.4456 36.1917 51.5518 36.1917 48.658C36.1917 48.5776 36.1917 48.4971 36.1716 48.42L36.0744 48.3965Z" fill="#DBBFFF"/>
<path d="M44.1327 48.792V51.5953C44.1327 53.6072 44.1327 55.599 44.1495 57.6008C44.1525 57.8829 44.2201 58.1605 44.3472 58.4123C48.0345 65.4718 51.7217 72.5291 55.4089 79.5842C55.4564 79.7155 55.5459 79.8274 55.6635 79.9026C55.7811 79.9778 55.9202 80.012 56.0592 80C57.5341 79.9765 59.009 80 60.5945 80C55.1151 69.5359 49.6624 59.1254 44.2366 48.7686L44.1327 48.792Z" fill="#DBBFFF"/>
<path d="M3.60343 55.5446L14.0785 49.6062L10.4818 43.4766L0 49.4217L3.60343 55.5446Z" fill="#DBBFFF"/>
<path d="M48.6514 44.5678V38.3242C48.4503 38.4282 48.2861 38.5053 48.1319 38.5925L41.9943 42.0664C41.3239 42.4486 41.0256 42.3648 40.6535 41.7076L39.4367 39.6253L30.8387 44.4907L30.8589 44.5678H48.6514Z" fill="#DBBFFF"/>
</g>
<defs>
<clipPath id="clip0_242_565">
<rect width="82.5806" height="80" fill="white"/>
</clipPath>
</defs>
</svg>
