<svg width="80" height="80" viewBox="0 0 80 80" fill="none" xmlns="http://www.w3.org/2000/svg">
<path d="M0 39.5089C0.0773107 38.7157 0.147899 37.919 0.235293 37.1258C0.819922 31.4651 2.68306 26.0114 5.68402 21.1762C10.1815 13.9292 16.3663 8.62163 24.2856 5.42837C29.3338 3.34894 34.7738 2.39238 40.2285 2.62501C47 2.90374 53.5809 4.94903 59.3175 8.55777L59.3847 8.60147C59.6353 8.69647 59.8409 8.88244 59.9605 9.12228C60.0801 9.36213 60.105 9.63824 60.0301 9.89558C59.8049 11.1931 59.741 12.5174 59.5998 13.8283C59.5881 13.9724 59.533 14.1095 59.4418 14.2216C58.8368 14.8468 58.2183 15.4552 57.5864 16.0905C49.0318 10.0838 39.7041 8.33256 29.6537 11.2468C22.3966 13.351 16.7025 17.7309 12.5109 24.0031C8.42404 30.1626 6.64454 37.5679 7.48649 44.9118C8.32845 52.2557 11.7377 59.0661 17.1126 64.1408C28.6991 75.0383 45.5595 75.4416 57.4217 66.571C61.8865 63.2932 65.3964 58.884 67.5897 53.798C69.807 48.7389 70.6198 43.1758 69.9427 37.6938C69.3099 32.1975 67.2418 26.9646 63.946 22.5208C64.6183 21.8485 65.2368 21.2031 65.8788 20.5745C65.9888 20.4992 66.1186 20.4583 66.2519 20.4569C67.7242 20.2821 69.1931 20.1208 70.6687 19.9661C70.7655 19.9764 70.8589 20.0076 70.9425 20.0575C71.0261 20.1074 71.0978 20.1749 71.1527 20.2552C71.5964 20.9275 72.03 21.5997 72.42 22.2955C75.2463 27.287 76.9264 32.8448 77.3384 38.5661C77.7504 44.2874 76.8839 50.0286 74.8018 55.3735C72.7197 60.7184 69.4742 65.5329 65.3007 69.4679C61.1271 73.4029 56.1302 76.3597 50.6721 78.124C47.4822 79.166 44.2251 79.892 40.8469 79.9424C40.727 79.9533 40.608 79.9724 40.4906 79.9996H36.9747C36.8576 79.9718 36.7384 79.9538 36.6184 79.9458C32.9846 79.8301 29.3933 79.1287 25.9831 77.8685C17.4487 74.8635 10.7563 69.4887 5.92267 61.8484C2.78475 56.9096 0.837732 51.309 0.235293 45.4888C0.147899 44.6955 0.0773107 43.8988 0 43.1022V39.5089Z" fill="#DBBFFF"/>
<path d="M79.9996 9.30754C77.2433 11.6874 74.4803 14.0605 71.7341 16.4537C70.5744 17.4621 69.1559 17.5865 67.7307 17.7109C66.8904 17.7815 66.05 17.8487 65.2097 17.9058C64.9274 17.9153 64.6603 18.0362 64.4669 18.242C56.3033 26.4145 48.1341 34.5803 39.9594 42.7394C39.7947 42.9041 39.5863 43.1495 39.398 43.1495C38.8613 43.1971 38.3206 43.1307 37.8115 42.9545C37.5077 42.8114 37.2538 42.5805 37.0825 42.2918C36.9111 42.003 36.8302 41.6695 36.8501 41.3343C36.8365 41.0765 36.8797 40.8187 36.9767 40.5794C37.0737 40.3401 37.2221 40.125 37.4115 39.9495C44.4232 32.9467 51.426 25.9271 58.4198 18.8907C59.5795 17.7243 60.7122 16.5378 61.8383 15.331C61.9961 15.1394 62.0942 14.9056 62.1206 14.6588C62.3257 13.0991 62.4568 11.5227 62.7257 9.97308C62.8617 9.40326 63.1379 8.87641 63.529 8.44031C65.3845 6.1815 67.2803 3.95629 69.1761 1.71764C69.6837 1.13277 70.2517 0.574788 70.7761 0H71.0215C71.1282 0.194624 71.2084 0.402623 71.2601 0.618486C71.3845 1.66722 71.4652 2.72268 71.5963 3.77478C71.7273 4.82688 71.8349 5.90586 72.0097 6.96132C72.0423 7.26317 72.182 7.54335 72.4033 7.75114C72.6247 7.95893 72.9131 8.08059 73.2164 8.09409C74.6752 8.25544 76.1307 8.4067 77.5862 8.57477C78.3929 8.66888 79.1962 8.78989 79.9996 8.9109V9.30754Z" fill="#DBBFFF"/>
<path d="M53.4448 32.9411L57.2733 29.1428C57.5053 28.9143 57.7372 28.679 57.9826 28.4706C58.6851 27.8588 58.9742 27.9059 59.4111 28.7395C59.8481 29.5731 60.3019 30.4806 60.7221 31.3647C62.4767 35.0621 63.075 38.9344 62.8095 42.9915C62.5607 46.9848 61.4649 50.7226 59.2599 54.0402C55.307 59.9797 49.9658 63.9965 42.7893 65.173C37.5793 66.0234 32.5238 65.3679 27.8079 62.8974C20.7491 59.1999 16.3289 53.3848 14.9138 45.5428C13.7037 38.8201 15.1827 32.5512 19.2533 27.0084C21.1155 24.3924 23.4984 22.1896 26.2523 20.5381C29.0063 18.8867 32.0718 17.8223 35.2566 17.4118C40.3927 16.6756 45.3708 17.4118 49.9927 19.9462C50.5305 20.2387 51.0851 20.5008 51.6061 20.8135C52.1271 21.1261 52.1271 21.358 51.791 21.8219C51.6433 22.0171 51.4815 22.2014 51.307 22.3731C50.0028 23.684 48.6885 24.9882 47.3876 26.3059C47.3233 26.3872 47.2317 26.4425 47.1298 26.4616C47.0279 26.4807 46.9225 26.4624 46.833 26.4101C45.428 25.8655 44.0398 25.2538 42.5944 24.8504C40.7154 24.3294 38.7591 24.3899 36.8364 24.558C32.4902 24.9445 28.9776 26.9849 26.0801 30.1748C24.0189 32.372 22.6378 35.119 22.1037 38.084C20.3659 48.1209 26.9037 56.1209 35.2969 57.9159C36.5179 58.1239 37.7561 58.2139 38.9944 58.1848C46.5708 58.2957 54.0599 52.5377 55.4649 43.9327C55.996 40.5714 55.4313 36.7226 53.4448 32.9411Z" fill="#DBBFFF"/>
<path d="M47.956 38.6117C48.8938 41.284 48.5812 45.9898 44.2921 49.1865C40.8165 51.7747 35.7274 51.5058 32.4602 48.6386C28.2585 44.9411 28.3527 39.563 30.551 36.2386C33.5056 31.7815 38.1308 31.0285 41.4282 32.0873C41.3005 32.242 41.193 32.3899 41.0652 32.521C39.2837 34.3562 37.519 36.2184 35.714 38.0167C34.8173 38.8633 34.2765 40.0195 34.2014 41.2503C34.0602 43.6033 36.5543 46.5613 39.8753 45.6839C40.5351 45.5106 41.1385 45.1689 41.6266 44.6924C43.5717 42.8122 45.5167 40.9299 47.4618 39.0453C47.6165 38.8974 47.7845 38.763 47.956 38.6117Z" fill="#DBBFFF"/>
</svg>
