<svg width="76" height="80" viewBox="0 0 76 80" fill="none" xmlns="http://www.w3.org/2000/svg">
<path d="M36.5214 80.0002C32.0058 68.1615 27.5171 56.4035 23.0217 44.6152H50.67C45.9594 56.4001 41.2555 68.1615 36.5214 80.0002Z" fill="#DBBFFF"/>
<path d="M33.0752 79.9362L1.0929 45.8759C1.20721 45.8759 1.28455 45.8423 1.35852 45.8423C7.60569 45.8423 13.8529 45.8423 20.1 45.8423C20.1838 45.8321 20.2683 45.8538 20.3368 45.903C20.4053 45.9522 20.4528 46.0253 20.4699 46.1079C24.6661 57.3156 28.8645 68.5233 33.0651 79.7311C33.0887 79.7916 33.1055 79.8521 33.1256 79.9126L33.0752 79.9362Z" fill="#DBBFFF"/>
<path d="M39.2313 79.8795C39.8208 78.4157 40.407 76.9531 40.9898 75.4917C44.8991 65.7118 48.8072 55.932 52.7142 46.1521C52.7438 46.0308 52.8171 45.9246 52.92 45.8538C53.023 45.7831 53.1484 45.7528 53.2723 45.7688C59.19 45.7688 65.1088 45.7688 71.0287 45.7688H71.4826L39.2818 79.9299L39.2313 79.8795Z" fill="#DBBFFF"/>
<path d="M63.884 28.9863L75.141 41.9346H52.4117L63.884 28.9863Z" fill="#DBBFFF"/>
<path d="M36.7902 28.9971L47.331 41.9285H25.94C29.5646 37.6046 33.1656 33.3143 36.7902 28.9971Z" fill="#DBBFFF"/>
<path d="M11.0116 28.9707L20.6816 41.9391H0C3.69854 37.595 7.34329 33.2946 11.0116 28.9707Z" fill="#DBBFFF"/>
<path d="M60.5994 25.9209L49.8938 38.5733C46.4475 34.3502 43.0313 30.1675 39.5782 25.9209H60.5994Z" fill="#DBBFFF"/>
<path d="M34.017 25.8975L23.3517 38.6305L14.0852 25.8975H34.017Z" fill="#DBBFFF"/>
<path d="M37.8664 6.56704C37.8664 8.47684 37.8664 10.3821 37.8664 12.283C37.8664 12.7335 37.6546 13.0227 37.2982 13.0765C37.193 13.1 37.0836 13.0978 36.9794 13.0702C36.8752 13.0425 36.7792 12.9902 36.6994 12.9177C36.6197 12.8452 36.5585 12.7546 36.5211 12.6535C36.4837 12.5524 36.4711 12.4437 36.4845 12.3368C36.4845 10.223 36.4912 8.1081 36.5047 5.99209C36.5047 4.25938 36.5125 2.52666 36.5282 0.793952C36.5282 0.182011 37.0292 -0.164307 37.5369 0.0777798C37.6642 0.135168 37.7704 0.230741 37.8409 0.351239C37.9114 0.471737 37.9426 0.611187 37.9303 0.750242V6.56704H37.8664Z" fill="#DBBFFF"/>
<path d="M11.9932 20.2608C11.9932 20.708 11.8419 20.9332 11.5494 21.0476C11.4004 21.1048 11.2362 21.1087 11.0848 21.0584C10.9333 21.0081 10.804 20.9068 10.7189 20.7718C10.0464 19.8371 9.37395 18.8979 8.70149 17.9542L4.10185 11.4549C4.05814 11.3944 4.01106 11.3338 3.97072 11.2666C3.86717 11.1174 3.82479 10.9341 3.85231 10.7546C3.87984 10.5751 3.97516 10.4129 4.11866 10.3016C4.19298 10.2461 4.2777 10.2062 4.36776 10.184C4.45783 10.1619 4.55143 10.1581 4.64299 10.1729C4.73456 10.1876 4.82224 10.2206 4.90082 10.2698C4.9794 10.3191 5.04728 10.3836 5.10045 10.4596C5.49721 10.9942 5.87715 11.5389 6.26045 12.0803L11.6805 19.7228C11.7949 19.896 11.8993 20.0756 11.9932 20.2608Z" fill="#DBBFFF"/>
<path d="M69.1729 10.9442C69.1288 11.0796 69.069 11.2094 68.9947 11.3308C66.7756 14.469 64.5531 17.6071 62.3272 20.7453C62.2787 20.8294 62.2134 20.9027 62.1355 20.9605C62.0575 21.0184 61.9685 21.0596 61.8739 21.0817C61.7793 21.1038 61.6813 21.1062 61.5857 21.0888C61.4902 21.0714 61.3993 21.0346 61.3185 20.9807C61.238 20.9237 61.1703 20.8504 61.1199 20.7656C61.0696 20.6807 61.0376 20.5862 61.0262 20.4882C61.0148 20.3902 61.0241 20.2909 61.0536 20.1967C61.0832 20.1026 61.1322 20.0157 61.1975 19.9417C63.4233 16.8036 65.6537 13.6654 67.8885 10.5272C67.9673 10.3871 68.0938 10.2799 68.2449 10.225C68.396 10.1701 68.5618 10.1712 68.7122 10.228C68.8556 10.2824 68.9776 10.3813 69.0606 10.5102C69.1435 10.6391 69.1828 10.7912 69.1729 10.9442Z" fill="#DBBFFF"/>
</svg>
