<svg width="54" height="51" viewBox="0 0 54 51" fill="none" xmlns="http://www.w3.org/2000/svg">
<path d="M52.5681 6.86963H0.768041C0.343863 6.86963 0 7.21349 0 7.63767V8.32037C0 8.74455 0.343863 9.08841 0.768041 9.08841H52.5681C52.9923 9.08841 53.3361 8.74455 53.3361 8.32037V7.63767C53.3361 7.21349 52.9923 6.86963 52.5681 6.86963Z" fill="#DBBFFF"/>
<path d="M52.5681 48.3013H0.768041C0.343863 48.3013 0 48.6451 0 49.0693V49.752C0 50.1762 0.343863 50.5201 0.768041 50.5201H52.5681C52.9923 50.5201 53.3361 50.1762 53.3361 49.752V49.0693C53.3361 48.6451 52.9923 48.3013 52.5681 48.3013Z" fill="#DBBFFF"/>
<path d="M51.8573 2.16113H1.47949V5.65998H51.8573V2.16113Z" fill="#DBBFFF"/>
<path d="M50.6768 0H2.66L1.47949 1.47919H51.8573L50.6768 0Z" fill="#DBBFFF"/>
<path d="M38.0468 22.9556H15.29V34.3339H38.0468V22.9556Z" fill="#DBBFFF"/>
<path d="M1.84863 10.938V46.3532H51.4868V10.938H1.84863ZM39.4684 35.7571H13.867V21.5341H39.4684V35.7571Z" fill="#DBBFFF"/>
</svg>
