<svg width="23" height="23" viewBox="0 0 23 23" fill="none" xmlns="http://www.w3.org/2000/svg">
<g clip-path="url(#clip0_146_159)">
<path d="M22.4844 18.1771L18.9324 14.6247C18.2249 13.9201 17.0533 13.9415 16.3211 14.6739L14.5316 16.463C14.4186 16.4007 14.3015 16.3356 14.1785 16.2666C13.0484 15.6404 11.5018 14.7822 9.87422 13.1534C8.24185 11.5213 7.38284 9.97222 6.75478 8.84144C6.6885 8.72164 6.625 8.60614 6.56229 8.49645L7.76332 7.29721L8.35378 6.70602C9.08704 5.97256 9.10726 4.80127 8.40143 4.09458L4.84944 0.541797C4.1436 -0.163908 2.97145 -0.142499 2.23819 0.590959L1.23712 1.59778L1.26448 1.62494C0.928806 2.05325 0.648308 2.54724 0.439569 3.07996C0.247152 3.58704 0.127354 4.07092 0.0725759 4.5558C-0.396441 8.44405 1.38038 11.9976 6.20244 16.8197C12.868 23.4848 18.2395 22.9813 18.4713 22.9567C18.976 22.8964 19.4597 22.7758 19.9512 22.5849C20.4793 22.3786 20.973 22.0985 21.401 21.7636L21.4229 21.783L22.437 20.7899C23.1688 20.0566 23.1899 18.8849 22.4844 18.1771Z" fill="white"/>
</g>
<defs>
<clipPath id="clip0_146_159">
<rect width="23" height="23" fill="white"/>
</clipPath>
</defs>
</svg>
