<svg width="30" height="30" viewBox="0 0 30 30" fill="none" xmlns="http://www.w3.org/2000/svg">
<path fill-rule="evenodd" clip-rule="evenodd" d="M15 30C23.2843 30 30 23.2843 30 15C30 6.71573 23.2843 0 15 0C6.71573 0 0 6.71573 0 15C0 23.2843 6.71573 30 15 30ZM10.4616 16.5665L7.01303 15.2806C6.66232 15.1637 6.66232 14.6376 7.01303 14.5207L21.2164 9.02639C21.5087 8.90949 21.8009 9.20174 21.7425 9.49399L19.1707 21.7685C19.1122 22.0608 18.7615 22.1777 18.5277 22.0023L15.0792 19.489C14.8454 19.3136 14.5531 19.3136 14.3778 19.489L12.4489 21.0671C12.2151 21.2425 11.8644 21.184 11.8059 20.8918L10.4616 16.5665ZM18.4108 11.7735L11.6306 15.9235C11.3384 16.0404 11.2214 16.3911 11.3968 16.6834L12.0982 19.2552C12.1566 19.489 12.4489 19.4305 12.4489 19.2552L12.6242 17.8524C12.6242 17.5601 12.7996 17.3263 12.975 17.151L18.5277 11.9489C18.6446 11.8905 18.5277 11.7151 18.4108 11.7735Z" fill="white"/>
</svg>
