<svg width="15" height="15" viewBox="0 0 15 15" fill="none" xmlns="http://www.w3.org/2000/svg">
<g clip-path="url(#clip0_3_154)">
<path d="M6.76488 0C10.4949 0 13.5295 3.03463 13.5295 6.76465C13.5295 8.08652 13.1481 9.3208 12.49 10.3639L14.5599 12.4338C15.147 13.0209 15.147 13.9727 14.5599 14.5597C13.9729 15.1468 13.0211 15.1468 12.434 14.5597L10.3641 12.4898C9.32098 13.1479 8.0867 13.5293 6.76488 13.5293C3.03487 13.5293 0.000236511 10.4947 0.000236511 6.76465C0.000236511 3.03463 3.03481 0 6.76488 0ZM6.76488 12.026C9.66601 12.026 12.0263 9.66577 12.0263 6.76465C12.0263 3.86353 9.66604 1.50325 6.76488 1.50325C3.86373 1.50325 1.50349 3.86353 1.50349 6.76465C1.50349 9.66577 3.8637 12.026 6.76488 12.026Z" fill="white"/>
</g>
<defs>
<clipPath id="clip0_3_154">
<rect width="15" height="15" fill="white" transform="matrix(-1 0 0 1 15 0)"/>
</clipPath>
</defs>
</svg>
