<svg width="17" height="13" viewBox="0 0 17 13" fill="none" xmlns="http://www.w3.org/2000/svg">
<path fill-rule="evenodd" clip-rule="evenodd" d="M1.7 0H15.3C16.235 0 17 0.73125 17 1.625V11.375C17 12.2688 16.235 13 15.3 13H1.7C0.765 13 0 12.2688 0 11.375V1.625C0 0.73125 0.765 0 1.7 0ZM9.401 6.77627L14.96 3.45314C15.1725 3.32314 15.3 3.10376 15.3 2.86814C15.3 2.32376 14.6795 1.99876 14.195 2.28314L8.5 5.68752L2.805 2.28314C2.3205 1.99876 1.7 2.32376 1.7 2.86814C1.7 3.10376 1.8275 3.32314 2.04 3.45314L7.599 6.77627C8.1515 7.10939 8.8485 7.10939 9.401 6.77627Z" fill="white"/>
</svg>
