<svg width="88" height="59" viewBox="0 0 88 59" fill="none" xmlns="http://www.w3.org/2000/svg">
<path d="M0 58.1862V49.8146H5.04418V50.7062H1.28575V58.1862H0ZM8.75233 55.5345L5.64339 49.8146H7.07917L9.50144 54.2495L12.1109 49.8146H13.3095L9.60134 56.1018C9.11445 56.9473 8.64 57.5148 8.21529 57.7811C7.77855 58.0471 7.12905 58.1862 6.26761 58.1862H6.03052V57.2134H6.28032C6.87953 57.2134 7.32898 57.1209 7.62838 56.9473C7.92819 56.7736 8.2403 56.4148 8.56511 55.8706L8.75233 55.5345ZM13.3973 58.1862V57.144C14.2714 57.0283 14.8454 56.5998 15.12 55.8474C15.4073 55.0716 15.5448 53.2304 15.5448 50.3473V49.8146H20.8009V58.1862H19.5152V50.6831H16.8307V50.8684C16.8307 53.4157 16.681 55.1409 16.3689 56.0556C16.1314 56.7505 15.782 57.26 15.3325 57.5841C14.883 57.9083 14.2335 58.1052 13.3973 58.1862ZM23.136 58.1862V49.8146H28.1802V50.7062H24.4218V53.4041H25.1087C25.8205 53.4041 26.3451 53.4274 26.6695 53.4851C26.9943 53.5429 27.3064 53.6589 27.5935 53.8325C28.2801 54.2378 28.6295 54.8399 28.6295 55.6273C28.6295 56.5651 28.2428 57.26 27.4559 57.7113C26.919 58.024 26.0203 58.1862 24.7716 58.1862H23.136ZM24.4218 57.3178H24.8715C25.7455 57.3178 26.3574 57.2019 26.7068 56.9706C27.1313 56.6696 27.3438 56.2526 27.3438 55.7082C27.3438 55.2104 27.1688 54.8399 26.8067 54.6083C26.4447 54.3881 25.8578 54.2726 25.0464 54.2726H24.4218V57.3178ZM29.341 58.1862L32.9246 49.8146H34.1857L37.7066 58.1862H36.3334L35.3468 55.8706H31.5388L30.5399 58.1862H29.341ZM31.9009 54.9787H34.9724L33.4366 51.3776L31.9009 54.9787ZM37.9564 58.1862L40.953 53.983L38.1066 49.8146H39.6296L41.7898 52.964L44.0748 49.8146H45.2733L42.389 53.8439L45.3483 58.1862H43.825L41.54 54.8746L39.1676 58.1862H37.9564ZM45.7727 58.1862L49.3558 49.8146H50.617L54.1382 58.1862H52.7648L51.7782 55.8706H47.9705L46.9711 58.1862H45.7727ZM48.3322 54.9787H51.4038L49.8681 51.3776L48.3322 54.9787ZM55.4492 58.1862V49.8146H57.9089C58.6204 49.8146 59.1573 49.8725 59.5447 49.9766C59.9317 50.0811 60.2438 50.2779 60.4936 50.5439C60.8059 50.9032 60.9678 51.3895 60.9678 52.0147C60.9678 52.8946 60.6433 53.6011 59.9941 54.0988C59.3448 54.6083 58.4458 54.863 57.297 54.863H56.7353V58.1862H55.4492ZM56.7353 53.9716H57.2472C57.9962 53.9716 58.5831 53.8093 58.9954 53.4851C59.4071 53.1609 59.6071 52.6977 59.6071 52.0956C59.6071 51.5977 59.4444 51.2388 59.12 51.0304C58.7952 50.8103 58.2583 50.7062 57.5095 50.7062H56.7353V53.9716ZM66.2994 58.1862V49.8146H68.7591C69.4706 49.8146 70.0075 49.8725 70.3948 49.9766C70.7816 50.0811 71.0938 50.2779 71.3436 50.5439C71.6557 50.9032 71.8179 51.3895 71.8179 52.0147C71.8179 52.8946 71.4935 53.6011 70.8442 54.0988C70.195 54.6083 69.296 54.863 68.1472 54.863H67.5853V58.1862H66.2994ZM67.5853 53.9716H68.0971C68.8463 53.9716 69.4332 53.8093 69.8453 53.4851C70.2573 53.1609 70.4571 52.6977 70.4571 52.0956C70.4571 51.5977 70.2946 51.2388 69.9702 51.0304C69.6454 50.8103 69.1085 50.7062 68.3596 50.7062H67.5853V53.9716ZM75.6013 55.5345L72.4924 49.8146H73.9282L76.3502 54.2495L78.9599 49.8146H80.1585L76.4503 56.1018C75.9633 56.9473 75.489 57.5148 75.0643 57.7811C74.6275 58.0471 73.9778 58.1862 73.1166 58.1862H72.8795V57.2134H73.1293C73.7285 57.2134 74.178 57.1209 74.4774 56.9473C74.7772 56.7736 75.0893 56.4148 75.4138 55.8706L75.6013 55.5345ZM88 57.7577C87.1133 58.1862 86.1392 58.3947 85.0907 58.3947C83.692 58.3947 82.6057 58.0124 81.8443 57.2484C81.0825 56.4841 80.6954 55.4072 80.6954 54.0062C80.6954 52.6052 81.0825 51.5283 81.8692 50.7524C82.6433 49.9882 83.742 49.6062 85.153 49.6062C85.9647 49.6062 86.9011 49.7337 87.987 49.9766V51.0882C86.7509 50.6946 85.8023 50.4977 85.128 50.4977C84.1543 50.4977 83.3926 50.7987 82.8553 51.4243C82.3312 52.0378 82.0564 52.8946 82.0564 54.0178C82.0564 55.0947 82.3439 55.9283 82.9181 56.542C83.4922 57.1556 84.2663 57.4682 85.2652 57.4682C86.1144 57.4682 87.0257 57.2252 88 56.7389V57.7577Z" fill="white"/>
<path fill-rule="evenodd" clip-rule="evenodd" d="M60.1535 25.925C60.0774 21.5876 58.0053 17.7825 55.8772 15.2273C53.5116 12.3853 50.5066 10.4921 47.0424 8.99438C46.9797 15.2121 42.8506 18.6424 43.5057 25.088C43.6042 26.0746 43.8923 26.8091 44.1541 27.7856C45.5151 27.1277 46.7129 25.5054 47.6922 24.1577C49.3252 25.7636 48.8188 29.8514 48.155 32.1576C48.4293 32.3711 48.8311 31.9401 48.9909 31.7863C49.8191 31.0177 50.4328 29.9846 50.947 28.9946C53.4245 24.2052 51.8476 17.2386 49.552 13.2739C49.6446 13.2731 49.6605 13.3497 49.7366 13.3666C52.7781 16.6225 55.2058 21.7998 54.7628 27.5981C54.3227 33.3067 49.2553 37.7797 43.2248 37.8325C36.1052 37.8937 31.1991 31.9985 30.7598 25.4579C30.4357 20.5812 32.6011 16.7601 35.2233 14.4821C37.716 12.3196 41.1803 11.4725 45.0859 10.855C34.6644 11.1856 27.1606 17.0167 27.9704 28.157C28.2746 32.3498 30.0264 35.5494 32.5237 38.018C34.9802 40.438 38.2275 42.3902 42.3891 42.6693C48.1101 43.0524 52.6658 40.5787 55.5052 37.5537C58.0999 34.7873 60.2458 30.936 60.1535 25.925Z" fill="white"/>
<path fill-rule="evenodd" clip-rule="evenodd" d="M36.4589 9.64501C38.5099 4.68032 42.3196 0.173574 49.3544 1.3228C44.0323 2.23831 41.1009 4.13301 38.5399 8.41225C40.1401 7.0285 41.9219 5.85076 44.5438 5.64476C44.414 6.92835 44.3616 7.67179 43.9327 9.23585C46.9866 8.50403 48.9375 5.27196 49.9854 3.35712C50.1763 3.00906 50.5569 1.84618 51.626 1.053C47.4244 -0.82561 42.9211 -0.0206626 40.2099 2.12775C37.548 4.23655 36.1044 7.95902 35.1016 11.71C35.9884 11.5846 36.1782 10.3265 36.4589 9.64501Z" fill="white"/>
</svg>
