<svg width="84" height="111" viewBox="0 0 84 111" fill="none" xmlns="http://www.w3.org/2000/svg">
<path fill-rule="evenodd" clip-rule="evenodd" d="M83.015 67.2802C82.8199 56.0775 77.4849 46.2705 72.0299 39.705C65.9146 32.3891 58.171 27.5118 49.2569 23.655C49.0918 39.6674 38.4594 48.5215 40.1477 65.0967C40.4028 67.6329 41.1456 69.5238 41.8209 72.0374C45.325 70.3416 48.409 66.1697 50.9301 62.6956C55.1321 66.83 53.8265 77.3574 52.1232 83.2926C52.8285 83.8479 53.864 82.7374 54.2692 82.3397C56.3436 80.2453 58.0484 77.8148 59.3115 75.1514C65.6895 62.8232 61.6301 44.8824 55.7174 34.6776C55.9575 34.6776 55.995 34.8727 56.1901 34.9102C60.7256 39.8179 64.2127 45.5989 66.4382 51.8999C68.6637 58.201 69.5808 64.8897 69.1336 71.5572C68.0005 86.2565 54.952 97.7668 39.4273 97.9094C21.0963 98.067 8.46049 82.9024 7.33497 66.0496C6.92129 60.7695 7.74418 55.4657 9.73831 50.5592C11.7324 45.6526 14.8429 41.2785 18.8228 37.7841C25.2458 32.2165 34.1599 30.0405 44.222 28.4497C17.3821 29.2976 -1.93182 44.3121 0.154143 72.9979C0.744861 82.6283 4.92728 91.6866 11.8746 98.3821C18.2 104.617 26.5589 109.637 37.2738 110.388C43.5274 110.845 49.8041 109.9 55.6458 107.622C61.4876 105.344 66.7468 101.789 71.0394 97.2191C77.7175 90.0983 83.2401 80.1787 83.045 67.2802" fill="white"/>
<path fill-rule="evenodd" clip-rule="evenodd" d="M22.0041 25.3359C27.2566 12.58 37.0936 0.949652 55.207 3.90602C41.5057 6.26211 33.9572 11.1394 27.3616 22.162C31.4885 18.5978 36.0731 15.5664 42.8263 15.0337C42.6203 18.16 42.0974 21.2573 41.2655 24.2779C49.1292 22.3946 54.149 14.0732 56.8503 9.14344C57.338 8.25053 58.351 5.25665 61.0747 3.2082C50.2697 -1.62404 38.6468 0.44692 31.6686 5.97698C24.8104 11.4095 21.0962 20.9839 18.515 30.6484C20.7661 30.3257 21.2838 27.0842 22.0041 25.3359Z" fill="white"/>
</svg>
