<svg width="272" height="18" viewBox="0 0 272 18" fill="none" xmlns="http://www.w3.org/2000/svg">
<path d="M196.334 6.8823C199.497 7.49414 201.605 9.63555 203.676 11.7984C202.033 6.29189 197.717 5.28236 192.712 5.42002C197.301 3.70077 204.468 5.66476 204.395 13.5788C198.962 12.7957 198.277 12.5418 196.912 10.7001L199.617 10.0516C199.005 9.36329 198.549 8.78205 198.023 8.27728C197.497 7.77252 196.897 7.34424 196.334 6.8823Z" fill="white"/>
<path d="M183.338 1.23242C187.817 2.15017 195.575 10.0245 198.328 17.0605C195.281 10.0245 187.337 2.88743 183.338 1.23242Z" fill="white"/>
<g opacity="0.5">
<path opacity="0.5" d="M183.266 17.5531L183.266 1L182.96 1L182.96 17.5531L183.266 17.5531Z" fill="white"/>
<path opacity="0.5" d="M181.124 17.5531L181.124 1L180.818 1L180.818 17.5531L181.124 17.5531Z" fill="white"/>
<path opacity="0.5" d="M178.987 17.5531L178.987 1L178.681 1L178.681 17.5531L178.987 17.5531Z" fill="white"/>
<path opacity="0.5" d="M176.843 17.5531L176.843 1L176.537 1L176.537 17.5531L176.843 17.5531Z" fill="white"/>
<path opacity="0.5" d="M174.704 17.5531L174.704 1L174.398 1L174.398 17.5531L174.704 17.5531Z" fill="white"/>
<path opacity="0.5" d="M172.561 17.5531L172.561 1L172.255 1L172.255 17.5531L172.561 17.5531Z" fill="white"/>
<path opacity="0.5" d="M170.423 17.5531L170.423 1L170.117 1L170.117 17.5531L170.423 17.5531Z" fill="white"/>
<path opacity="0.5" d="M168.281 17.5531L168.281 1L167.975 1L167.975 17.5531L168.281 17.5531Z" fill="white"/>
<path opacity="0.5" d="M166.14 17.5531L166.14 1L165.834 1L165.834 17.5531L166.14 17.5531Z" fill="white"/>
<path opacity="0.5" d="M163.998 17.5531L163.998 1L163.692 1L163.692 17.5531L163.998 17.5531Z" fill="white"/>
<path opacity="0.5" d="M161.857 17.5531L161.857 1L161.551 1L161.551 17.5531L161.857 17.5531Z" fill="white"/>
<path opacity="0.5" d="M159.719 17.5531L159.719 1L159.413 1L159.413 17.5531L159.719 17.5531Z" fill="white"/>
<path opacity="0.5" d="M157.578 17.5531L157.578 1L157.272 1L157.272 17.5531L157.578 17.5531Z" fill="white"/>
<path opacity="0.5" d="M155.436 17.5531L155.436 1L155.13 1L155.13 17.5531L155.436 17.5531Z" fill="white"/>
<path opacity="0.5" d="M153.295 17.5531L153.295 1L152.989 1L152.989 17.5531L153.295 17.5531Z" fill="white"/>
<path opacity="0.5" d="M151.155 17.5531L151.155 1L150.849 1L150.849 17.5531L151.155 17.5531Z" fill="white"/>
<path opacity="0.5" d="M149.016 17.5531L149.016 1L148.71 1L148.71 17.5531L149.016 17.5531Z" fill="white"/>
<path opacity="0.5" d="M146.872 17.5531L146.872 1L146.567 1L146.567 17.5531L146.872 17.5531Z" fill="white"/>
<path opacity="0.5" d="M144.733 17.5531L144.733 1L144.427 1L144.427 17.5531L144.733 17.5531Z" fill="white"/>
<path opacity="0.5" d="M142.593 17.5531L142.593 1L142.287 1L142.287 17.5531L142.593 17.5531Z" fill="white"/>
<path opacity="0.5" d="M140.453 17.5531L140.453 1L140.148 1L140.148 17.5531L140.453 17.5531Z" fill="white"/>
<path opacity="0.5" d="M138.31 17.5531L138.31 1L138.004 1L138.004 17.5531L138.31 17.5531Z" fill="white"/>
<path opacity="0.5" d="M136.171 17.5531L136.171 1L135.865 1L135.865 17.5531L136.171 17.5531Z" fill="white"/>
<path opacity="0.5" d="M134.027 17.5531L134.027 1L133.722 1L133.722 17.5531L134.027 17.5531Z" fill="white"/>
<path opacity="0.5" d="M131.89 17.5531L131.89 1L131.584 1L131.584 17.5531L131.89 17.5531Z" fill="white"/>
<path opacity="0.5" d="M129.748 17.5531L129.748 1L129.442 1L129.442 17.5531L129.748 17.5531Z" fill="white"/>
<path opacity="0.5" d="M127.607 17.5531L127.607 1L127.301 1L127.301 17.5531L127.607 17.5531Z" fill="white"/>
<path opacity="0.5" d="M125.465 17.5531L125.465 1L125.159 1L125.159 17.5531L125.465 17.5531Z" fill="white"/>
<path opacity="0.5" d="M123.328 17.5531L123.328 1L123.022 1L123.022 17.5531L123.328 17.5531Z" fill="white"/>
<path opacity="0.5" d="M121.186 17.5531L121.186 1L120.88 1L120.88 17.5531L121.186 17.5531Z" fill="white"/>
<path opacity="0.5" d="M119.045 17.5531L119.045 1L118.739 1L118.739 17.5531L119.045 17.5531Z" fill="white"/>
<path opacity="0.5" d="M116.903 17.5531L116.903 1L116.597 1L116.597 17.5531L116.903 17.5531Z" fill="white"/>
<path opacity="0.5" d="M114.765 17.5531L114.765 1L114.459 1L114.459 17.5531L114.765 17.5531Z" fill="white"/>
<path opacity="0.5" d="M112.622 17.5531L112.622 1L112.316 1L112.316 17.5531L112.622 17.5531Z" fill="white"/>
<path opacity="0.5" d="M110.483 17.5531L110.483 1L110.177 1L110.177 17.5531L110.483 17.5531Z" fill="white"/>
<path opacity="0.5" d="M108.339 17.5531L108.339 1L108.033 1L108.033 17.5531L108.339 17.5531Z" fill="white"/>
<path opacity="0.5" d="M106.202 17.5531L106.202 1L105.896 1L105.896 17.5531L106.202 17.5531Z" fill="white"/>
<path opacity="0.5" d="M104.06 17.5531L104.06 1L103.754 1L103.754 17.5531L104.06 17.5531Z" fill="white"/>
<path opacity="0.5" d="M101.919 17.5531L101.919 1L101.613 1L101.613 17.5531L101.919 17.5531Z" fill="white"/>
<path opacity="0.5" d="M99.7773 17.5531L99.7773 1L99.4714 1L99.4714 17.5531L99.7773 17.5531Z" fill="white"/>
<path opacity="0.5" d="M97.6359 17.5531L97.6359 1L97.3299 1L97.3299 17.5531L97.6359 17.5531Z" fill="white"/>
<path opacity="0.5" d="M95.498 17.5531L95.498 1L95.1921 1L95.1921 17.5531L95.498 17.5531Z" fill="white"/>
<path opacity="0.5" d="M93.3566 17.5531L93.3566 1L93.0507 1L93.0506 17.5531L93.3566 17.5531Z" fill="white"/>
<path opacity="0.5" d="M91.2151 17.5531L91.2151 1L90.9092 1L90.9092 17.5531L91.2151 17.5531Z" fill="white"/>
<path opacity="0.5" d="M89.0737 17.5531L89.0737 1L88.7678 1L88.7678 17.5531L89.0737 17.5531Z" fill="white"/>
<path opacity="0.5" d="M86.9341 17.5531L86.9341 1L86.6282 1L86.6282 17.5531L86.9341 17.5531Z" fill="white"/>
<path opacity="0.5" d="M84.7945 17.5531L84.7945 1L84.4886 1L84.4886 17.5531L84.7945 17.5531Z" fill="white"/>
<path opacity="0.5" d="M82.6513 17.5531L82.6513 1L82.3454 1L82.3454 17.5531L82.6513 17.5531Z" fill="white"/>
<path opacity="0.5" d="M80.5117 17.5531L80.5117 1L80.2057 1L80.2057 17.5531L80.5117 17.5531Z" fill="white"/>
<path opacity="0.5" d="M78.372 17.5531L78.372 1L78.0661 1L78.0661 17.5531L78.372 17.5531Z" fill="white"/>
<path opacity="0.5" d="M76.2324 17.5531L76.2324 1L75.9264 1L75.9264 17.5531L76.2324 17.5531Z" fill="white"/>
<path opacity="0.5" d="M74.0892 17.5531L74.0892 1L73.7833 1L73.7833 17.5531L74.0892 17.5531Z" fill="white"/>
<path opacity="0.5" d="M71.9478 17.5531L71.9478 1L71.6418 1L71.6418 17.5531L71.9478 17.5531Z" fill="white"/>
<path opacity="0.5" d="M69.8099 17.5531L69.8099 1L69.504 1L69.504 17.5531L69.8099 17.5531Z" fill="white"/>
<path opacity="0.5" d="M67.6685 17.5531L67.6685 1L67.3626 1L67.3626 17.5531L67.6685 17.5531Z" fill="white"/>
<path opacity="0.5" d="M65.5271 17.5531L65.5271 1L65.2212 1L65.2212 17.5531L65.5271 17.5531Z" fill="white"/>
<path opacity="0.5" d="M63.3857 17.5531L63.3857 1L63.0798 1L63.0798 17.5531L63.3857 17.5531Z" fill="white"/>
<path opacity="0.5" d="M61.2443 17.5531L61.2443 1L60.9383 1L60.9383 17.5531L61.2443 17.5531Z" fill="white"/>
<path opacity="0.5" d="M59.1064 17.5531L59.1064 1L58.8005 1L58.8005 17.5531L59.1064 17.5531Z" fill="white"/>
<path opacity="0.5" d="M56.965 17.5531L56.965 1L56.659 1L56.659 17.5531L56.965 17.5531Z" fill="white"/>
<path opacity="0.5" d="M54.8235 17.5531L54.8235 1L54.5176 1L54.5176 17.5531L54.8235 17.5531Z" fill="white"/>
<path opacity="0.5" d="M52.6821 17.5531L52.6821 1L52.3762 1L52.3762 17.5531L52.6821 17.5531Z" fill="white"/>
<path opacity="0.5" d="M50.5442 17.5531L50.5443 1L50.2383 1L50.2383 17.5531L50.5442 17.5531Z" fill="white"/>
<path opacity="0.5" d="M48.4011 17.5531L48.4011 1L48.0951 1L48.0951 17.5531L48.4011 17.5531Z" fill="white"/>
<path opacity="0.5" d="M46.2614 17.5531L46.2614 1L45.9555 1L45.9555 17.5531L46.2614 17.5531Z" fill="white"/>
<path opacity="0.5" d="M44.1182 17.5531L44.1182 1L43.8123 1L43.8123 17.5531L44.1182 17.5531Z" fill="white"/>
<path opacity="0.5" d="M41.9804 17.5531L41.9804 1L41.6745 1L41.6745 17.5531L41.9804 17.5531Z" fill="white"/>
<path opacity="0.5" d="M39.839 17.5531L39.839 1L39.5331 1L39.5331 17.5531L39.839 17.5531Z" fill="white"/>
<path opacity="0.5" d="M37.6976 17.5531L37.6976 1L37.3917 1L37.3917 17.5531L37.6976 17.5531Z" fill="white"/>
<path opacity="0.5" d="M35.5562 17.5531L35.5562 1L35.2502 1L35.2502 17.5531L35.5562 17.5531Z" fill="white"/>
<path opacity="0.5" d="M33.4147 17.5531L33.4147 1L33.1088 1L33.1088 17.5531L33.4147 17.5531Z" fill="white"/>
<path opacity="0.5" d="M31.2769 17.5531L31.2769 1L30.9709 1L30.9709 17.5531L31.2769 17.5531Z" fill="white"/>
<path opacity="0.5" d="M29.1354 17.5531L29.1354 1L28.8295 1L28.8295 17.5531L29.1354 17.5531Z" fill="white"/>
<path opacity="0.5" d="M26.994 17.5531L26.994 1L26.6881 1L26.6881 17.5531L26.994 17.5531Z" fill="white"/>
<path opacity="0.5" d="M24.8526 17.5531L24.8526 1L24.5467 1L24.5467 17.5531L24.8526 17.5531Z" fill="white"/>
<path opacity="0.5" d="M22.7148 17.5531L22.7148 1L22.4089 1L22.4089 17.5531L22.7148 17.5531Z" fill="white"/>
<path opacity="0.5" d="M20.5734 17.5531L20.5734 1L20.2674 1L20.2674 17.5531L20.5734 17.5531Z" fill="white"/>
<path opacity="0.5" d="M18.4319 17.5531L18.4319 1L18.126 1L18.126 17.5531L18.4319 17.5531Z" fill="white"/>
<path opacity="0.5" d="M16.2905 17.5531L16.2905 1L15.9846 1L15.9846 17.5531L16.2905 17.5531Z" fill="white"/>
<path opacity="0.5" d="M14.1509 17.5531L14.1509 1L13.845 1L13.845 17.5531L14.1509 17.5531Z" fill="white"/>
<path opacity="0.5" d="M12.0095 17.5531L12.0095 1L11.7035 1L11.7035 17.5531L12.0095 17.5531Z" fill="white"/>
<path opacity="0.5" d="M9.86804 17.5531L9.86804 1L9.56213 1L9.56212 17.5531L9.86804 17.5531Z" fill="white"/>
<path opacity="0.5" d="M7.72662 17.5531L7.72662 1L7.42071 1L7.42071 17.5531L7.72662 17.5531Z" fill="white"/>
<path opacity="0.5" d="M5.58874 17.5531L5.58875 1L5.28283 1L5.28283 17.5531L5.58874 17.5531Z" fill="white"/>
<path opacity="0.5" d="M3.44733 17.5531L3.44733 1L3.14141 1L3.14141 17.5531L3.44733 17.5531Z" fill="white"/>
<path opacity="0.5" d="M1.30591 17.5531L1.30591 1L0.999992 1L0.999991 17.5531L1.30591 17.5531Z" fill="white"/>
</g>
<path d="M1.15344 17.4005L1.15344 1.1533L270.843 1.15332L270.843 17.4006L1.15344 17.4005Z" stroke="white" stroke-width="0.6" stroke-miterlimit="10"/>
<g clip-path="url(#clip0_113_68)">
<path fill-rule="evenodd" clip-rule="evenodd" d="M216.347 7.33758H216.565C216.669 7.33687 216.771 7.36274 216.861 7.4127C216.913 7.4396 216.953 7.48331 216.976 7.53653C216.995 7.5844 217.018 7.70162 217.018 7.98724V11.0118C217.018 11.342 216.979 11.4683 216.946 11.5121C216.868 11.612 216.743 11.6607 216.565 11.6607H216.347V11.8918H218.458V11.6607H218.237C218.135 11.661 218.035 11.6345 217.947 11.5839C217.894 11.5587 217.85 11.5162 217.824 11.4634C217.806 11.4155 217.784 11.2983 217.784 11.0118V7.99055C217.784 7.6554 217.824 7.53405 217.859 7.48947C217.937 7.39041 218.063 7.34088 218.237 7.34088H218.458V7.10645H216.347V7.33758Z" fill="white"/>
<path fill-rule="evenodd" clip-rule="evenodd" d="M213.078 10.699L211.411 7.10645H210V7.33758H210.052C210.186 7.32886 210.32 7.35 210.445 7.39949C210.511 7.42907 210.566 7.47953 210.6 7.54313C210.65 7.67956 210.671 7.82494 210.661 7.96991V11.0292C210.661 11.3404 210.625 11.4601 210.594 11.5038C210.521 11.6103 210.396 11.6607 210.215 11.6607H210V11.8918H211.736V11.6607H211.516C211.346 11.6607 211.227 11.6194 211.151 11.5336C211.121 11.4989 211.068 11.3883 211.068 11.0292V8.13501L212.782 11.8621L212.796 11.8918H212.976L214.698 8.13583V11.0292C214.698 11.3404 214.662 11.4601 214.631 11.5047C214.56 11.6087 214.433 11.6607 214.252 11.6607H214.034V11.8918H216.126V11.6607H215.912C215.747 11.6607 215.621 11.6186 215.546 11.5327C215.515 11.4981 215.463 11.3866 215.463 11.0292V7.96991C215.463 7.6587 215.5 7.53983 215.53 7.49525C215.603 7.38876 215.728 7.33758 215.912 7.33758H216.126V7.10645H214.712L213.078 10.699Z" fill="white"/>
<path fill-rule="evenodd" clip-rule="evenodd" d="M222.585 10.5256C222.502 10.7506 222.384 10.9609 222.235 11.1489C222.134 11.2677 222.004 11.3593 221.859 11.4155C221.719 11.4667 221.47 11.4923 221.12 11.4923H220.778C220.394 11.4923 220.288 11.4725 220.258 11.4609C220.216 11.4458 220.18 11.4167 220.157 11.3784C220.116 11.2598 220.099 11.1339 220.108 11.0085V8.06649C220.108 7.72969 220.135 7.60587 220.158 7.56129C220.2 7.48952 220.263 7.43328 220.34 7.40115C220.491 7.34886 220.651 7.32698 220.81 7.33676H220.893V7.10645H218.668V7.33758H218.895C218.962 7.33241 219.029 7.34168 219.091 7.36476C219.154 7.38784 219.211 7.42419 219.259 7.47131C219.297 7.51506 219.341 7.63641 219.341 7.98724V11.0077C219.341 11.328 219.307 11.4469 219.278 11.4915C219.202 11.6054 219.078 11.6607 218.895 11.6607H218.668V11.8918H222.388L222.813 10.5322L222.603 10.486L222.585 10.5256Z" fill="white"/>
<path fill-rule="evenodd" clip-rule="evenodd" d="M227.514 11.5179C227.414 11.4304 227.297 11.2315 227.169 10.9269L225.541 7.03137L225.526 7H225.337L223.676 10.8848C223.537 11.215 223.409 11.4362 223.299 11.541C223.264 11.574 223.175 11.6236 222.945 11.6615L222.903 11.6698V11.8919H224.479V11.6649H224.432C224.165 11.6459 224.061 11.6029 224.019 11.5707C223.994 11.5543 223.974 11.5322 223.959 11.5064C223.945 11.4806 223.937 11.4517 223.936 11.4222C223.951 11.286 223.991 11.1538 224.053 11.0317L224.358 10.3243H226.102L226.368 10.9665C226.438 11.1109 226.483 11.2661 226.501 11.4255C226.501 11.4556 226.494 11.4852 226.48 11.5121C226.467 11.5389 226.447 11.5621 226.423 11.5798C226.366 11.6252 226.248 11.6533 226.074 11.6624H226.025V11.891H227.975V11.664H227.926C227.776 11.6639 227.631 11.6136 227.513 11.5212L227.514 11.5179ZM225.96 9.96516H224.506L225.243 8.2564L225.96 9.96516Z" fill="white"/>
<path fill-rule="evenodd" clip-rule="evenodd" d="M237.316 7.70723C237.111 7.48323 236.861 7.30458 236.582 7.18275C236.304 7.06091 236.003 6.99859 235.699 6.99978C235.101 6.99057 234.522 7.21476 234.087 7.62468C233.572 8.10182 233.31 8.72671 233.31 9.48121C233.31 10.2242 233.537 10.8309 233.982 11.2973C234.198 11.5213 234.457 11.6992 234.744 11.8202C235.031 11.9412 235.339 12.0028 235.651 12.0013C235.962 11.9997 236.27 11.9351 236.555 11.8112C236.841 11.6874 237.098 11.5069 237.312 11.2808C237.769 10.802 238 10.1944 238 9.47378C238 8.77294 237.77 8.18024 237.316 7.70888V7.70723ZM235.634 7.35392C236.068 7.35392 236.398 7.50168 236.643 7.80464C236.951 8.18767 237.106 8.78037 237.106 9.56541C237.106 10.2869 236.966 10.8218 236.687 11.1545C236.562 11.3119 236.402 11.4384 236.22 11.5243C236.038 11.6101 235.838 11.6531 235.637 11.6498C235.454 11.6549 235.272 11.6168 235.106 11.5385C234.941 11.4602 234.796 11.3439 234.684 11.1991C234.366 10.7987 234.204 10.2151 234.204 9.46553C234.204 8.73744 234.359 8.17611 234.665 7.79969C234.78 7.65456 234.928 7.53856 235.096 7.46111C235.264 7.38365 235.449 7.34693 235.634 7.35392Z" fill="white"/>
<path fill-rule="evenodd" clip-rule="evenodd" d="M231.328 7.33758H231.542C231.713 7.33758 231.832 7.37886 231.908 7.46471C231.946 7.50763 231.99 7.62981 231.99 7.96991V10.5289L229.223 7.12543L229.208 7.10645H227.86V7.33758H227.912C228.01 7.33371 228.107 7.34315 228.202 7.36565C228.306 7.39558 228.405 7.44094 228.495 7.5002C228.601 7.58742 228.697 7.68535 228.783 7.79243V11.0292C228.783 11.3404 228.747 11.4601 228.718 11.5047C228.644 11.6087 228.515 11.6607 228.334 11.6607H228.12V11.8918H229.856V11.6607H229.638C229.572 11.6667 229.505 11.6585 229.442 11.6366C229.379 11.6146 229.322 11.5795 229.274 11.5336C229.237 11.4915 229.191 11.3685 229.191 11.0292V8.28937L232.187 11.9529L232.202 11.9727H232.403V7.96991C232.403 7.6587 232.439 7.539 232.47 7.49525C232.542 7.38876 232.666 7.33758 232.849 7.33758H233.064V7.10645H231.328V7.33758Z" fill="white"/>
</g>
<defs>
<clipPath id="clip0_113_68">
<rect width="28" height="5" fill="white" transform="translate(210 7)"/>
</clipPath>
</defs>
</svg>
