<svg width="272" height="25" viewBox="0 0 272 25" fill="none" xmlns="http://www.w3.org/2000/svg">
<path d="M199.961 9.73636C203.999 10.5134 206.703 13.236 209.35 16.026C207.248 8.98992 201.726 7.68977 195.323 7.86415C201.194 5.66767 210.362 8.17006 210.27 18.302C203.317 17.3017 202.442 16.9743 200.695 14.631L204.158 13.802C203.372 12.9209 202.791 12.1806 202.118 11.5321C201.445 10.8835 200.683 10.3268 199.961 9.73636Z" fill="white"/>
<path d="M183.337 2.5083C189.064 3.68914 199.006 13.7569 202.528 22.7569C198.615 13.7569 188.455 4.6283 183.337 2.5083Z" fill="white"/>
<g opacity="0.5">
<path opacity="0.5" d="M183.264 24.0513L183.264 1.00049L182.958 1.00049L182.958 24.0513L183.264 24.0513Z" fill="white"/>
<path opacity="0.5" d="M181.123 24.0508L181.123 1L180.817 1L180.817 24.0508L181.123 24.0508Z" fill="white"/>
<path opacity="0.5" d="M178.985 24.0508L178.985 1L178.679 1L178.679 24.0508L178.985 24.0508Z" fill="white"/>
<path opacity="0.5" d="M176.843 24.0508L176.843 1L176.537 1L176.537 24.0508L176.843 24.0508Z" fill="white"/>
<path opacity="0.5" d="M174.702 24.0508L174.702 1L174.396 1L174.396 24.0508L174.702 24.0508Z" fill="white"/>
<path opacity="0.5" d="M172.56 24.0508L172.56 1L172.255 1L172.255 24.0508L172.56 24.0508Z" fill="white"/>
<path opacity="0.5" d="M170.421 24.0508L170.421 1L170.115 1L170.115 24.0508L170.421 24.0508Z" fill="white"/>
<path opacity="0.5" d="M168.281 24.0508L168.281 1L167.975 1L167.975 24.0508L168.281 24.0508Z" fill="white"/>
<path opacity="0.5" d="M166.138 24.0508L166.138 1L165.832 1L165.832 24.0508L166.138 24.0508Z" fill="white"/>
<path opacity="0.5" d="M163.998 24.0508L163.998 1L163.692 1L163.692 24.0508L163.998 24.0508Z" fill="white"/>
<path opacity="0.5" d="M161.855 24.0508L161.855 1L161.549 1L161.549 24.0508L161.855 24.0508Z" fill="white"/>
<path opacity="0.5" d="M159.719 24.0508L159.719 1L159.413 1L159.413 24.0508L159.719 24.0508Z" fill="white"/>
<path opacity="0.5" d="M157.576 24.0508L157.576 1L157.27 1L157.27 24.0508L157.576 24.0508Z" fill="white"/>
<path opacity="0.5" d="M155.436 24.0508L155.436 1L155.13 1L155.13 24.0508L155.436 24.0508Z" fill="white"/>
<path opacity="0.5" d="M153.293 24.0508L153.293 1L152.987 1L152.987 24.0508L153.293 24.0508Z" fill="white"/>
<path opacity="0.5" d="M151.155 24.0508L151.155 1L150.849 1L150.849 24.0508L151.155 24.0508Z" fill="white"/>
<path opacity="0.5" d="M149.014 24.0508L149.014 1L148.708 1L148.708 24.0508L149.014 24.0508Z" fill="white"/>
<path opacity="0.5" d="M146.872 24.0508L146.872 1L146.566 1L146.566 24.0508L146.872 24.0508Z" fill="white"/>
<path opacity="0.5" d="M144.731 24.0508L144.731 1L144.425 1L144.425 24.0508L144.731 24.0508Z" fill="white"/>
<path opacity="0.5" d="M142.593 24.0508L142.593 1L142.287 1L142.287 24.0508L142.593 24.0508Z" fill="white"/>
<path opacity="0.5" d="M140.452 24.0508L140.452 1L140.146 1L140.146 24.0508L140.452 24.0508Z" fill="white"/>
<path opacity="0.5" d="M138.31 24.0508L138.31 1L138.004 1L138.004 24.0508L138.31 24.0508Z" fill="white"/>
<path opacity="0.5" d="M136.169 24.0508L136.169 1L135.863 1L135.863 24.0508L136.169 24.0508Z" fill="white"/>
<path opacity="0.5" d="M134.027 24.0508L134.027 1L133.722 1L133.722 24.0508L134.027 24.0508Z" fill="white"/>
<path opacity="0.5" d="M131.888 24.0508L131.888 1L131.582 1L131.582 24.0508L131.888 24.0508Z" fill="white"/>
<path opacity="0.5" d="M129.748 24.0508L129.748 1L129.442 1L129.442 24.0508L129.748 24.0508Z" fill="white"/>
<path opacity="0.5" d="M127.605 24.0508L127.605 1L127.299 1L127.299 24.0508L127.605 24.0508Z" fill="white"/>
<path opacity="0.5" d="M125.465 24.0508L125.465 1L125.159 1L125.159 24.0508L125.465 24.0508Z" fill="white"/>
<path opacity="0.5" d="M123.326 24.0508L123.326 1L123.02 1L123.02 24.0508L123.326 24.0508Z" fill="white"/>
<path opacity="0.5" d="M121.186 24.0508L121.186 1L120.88 1L120.88 24.0508L121.186 24.0508Z" fill="white"/>
<path opacity="0.5" d="M119.043 24.0508L119.043 1L118.737 1L118.737 24.0508L119.043 24.0508Z" fill="white"/>
<path opacity="0.5" d="M116.901 24.0508L116.901 1L116.596 1L116.596 24.0508L116.901 24.0508Z" fill="white"/>
<path opacity="0.5" d="M114.764 24.0508L114.764 1L114.458 1L114.458 24.0508L114.764 24.0508Z" fill="white"/>
<path opacity="0.5" d="M112.622 24.0508L112.622 1L112.316 1L112.316 24.0508L112.622 24.0508Z" fill="white"/>
<path opacity="0.5" d="M110.481 24.0508L110.481 1L110.175 1L110.175 24.0508L110.481 24.0508Z" fill="white"/>
<path opacity="0.5" d="M108.339 24.0508L108.339 1L108.033 1L108.033 24.0508L108.339 24.0508Z" fill="white"/>
<path opacity="0.5" d="M106.2 24.0508L106.2 1L105.894 1L105.894 24.0508L106.2 24.0508Z" fill="white"/>
<path opacity="0.5" d="M104.06 24.0508L104.06 1L103.754 1L103.754 24.0508L104.06 24.0508Z" fill="white"/>
<path opacity="0.5" d="M101.919 24.0508L101.919 1L101.613 1L101.613 24.0508L101.919 24.0508Z" fill="white"/>
<path opacity="0.5" d="M99.7772 24.0508L99.7772 1L99.4713 1L99.4713 24.0508L99.7772 24.0508Z" fill="white"/>
<path opacity="0.5" d="M97.6359 24.0508L97.6359 1L97.3299 1L97.3299 24.0508L97.6359 24.0508Z" fill="white"/>
<path opacity="0.5" d="M95.498 24.0508L95.498 1L95.1921 1L95.1921 24.0508L95.498 24.0508Z" fill="white"/>
<path opacity="0.5" d="M93.3548 24.0508L93.3548 1L93.0489 1L93.0489 24.0508L93.3548 24.0508Z" fill="white"/>
<path opacity="0.5" d="M91.2151 24.0508L91.2151 1L90.9092 1L90.9092 24.0508L91.2151 24.0508Z" fill="white"/>
<path opacity="0.5" d="M89.072 24.0508L89.072 1L88.766 1L88.766 24.0508L89.072 24.0508Z" fill="white"/>
<path opacity="0.5" d="M86.9341 24.0508L86.9341 1L86.6282 1L86.6282 24.0508L86.9341 24.0508Z" fill="white"/>
<path opacity="0.5" d="M84.7927 24.0508L84.7927 1L84.4867 1L84.4867 24.0508L84.7927 24.0508Z" fill="white"/>
<path opacity="0.5" d="M82.6512 24.0508L82.6512 1L82.3453 1L82.3453 24.0508L82.6512 24.0508Z" fill="white"/>
<path opacity="0.5" d="M80.5098 24.0508L80.5098 1L80.2039 1L80.2039 24.0508L80.5098 24.0508Z" fill="white"/>
<path opacity="0.5" d="M78.372 24.0508L78.372 1L78.0661 1L78.0661 24.0508L78.372 24.0508Z" fill="white"/>
<path opacity="0.5" d="M76.2306 24.0508L76.2306 1L75.9247 1L75.9247 24.0508L76.2306 24.0508Z" fill="white"/>
<path opacity="0.5" d="M74.0892 24.0508L74.0892 1L73.7833 1L73.7833 24.0508L74.0892 24.0508Z" fill="white"/>
<path opacity="0.5" d="M71.9478 24.0508L71.9478 1L71.6418 1L71.6418 24.0508L71.9478 24.0508Z" fill="white"/>
<path opacity="0.5" d="M69.8099 24.0508L69.8099 1L69.504 1L69.504 24.0508L69.8099 24.0508Z" fill="white"/>
<path opacity="0.5" d="M67.6667 24.0508L67.6667 1L67.3608 1L67.3608 24.0508L67.6667 24.0508Z" fill="white"/>
<path opacity="0.5" d="M65.527 24.0508L65.527 1L65.2211 1L65.2211 24.0508L65.527 24.0508Z" fill="white"/>
<path opacity="0.5" d="M63.3838 24.0508L63.3839 1L63.0779 1L63.0779 24.0508L63.3838 24.0508Z" fill="white"/>
<path opacity="0.5" d="M61.2442 24.0508L61.2442 1L60.9383 1L60.9383 24.0508L61.2442 24.0508Z" fill="white"/>
<path opacity="0.5" d="M59.1046 24.0508L59.1046 1L58.7986 1L58.7986 24.0508L59.1046 24.0508Z" fill="white"/>
<path opacity="0.5" d="M56.9631 24.0508L56.9631 1L56.6572 1L56.6572 24.0508L56.9631 24.0508Z" fill="white"/>
<path opacity="0.5" d="M54.8218 24.0508L54.8218 1L54.5159 1L54.5159 24.0508L54.8218 24.0508Z" fill="white"/>
<path opacity="0.5" d="M52.6804 24.0508L52.6804 1L52.3744 1L52.3744 24.0508L52.6804 24.0508Z" fill="white"/>
<path opacity="0.5" d="M50.5425 24.0508L50.5425 1L50.2366 1L50.2366 24.0508L50.5425 24.0508Z" fill="white"/>
<path opacity="0.5" d="M48.4011 24.0508L48.4011 1L48.0951 1L48.0951 24.0508L48.4011 24.0508Z" fill="white"/>
<path opacity="0.5" d="M46.2596 24.0508L46.2596 1L45.9537 1L45.9537 24.0508L46.2596 24.0508Z" fill="white"/>
<path opacity="0.5" d="M44.1182 24.0508L44.1182 1L43.8123 1L43.8123 24.0508L44.1182 24.0508Z" fill="white"/>
<path opacity="0.5" d="M41.9803 24.0508L41.9803 1L41.6744 1L41.6744 24.0508L41.9803 24.0508Z" fill="white"/>
<path opacity="0.5" d="M39.8389 24.0508L39.8389 1L39.533 1L39.533 24.0508L39.8389 24.0508Z" fill="white"/>
<path opacity="0.5" d="M37.6975 24.0508L37.6975 1L37.3916 1L37.3916 24.0508L37.6975 24.0508Z" fill="white"/>
<path opacity="0.5" d="M35.5561 24.0508L35.5561 1L35.2502 1L35.2502 24.0508L35.5561 24.0508Z" fill="white"/>
<path opacity="0.5" d="M33.4147 24.0508L33.4147 1L33.1088 1L33.1088 24.0508L33.4147 24.0508Z" fill="white"/>
<path opacity="0.5" d="M31.2769 24.0508L31.2769 1L30.9709 1L30.9709 24.0508L31.2769 24.0508Z" fill="white"/>
<path opacity="0.5" d="M29.1337 24.0508L29.1337 1L28.8278 1L28.8277 24.0508L29.1337 24.0508Z" fill="white"/>
<path opacity="0.5" d="M26.994 24.0508L26.994 1L26.6881 1L26.6881 24.0508L26.994 24.0508Z" fill="white"/>
<path opacity="0.5" d="M24.8508 24.0508L24.8508 1L24.5449 1L24.5449 24.0508L24.8508 24.0508Z" fill="white"/>
<path opacity="0.5" d="M22.713 24.0508L22.713 1L22.407 1L22.407 24.0508L22.713 24.0508Z" fill="white"/>
<path opacity="0.5" d="M20.5715 24.0508L20.5715 1L20.2656 1L20.2656 24.0508L20.5715 24.0508Z" fill="white"/>
<path opacity="0.5" d="M18.4301 24.0508L18.4301 1L18.1242 1L18.1242 24.0508L18.4301 24.0508Z" fill="white"/>
<path opacity="0.5" d="M16.2887 24.0508L16.2887 1L15.9828 1L15.9828 24.0508L16.2887 24.0508Z" fill="white"/>
<path opacity="0.5" d="M14.1508 24.0508L14.1508 1L13.8449 1L13.8449 24.0508L14.1508 24.0508Z" fill="white"/>
<path opacity="0.5" d="M12.0095 24.0508L12.0095 1L11.7035 1L11.7035 24.0508L12.0095 24.0508Z" fill="white"/>
<path opacity="0.5" d="M9.86804 24.0508L9.86804 1L9.56213 1L9.56212 24.0508L9.86804 24.0508Z" fill="white"/>
<path opacity="0.5" d="M7.72662 24.0508L7.72662 1L7.42071 1L7.42071 24.0508L7.72662 24.0508Z" fill="white"/>
<path opacity="0.5" d="M5.58874 24.0508L5.58875 1L5.28283 1L5.28283 24.0508L5.58874 24.0508Z" fill="white"/>
<path opacity="0.5" d="M3.44733 24.0508L3.44733 1L3.14141 1L3.14141 24.0508L3.44733 24.0508Z" fill="white"/>
<path opacity="0.5" d="M1.30591 24.0508L1.30591 1L0.999992 1L0.99999 24.0508L1.30591 24.0508Z" fill="white"/>
</g>
<path d="M1.15161 23.8982L1.15161 1.1533L270.842 1.15332L270.842 23.8982L1.15161 23.8982Z" stroke="white" stroke-width="0.6" stroke-miterlimit="10"/>
<g clip-path="url(#clip0_113_292)">
<path fill-rule="evenodd" clip-rule="evenodd" d="M223.347 10.3376H223.565C223.669 10.3369 223.771 10.3627 223.861 10.4127C223.912 10.4396 223.953 10.4833 223.976 10.5365C223.995 10.5844 224.017 10.7016 224.017 10.9872V14.0118C224.017 14.342 223.978 14.4683 223.945 14.5121C223.868 14.612 223.743 14.6607 223.565 14.6607H223.347V14.8918H225.457V14.6607H225.237C225.135 14.661 225.035 14.6345 224.946 14.5839C224.893 14.5587 224.85 14.5162 224.824 14.4634C224.806 14.4155 224.784 14.2983 224.784 14.0118V10.9905C224.784 10.6554 224.824 10.534 224.859 10.4895C224.937 10.3904 225.063 10.3409 225.237 10.3409H225.457V10.1064H223.347V10.3376Z" fill="white"/>
<path fill-rule="evenodd" clip-rule="evenodd" d="M220.077 13.699L218.411 10.1064H217V10.3376H217.052C217.186 10.3289 217.32 10.35 217.445 10.3995C217.511 10.4291 217.565 10.4795 217.6 10.5431C217.65 10.6796 217.671 10.8249 217.661 10.9699V14.0292C217.661 14.3404 217.625 14.4601 217.594 14.5038C217.521 14.6103 217.396 14.6607 217.215 14.6607H217V14.8918H218.736V14.6607H218.516C218.346 14.6607 218.227 14.6194 218.15 14.5336C218.121 14.4989 218.068 14.3883 218.068 14.0292V11.135L219.781 14.8621L219.796 14.8918H219.976L221.698 11.1358V14.0292C221.698 14.3404 221.661 14.4601 221.631 14.5047C221.56 14.6087 221.432 14.6607 221.252 14.6607H221.034V14.8918H223.126V14.6607H222.912C222.747 14.6607 222.621 14.6186 222.546 14.5327C222.514 14.4981 222.463 14.3866 222.463 14.0292V10.9699C222.463 10.6587 222.5 10.5398 222.53 10.4953C222.603 10.3888 222.728 10.3376 222.912 10.3376H223.126V10.1064H221.712L220.077 13.699Z" fill="white"/>
<path fill-rule="evenodd" clip-rule="evenodd" d="M229.585 13.5256C229.502 13.7506 229.384 13.9609 229.234 14.1489C229.133 14.2677 229.004 14.3593 228.858 14.4155C228.719 14.4667 228.47 14.4923 228.119 14.4923H227.778C227.393 14.4923 227.288 14.4725 227.258 14.4609C227.216 14.4458 227.18 14.4167 227.157 14.3784C227.115 14.2598 227.099 14.1339 227.107 14.0085V11.0665C227.107 10.7297 227.135 10.6059 227.158 10.5613C227.199 10.4895 227.263 10.4333 227.34 10.4011C227.491 10.3489 227.651 10.327 227.81 10.3368H227.893V10.1064H225.667V10.3376H225.895C225.961 10.3324 226.028 10.3417 226.091 10.3648C226.154 10.3878 226.211 10.4242 226.258 10.4713C226.296 10.5151 226.341 10.6364 226.341 10.9872V14.0077C226.341 14.328 226.307 14.4469 226.277 14.4915C226.202 14.6054 226.077 14.6607 225.895 14.6607H225.667V14.8918H229.387L229.813 13.5322L229.602 13.486L229.585 13.5256Z" fill="white"/>
<path fill-rule="evenodd" clip-rule="evenodd" d="M234.513 14.5179C234.413 14.4304 234.297 14.2315 234.169 13.9269L232.541 10.0314L232.525 10H232.337L230.676 13.8848C230.536 14.215 230.409 14.4362 230.298 14.541C230.264 14.574 230.175 14.6236 229.945 14.6615L229.902 14.6698V14.8919H231.479V14.6649H231.432C231.165 14.6459 231.061 14.6029 231.018 14.5707C230.994 14.5543 230.973 14.5322 230.959 14.5064C230.945 14.4806 230.937 14.4517 230.936 14.4222C230.951 14.286 230.991 14.1538 231.053 14.0317L231.358 13.3243H233.102L233.368 13.9665C233.438 14.1109 233.483 14.2661 233.501 14.4255C233.501 14.4556 233.494 14.4852 233.48 14.5121C233.466 14.5389 233.447 14.5621 233.422 14.5798C233.365 14.6252 233.248 14.6533 233.073 14.6624H233.025V14.891H234.975V14.664H234.926C234.776 14.6639 234.631 14.6136 234.513 14.5212L234.513 14.5179ZM232.959 12.9652H231.506L232.243 11.2564L232.959 12.9652Z" fill="white"/>
<path fill-rule="evenodd" clip-rule="evenodd" d="M244.316 10.7072C244.111 10.4832 243.861 10.3046 243.582 10.1827C243.304 10.0609 243.003 9.99859 242.699 9.99978C242.101 9.99057 241.522 10.2148 241.087 10.6247C240.572 11.1018 240.31 11.7267 240.31 12.4812C240.31 13.2242 240.536 13.8309 240.982 14.2973C241.198 14.5213 241.457 14.6992 241.744 14.8202C242.031 14.9412 242.339 15.0028 242.65 15.0013C242.962 14.9997 243.269 14.9351 243.555 14.8112C243.841 14.6874 244.098 14.5069 244.312 14.2808C244.769 13.802 244.999 13.1944 244.999 12.4738C244.999 11.7729 244.77 11.1802 244.316 10.7089V10.7072ZM242.634 10.3539C243.068 10.3539 243.397 10.5017 243.643 10.8046C243.95 11.1877 244.106 11.7804 244.106 12.5654C244.106 13.2869 243.965 13.8218 243.687 14.1545C243.561 14.3119 243.402 14.4384 243.22 14.5243C243.038 14.6101 242.838 14.6531 242.637 14.6498C242.454 14.6549 242.272 14.6168 242.106 14.5385C241.941 14.4602 241.796 14.3439 241.684 14.1991C241.365 13.7987 241.204 13.2151 241.204 12.4655C241.204 11.7374 241.359 11.1761 241.665 10.7997C241.78 10.6546 241.927 10.5386 242.096 10.4611C242.264 10.3837 242.448 10.3469 242.634 10.3539V10.3539Z" fill="white"/>
<path fill-rule="evenodd" clip-rule="evenodd" d="M238.328 10.3376H238.542C238.713 10.3376 238.832 10.3789 238.907 10.4647C238.945 10.5076 238.99 10.6298 238.99 10.9699V13.5289L236.223 10.1254L236.207 10.1064H234.86V10.3376H234.912C235.009 10.3337 235.107 10.3431 235.201 10.3656C235.305 10.3956 235.404 10.4409 235.495 10.5002C235.601 10.5874 235.697 10.6854 235.783 10.7924V14.0292C235.783 14.3404 235.747 14.4601 235.717 14.5047C235.644 14.6087 235.515 14.6607 235.334 14.6607H235.12V14.8918H236.856V14.6607H236.638C236.572 14.6667 236.505 14.6585 236.442 14.6366C236.379 14.6146 236.322 14.5795 236.274 14.5336C236.236 14.4915 236.191 14.3685 236.191 14.0292V11.2894L239.187 14.9529L239.202 14.9727H239.403V10.9699C239.403 10.6587 239.439 10.539 239.469 10.4953C239.542 10.3888 239.666 10.3376 239.849 10.3376H240.064V10.1064H238.328V10.3376Z" fill="white"/>
</g>
<defs>
<clipPath id="clip0_113_292">
<rect width="28" height="5" fill="white" transform="translate(217 10)"/>
</clipPath>
</defs>
</svg>
