<svg width="324" height="18" viewBox="0 0 324 18" fill="none" xmlns="http://www.w3.org/2000/svg">
<path d="M238.227 6.91648C241.39 7.52831 243.498 9.66973 245.569 11.8326C243.926 6.32606 239.61 5.31653 234.605 5.45114C239.194 3.73495 246.361 5.69893 246.288 13.613C240.855 12.8298 240.17 12.5729 238.805 10.7343L241.509 10.0858C240.898 9.3944 240.442 8.81622 239.916 8.31146C239.389 7.8067 238.79 7.37841 238.227 6.91648Z" fill="white"/>
<path d="M225.231 1.26562C229.71 2.18337 237.468 10.0577 240.221 17.0938C237.174 10.0577 229.23 2.92063 225.231 1.26562Z" fill="white"/>
<g opacity="0.5">
<path opacity="0.5" d="M225.506 17.5536L225.506 1.00049L225.2 1.00049L225.2 17.5536L225.506 17.5536Z" fill="white"/>
<path opacity="0.5" d="M223.37 17.5531L223.37 1L223.064 1L223.064 17.5531L223.37 17.5531Z" fill="white"/>
<path opacity="0.5" d="M221.236 17.5531L221.236 1L220.93 1L220.93 17.5531L221.236 17.5531Z" fill="white"/>
<path opacity="0.5" d="M219.1 17.5531L219.1 1L218.794 1L218.794 17.5531L219.1 17.5531Z" fill="white"/>
<path opacity="0.5" d="M216.966 17.5531L216.966 1L216.66 1L216.66 17.5531L216.966 17.5531Z" fill="white"/>
<path opacity="0.5" d="M214.829 17.5531L214.829 1L214.524 1L214.524 17.5531L214.829 17.5531Z" fill="white"/>
<path opacity="0.5" d="M212.695 17.5531L212.695 1L212.389 1L212.389 17.5531L212.695 17.5531Z" fill="white"/>
<path opacity="0.5" d="M210.559 17.5531L210.559 1L210.253 1L210.253 17.5531L210.559 17.5531Z" fill="white"/>
<path opacity="0.5" d="M208.423 17.5531L208.423 1L208.117 1L208.117 17.5531L208.423 17.5531Z" fill="white"/>
<path opacity="0.5" d="M206.289 17.5531L206.289 1L205.983 1L205.983 17.5531L206.289 17.5531Z" fill="white"/>
<path opacity="0.5" d="M204.154 17.5531L204.154 1L203.848 1L203.848 17.5531L204.154 17.5531Z" fill="white"/>
<path opacity="0.5" d="M202.018 17.5531L202.018 1L201.712 1L201.712 17.5531L202.018 17.5531Z" fill="white"/>
<path opacity="0.5" d="M199.884 17.5531L199.884 1L199.578 1L199.578 17.5531L199.884 17.5531Z" fill="white"/>
<path opacity="0.5" d="M197.748 17.5531L197.748 1L197.442 1L197.442 17.5531L197.748 17.5531Z" fill="white"/>
<path opacity="0.5" d="M195.612 17.5531L195.612 1L195.306 1L195.306 17.5531L195.612 17.5531Z" fill="white"/>
<path opacity="0.5" d="M193.477 17.5531L193.477 1L193.172 1L193.172 17.5531L193.477 17.5531Z" fill="white"/>
<path opacity="0.5" d="M191.341 17.5531L191.341 1L191.035 1L191.035 17.5531L191.341 17.5531Z" fill="white"/>
<path opacity="0.5" d="M189.207 17.5531L189.207 1L188.901 1L188.901 17.5531L189.207 17.5531Z" fill="white"/>
<path opacity="0.5" d="M187.071 17.5531L187.071 1L186.765 1L186.765 17.5531L187.071 17.5531Z" fill="white"/>
<path opacity="0.5" d="M184.935 17.5531L184.935 1L184.629 1L184.629 17.5531L184.935 17.5531Z" fill="white"/>
<path opacity="0.5" d="M182.801 17.5531L182.801 1L182.495 1L182.495 17.5531L182.801 17.5531Z" fill="white"/>
<path opacity="0.5" d="M180.664 17.5531L180.664 1L180.359 1L180.359 17.5531L180.664 17.5531Z" fill="white"/>
<path opacity="0.5" d="M178.53 17.5531L178.53 1L178.224 1L178.224 17.5531L178.53 17.5531Z" fill="white"/>
<path opacity="0.5" d="M176.394 17.5531L176.394 1L176.088 1L176.088 17.5531L176.394 17.5531Z" fill="white"/>
<path opacity="0.5" d="M174.26 17.5531L174.26 1L173.954 1L173.954 17.5531L174.26 17.5531Z" fill="white"/>
<path opacity="0.5" d="M172.125 17.5531L172.125 1L171.82 1L171.82 17.5531L172.125 17.5531Z" fill="white"/>
<path opacity="0.5" d="M169.989 17.5531L169.989 1L169.683 1L169.683 17.5531L169.989 17.5531Z" fill="white"/>
<path opacity="0.5" d="M167.853 17.5531L167.853 1L167.547 1L167.547 17.5531L167.853 17.5531Z" fill="white"/>
<path opacity="0.5" d="M165.719 17.5531L165.719 1L165.413 1L165.413 17.5531L165.719 17.5531Z" fill="white"/>
<path opacity="0.5" d="M163.583 17.5531L163.583 1L163.277 1L163.277 17.5531L163.583 17.5531Z" fill="white"/>
<path opacity="0.5" d="M161.449 17.5531L161.449 1L161.143 1L161.143 17.5531L161.449 17.5531Z" fill="white"/>
<path opacity="0.5" d="M159.312 17.5531L159.312 1L159.007 1L159.007 17.5531L159.312 17.5531Z" fill="white"/>
<path opacity="0.5" d="M157.176 17.5531L157.176 1L156.87 1L156.87 17.5531L157.176 17.5531Z" fill="white"/>
<path opacity="0.5" d="M155.042 17.5531L155.042 1L154.736 1L154.736 17.5531L155.042 17.5531Z" fill="white"/>
<path opacity="0.5" d="M152.906 17.5531L152.906 1L152.6 1L152.6 17.5531L152.906 17.5531Z" fill="white"/>
<path opacity="0.5" d="M150.772 17.5531L150.772 1L150.466 1L150.466 17.5531L150.772 17.5531Z" fill="white"/>
<path opacity="0.5" d="M148.636 17.5531L148.636 1L148.33 1L148.33 17.5531L148.636 17.5531Z" fill="white"/>
<path opacity="0.5" d="M146.5 17.5531L146.5 1L146.194 1L146.194 17.5531L146.5 17.5531Z" fill="white"/>
<path opacity="0.5" d="M144.365 17.5531L144.365 1L144.059 1L144.059 17.5531L144.365 17.5531Z" fill="white"/>
<path opacity="0.5" d="M142.229 17.5531L142.229 1L141.923 1L141.923 17.5531L142.229 17.5531Z" fill="white"/>
<path opacity="0.5" d="M140.097 17.5531L140.097 1L139.791 1L139.791 17.5531L140.097 17.5531Z" fill="white"/>
<path opacity="0.5" d="M137.959 17.5531L137.959 1L137.653 1L137.653 17.5531L137.959 17.5531Z" fill="white"/>
<path opacity="0.5" d="M135.826 17.5531L135.826 1L135.52 1L135.52 17.5531L135.826 17.5531Z" fill="white"/>
<path opacity="0.5" d="M133.692 17.5531L133.692 1L133.386 1L133.386 17.5531L133.692 17.5531Z" fill="white"/>
<path opacity="0.5" d="M131.556 17.5531L131.556 1L131.25 1L131.25 17.5531L131.556 17.5531Z" fill="white"/>
<path opacity="0.5" d="M129.421 17.5531L129.421 1L129.116 1L129.116 17.5531L129.421 17.5531Z" fill="white"/>
<path opacity="0.5" d="M127.287 17.5531L127.287 1L126.981 1L126.981 17.5531L127.287 17.5531Z" fill="white"/>
<path opacity="0.5" d="M125.151 17.5531L125.151 1L124.845 1L124.845 17.5531L125.151 17.5531Z" fill="white"/>
<path opacity="0.5" d="M123.015 17.5531L123.015 1L122.709 1L122.709 17.5531L123.015 17.5531Z" fill="white"/>
<path opacity="0.5" d="M120.881 17.5531L120.881 1L120.575 1L120.575 17.5531L120.881 17.5531Z" fill="white"/>
<path opacity="0.5" d="M118.745 17.5531L118.745 1L118.439 1L118.439 17.5531L118.745 17.5531Z" fill="white"/>
<path opacity="0.5" d="M116.61 17.5531L116.61 1L116.304 1L116.304 17.5531L116.61 17.5531Z" fill="white"/>
<path opacity="0.5" d="M114.474 17.5531L114.474 1L114.168 1L114.168 17.5531L114.474 17.5531Z" fill="white"/>
<path opacity="0.5" d="M112.338 17.5531L112.338 1L112.032 1L112.032 17.5531L112.338 17.5531Z" fill="white"/>
<path opacity="0.5" d="M110.204 17.5531L110.204 1L109.898 1L109.898 17.5531L110.204 17.5531Z" fill="white"/>
<path opacity="0.5" d="M108.068 17.5531L108.068 1L107.762 1L107.762 17.5531L108.068 17.5531Z" fill="white"/>
<path opacity="0.5" d="M105.933 17.5531L105.933 1L105.627 1L105.627 17.5531L105.933 17.5531Z" fill="white"/>
<path opacity="0.5" d="M103.797 17.5531L103.797 1L103.491 1L103.491 17.5531L103.797 17.5531Z" fill="white"/>
<path opacity="0.5" d="M101.661 17.5531L101.661 1L101.355 1L101.355 17.5531L101.661 17.5531Z" fill="white"/>
<path opacity="0.5" d="M99.5269 17.5531L99.5269 1L99.221 1L99.221 17.5531L99.5269 17.5531Z" fill="white"/>
<path opacity="0.5" d="M97.3908 17.5531L97.3908 1L97.0849 1L97.0849 17.5531L97.3908 17.5531Z" fill="white"/>
<path opacity="0.5" d="M95.2565 17.5531L95.2565 1L94.9506 1L94.9506 17.5531L95.2565 17.5531Z" fill="white"/>
<path opacity="0.5" d="M93.1222 17.5531L93.1222 1L92.8163 1L92.8163 17.5531L93.1222 17.5531Z" fill="white"/>
<path opacity="0.5" d="M90.9861 17.5531L90.9861 1L90.6802 1L90.6802 17.5531L90.9861 17.5531Z" fill="white"/>
<path opacity="0.5" d="M88.8518 17.5531L88.8518 1L88.5459 1L88.5459 17.5531L88.8518 17.5531Z" fill="white"/>
<path opacity="0.5" d="M86.7157 17.5531L86.7157 1L86.4098 1L86.4098 17.5531L86.7157 17.5531Z" fill="white"/>
<path opacity="0.5" d="M84.5796 17.5531L84.5796 1L84.2737 1L84.2737 17.5531L84.5796 17.5531Z" fill="white"/>
<path opacity="0.5" d="M82.4453 17.5531L82.4453 1L82.1394 1L82.1394 17.5531L82.4453 17.5531Z" fill="white"/>
<path opacity="0.5" d="M80.3092 17.5531L80.3092 1L80.0033 1L80.0033 17.5531L80.3092 17.5531Z" fill="white"/>
<path opacity="0.5" d="M78.1749 17.5531L78.1749 1L77.869 1L77.869 17.5531L78.1749 17.5531Z" fill="white"/>
<path opacity="0.5" d="M76.0388 17.5531L76.0388 1L75.7329 1L75.7329 17.5531L76.0388 17.5531Z" fill="white"/>
<path opacity="0.5" d="M73.9027 17.5531L73.9027 1L73.5968 1L73.5968 17.5531L73.9027 17.5531Z" fill="white"/>
<path opacity="0.5" d="M71.7684 17.5531L71.7684 1L71.4625 1L71.4625 17.5531L71.7684 17.5531Z" fill="white"/>
<path opacity="0.5" d="M69.6323 17.5531L69.6323 1L69.3264 1L69.3264 17.5531L69.6323 17.5531Z" fill="white"/>
<path opacity="0.5" d="M67.498 17.5531L67.498 1L67.1921 1L67.1921 17.5531L67.498 17.5531Z" fill="white"/>
<path opacity="0.5" d="M65.3619 17.5531L65.3619 1L65.056 1L65.056 17.5531L65.3619 17.5531Z" fill="white"/>
<path opacity="0.5" d="M63.2258 17.5531L63.2258 1L62.9199 1L62.9199 17.5531L63.2258 17.5531Z" fill="white"/>
<path opacity="0.5" d="M61.0915 17.5531L61.0915 1L60.7856 1L60.7856 17.5531L61.0915 17.5531Z" fill="white"/>
<path opacity="0.5" d="M58.9554 17.5531L58.9554 1L58.6495 1L58.6495 17.5531L58.9554 17.5531Z" fill="white"/>
<path opacity="0.5" d="M56.8211 17.5531L56.8211 1L56.5152 1L56.5152 17.5531L56.8211 17.5531Z" fill="white"/>
<path opacity="0.5" d="M54.6868 17.5531L54.6868 1L54.3809 1L54.3809 17.5531L54.6868 17.5531Z" fill="white"/>
<path opacity="0.5" d="M52.5507 17.5531L52.5507 1L52.2448 1L52.2448 17.5531L52.5507 17.5531Z" fill="white"/>
<path opacity="0.5" d="M50.4146 17.5531L50.4146 1L50.1087 1L50.1087 17.5531L50.4146 17.5531Z" fill="white"/>
<path opacity="0.5" d="M48.2803 17.5531L48.2803 1L47.9744 1L47.9744 17.5531L48.2803 17.5531Z" fill="white"/>
<path opacity="0.5" d="M46.1442 17.5531L46.1442 1L45.8383 1L45.8383 17.5531L46.1442 17.5531Z" fill="white"/>
<path opacity="0.5" d="M44.0099 17.5531L44.0099 1L43.704 1L43.704 17.5531L44.0099 17.5531Z" fill="white"/>
<path opacity="0.5" d="M41.8738 17.5531L41.8738 1L41.5679 1L41.5679 17.5531L41.8738 17.5531Z" fill="white"/>
<path opacity="0.5" d="M39.7395 17.5531L39.7395 1L39.4336 1L39.4336 17.5531L39.7395 17.5531Z" fill="white"/>
<path opacity="0.5" d="M37.6035 17.5531L37.6035 1L37.2975 1L37.2975 17.5531L37.6035 17.5531Z" fill="white"/>
<path opacity="0.5" d="M35.4673 17.5531L35.4673 1L35.1614 1L35.1614 17.5531L35.4673 17.5531Z" fill="white"/>
<path opacity="0.5" d="M33.333 17.5531L33.333 1L33.0271 1L33.0271 17.5531L33.333 17.5531Z" fill="white"/>
<path opacity="0.5" d="M31.197 17.5531L31.197 1L30.891 1L30.891 17.5531L31.197 17.5531Z" fill="white"/>
<path opacity="0.5" d="M29.0626 17.5531L29.0626 1L28.7567 1L28.7567 17.5531L29.0626 17.5531Z" fill="white"/>
<path opacity="0.5" d="M26.9301 17.5531L26.9301 1L26.6242 1L26.6242 17.5531L26.9301 17.5531Z" fill="white"/>
<path opacity="0.5" d="M24.7905 17.5531L24.7905 1L24.4845 1L24.4845 17.5531L24.7905 17.5531Z" fill="white"/>
<path opacity="0.5" d="M22.6597 17.5531L22.6597 1L22.3538 1L22.3538 17.5531L22.6597 17.5531Z" fill="white"/>
<path opacity="0.5" d="M20.5236 17.5531L20.5236 1L20.2177 1L20.2177 17.5531L20.5236 17.5531Z" fill="white"/>
<path opacity="0.5" d="M18.3875 17.5531L18.3875 1L18.0816 1L18.0816 17.5531L18.3875 17.5531Z" fill="white"/>
<path opacity="0.5" d="M16.2532 17.5531L16.2532 1L15.9473 1L15.9473 17.5531L16.2532 17.5531Z" fill="white"/>
<path opacity="0.5" d="M14.1171 17.5531L14.1171 1L13.8112 1L13.8112 17.5531L14.1171 17.5531Z" fill="white"/>
<path opacity="0.5" d="M11.9828 17.5531L11.9828 1L11.6769 1L11.6769 17.5531L11.9828 17.5531Z" fill="white"/>
<path opacity="0.5" d="M9.84851 17.5531L9.84851 1L9.54259 1L9.54259 17.5531L9.84851 17.5531Z" fill="white"/>
<path opacity="0.5" d="M7.7124 17.5531L7.7124 1L7.40649 1L7.40648 17.5531L7.7124 17.5531Z" fill="white"/>
<path opacity="0.5" d="M5.57806 17.5531L5.57806 1L5.27215 1L5.27215 17.5531L5.57806 17.5531Z" fill="white"/>
<path opacity="0.5" d="M3.44202 17.5531L3.44202 1L3.1361 1L3.1361 17.5531L3.44202 17.5531Z" fill="white"/>
<path opacity="0.5" d="M1.30591 17.5531L1.30591 1L0.999992 1L0.999991 17.5531L1.30591 17.5531Z" fill="white"/>
</g>
<path d="M1.15934 17.4L1.15934 1.15281L322.831 1.15283L322.831 17.4001L1.15934 17.4Z" stroke="white" stroke-width="0.6" stroke-miterlimit="10"/>
<g clip-path="url(#clip0_113_170)">
<path fill-rule="evenodd" clip-rule="evenodd" d="M258.347 7.33758H258.565C258.669 7.33687 258.77 7.36274 258.861 7.4127C258.912 7.4396 258.953 7.48331 258.976 7.53653C258.995 7.5844 259.017 7.70162 259.017 7.98724V11.0118C259.017 11.342 258.978 11.4683 258.945 11.5121C258.868 11.612 258.743 11.6607 258.565 11.6607H258.347V11.8918H260.457V11.6607H260.237C260.135 11.661 260.035 11.6345 259.946 11.5839C259.893 11.5587 259.85 11.5162 259.824 11.4634C259.806 11.4155 259.784 11.2983 259.784 11.0118V7.99055C259.784 7.6554 259.824 7.53405 259.859 7.48947C259.936 7.39041 260.063 7.34088 260.237 7.34088H260.457V7.10645H258.347V7.33758Z" fill="white"/>
<path fill-rule="evenodd" clip-rule="evenodd" d="M255.077 10.699L253.411 7.10645H252V7.33758H252.052C252.186 7.32886 252.32 7.35 252.444 7.39949C252.511 7.42907 252.565 7.47953 252.6 7.54313C252.65 7.67956 252.671 7.82494 252.661 7.96991V11.0292C252.661 11.3404 252.625 11.4601 252.594 11.5038C252.52 11.6103 252.396 11.6607 252.215 11.6607H252V11.8918H253.736V11.6607H253.516C253.345 11.6607 253.226 11.6194 253.15 11.5336C253.121 11.4989 253.068 11.3883 253.068 11.0292V8.13501L254.781 11.8621L254.795 11.8918H254.976L256.698 8.13583V11.0292C256.698 11.3404 256.661 11.4601 256.631 11.5047C256.56 11.6087 256.432 11.6607 256.252 11.6607H256.034V11.8918H258.126V11.6607H257.912C257.747 11.6607 257.621 11.6186 257.546 11.5327C257.514 11.4981 257.463 11.3866 257.463 11.0292V7.96991C257.463 7.6587 257.499 7.53983 257.53 7.49525C257.603 7.38876 257.728 7.33758 257.912 7.33758H258.126V7.10645H256.712L255.077 10.699Z" fill="white"/>
<path fill-rule="evenodd" clip-rule="evenodd" d="M264.585 10.5256C264.502 10.7506 264.383 10.9609 264.234 11.1489C264.133 11.2677 264.004 11.3593 263.858 11.4155C263.719 11.4667 263.47 11.4923 263.119 11.4923H262.778C262.393 11.4923 262.288 11.4725 262.258 11.4609C262.216 11.4458 262.18 11.4167 262.157 11.3784C262.115 11.2598 262.098 11.1339 262.107 11.0085V8.06649C262.107 7.72969 262.135 7.60587 262.158 7.56129C262.199 7.48952 262.263 7.43328 262.34 7.40115C262.491 7.34886 262.65 7.32698 262.81 7.33676H262.893V7.10645H260.667V7.33758H260.895C260.961 7.33241 261.028 7.34168 261.091 7.36476C261.154 7.38784 261.211 7.42419 261.258 7.47131C261.296 7.51506 261.341 7.63641 261.341 7.98724V11.0077C261.341 11.328 261.307 11.4469 261.277 11.4915C261.202 11.6054 261.077 11.6607 260.895 11.6607H260.667V11.8918H264.387L264.813 10.5322L264.602 10.486L264.585 10.5256Z" fill="white"/>
<path fill-rule="evenodd" clip-rule="evenodd" d="M269.513 11.5179C269.413 11.4304 269.297 11.2315 269.169 10.9269L267.541 7.03137L267.525 7H267.337L265.676 10.8848C265.536 11.215 265.409 11.4362 265.298 11.541C265.264 11.574 265.175 11.6236 264.944 11.6615L264.902 11.6698V11.8919H266.479V11.6649H266.432C266.165 11.6459 266.06 11.6029 266.018 11.5707C265.994 11.5543 265.973 11.5322 265.959 11.5064C265.945 11.4806 265.937 11.4517 265.936 11.4222C265.951 11.286 265.991 11.1538 266.053 11.0317L266.358 10.3243H268.101L268.368 10.9665C268.438 11.1109 268.483 11.2661 268.501 11.4255C268.501 11.4556 268.494 11.4852 268.48 11.5121C268.466 11.5389 268.447 11.5621 268.422 11.5798C268.365 11.6252 268.248 11.6533 268.073 11.6624H268.025V11.891H269.975V11.664H269.926C269.776 11.6639 269.631 11.6136 269.513 11.5212L269.513 11.5179ZM267.959 9.96516H266.506L267.243 8.2564L267.959 9.96516Z" fill="white"/>
<path fill-rule="evenodd" clip-rule="evenodd" d="M279.316 7.70723C279.11 7.48323 278.861 7.30458 278.582 7.18275C278.304 7.06091 278.003 6.99859 277.699 6.99978C277.1 6.99057 276.522 7.21476 276.087 7.62468C275.572 8.10182 275.31 8.72671 275.31 9.48121C275.31 10.2242 275.536 10.8309 275.982 11.2973C276.198 11.5213 276.457 11.6992 276.744 11.8202C277.03 11.9412 277.339 12.0028 277.65 12.0013C277.962 11.9997 278.269 11.9351 278.555 11.8112C278.84 11.6874 279.098 11.5069 279.312 11.2808C279.769 10.802 279.999 10.1944 279.999 9.47378C279.999 8.77294 279.77 8.18024 279.316 7.70888V7.70723ZM277.633 7.35392C278.067 7.35392 278.397 7.50168 278.643 7.80464C278.95 8.18767 279.106 8.78037 279.106 9.56541C279.106 10.2869 278.965 10.8218 278.687 11.1545C278.561 11.3119 278.401 11.4384 278.219 11.5243C278.037 11.6101 277.838 11.6531 277.637 11.6498C277.454 11.6549 277.272 11.6168 277.106 11.5385C276.94 11.4602 276.796 11.3439 276.684 11.1991C276.365 10.7987 276.204 10.2151 276.204 9.46553C276.204 8.73744 276.359 8.17611 276.665 7.79969C276.78 7.65456 276.927 7.53856 277.096 7.46111C277.264 7.38365 277.448 7.34693 277.633 7.35392V7.35392Z" fill="white"/>
<path fill-rule="evenodd" clip-rule="evenodd" d="M273.328 7.33758H273.542C273.713 7.33758 273.832 7.37886 273.907 7.46471C273.945 7.50763 273.99 7.62981 273.99 7.96991V10.5289L271.223 7.12543L271.207 7.10645H269.86V7.33758H269.912C270.009 7.33371 270.107 7.34315 270.201 7.36565C270.305 7.39558 270.404 7.44094 270.495 7.5002C270.601 7.58742 270.697 7.68535 270.782 7.79243V11.0292C270.782 11.3404 270.747 11.4601 270.717 11.5047C270.644 11.6087 270.515 11.6607 270.334 11.6607H270.12V11.8918H271.855V11.6607H271.638C271.572 11.6667 271.505 11.6585 271.442 11.6366C271.379 11.6146 271.322 11.5795 271.274 11.5336C271.236 11.4915 271.191 11.3685 271.191 11.0292V8.28937L274.187 11.9529L274.202 11.9727H274.402V7.96991C274.402 7.6587 274.439 7.539 274.469 7.49525C274.542 7.38876 274.666 7.33758 274.849 7.33758H275.064V7.10645H273.328V7.33758Z" fill="white"/>
</g>
<defs>
<clipPath id="clip0_113_170">
<rect width="28" height="5" fill="white" transform="translate(252 7)"/>
</clipPath>
</defs>
</svg>
